<?xml version="1.0" encoding="utf-8"?>
<!-- Generator: Adobe Illustrator 20.1.0, SVG Export Plug-In . SVG Version: 6.00 Build 0)  -->
<svg version="1.2" baseProfile="tiny" id="Layer_1" xmlns="http://www.w3.org/2000/svg" xmlns:xlink="http://www.w3.org/1999/xlink"
	 x="0px" y="0px" viewBox="0 0 32 32" xml:space="preserve">
<rect fill="none" width="32" height="32"/>
<g>
	<path fill="#A243AB" d="M23.2,10.3c0.4,0,0.8,0.1,1.1,0.4c0.3,0.3,0.4,0.6,0.4,1.1v9c0,0.4-0.1,0.8-0.4,1.1
		c-0.3,0.3-0.6,0.4-1.1,0.4h-13c-0.4,0-0.8-0.1-1.1-0.4s-0.4-0.6-0.4-1.1v-9c0-0.4,0.1-0.8,0.4-1.1s0.6-0.4,1.1-0.4H23.2z M23,20.8
		c0,0,0.1,0,0.1-0.1s0.1-0.1,0.1-0.1v-8.6c0,0,0-0.1-0.1-0.1s-0.1-0.1-0.1-0.1H10.4c0,0-0.1,0-0.1,0.1c0,0-0.1,0.1-0.1,0.1v8.6
		c0,0,0,0.1,0.1,0.1c0,0,0.1,0.1,0.1,0.1H23z M12.7,13c0.4,0,0.7,0.1,0.9,0.4c0.2,0.2,0.4,0.5,0.4,0.9s-0.1,0.7-0.4,0.9
		c-0.2,0.2-0.5,0.4-0.9,0.4s-0.7-0.1-0.9-0.4c-0.2-0.2-0.4-0.5-0.4-0.9s0.1-0.7,0.4-0.9C12,13.1,12.3,13,12.7,13z M11.7,19.3v-1.5
		l1.3-1.3c0.1-0.1,0.1-0.1,0.3-0.1c0.1,0,0.2,0,0.3,0.1l1.3,1.3l3.8-3.8c0.1-0.1,0.1-0.1,0.3-0.1s0.2,0,0.3,0.1l2.8,2.8v2.5H11.7z"
		/>
</g>
</svg>
