<?xml version="1.0" encoding="utf-8"?>
<!-- Generator: Adobe Illustrator 20.1.0, SVG Export Plug-In . SVG Version: 6.00 Build 0)  -->
<svg version="1.2" baseProfile="tiny" id="Layer_1" xmlns="http://www.w3.org/2000/svg" xmlns:xlink="http://www.w3.org/1999/xlink"
	 x="0px" y="0px" viewBox="0 0 32 32" xml:space="preserve">
<rect fill="none" width="32" height="32"/>
<g>
	<path fill="#BD6A7C" d="M21.9,11.1c0.4,0.4,0.7,1,0.7,1.6s-0.2,1.2-0.7,1.6L20,16.2v5.6c0,0.6-0.2,1.2-0.7,1.6s-1,0.7-1.6,0.7h-0.3
		c-0.6,0-1.1-0.2-1.5-0.6c-0.4,0.4-0.9,0.6-1.5,0.6h-0.3c-0.6,0-1.2-0.2-1.6-0.7s-0.7-1-0.7-1.6v-5.6l-1.9-1.9
		c-0.4-0.4-0.7-1-0.7-1.6s0.2-1.2,0.7-1.6c0.3-0.3,0.7-0.5,1.2-0.6c0.5-0.1,0.9,0,1.3,0.2c0.2-0.8,0.6-1.4,1.2-2
		c0.6-0.5,1.3-0.8,2.2-0.8c0.8,0,1.5,0.3,2.2,0.8c0.6,0.5,1,1.2,1.2,2c0.4-0.2,0.9-0.3,1.3-0.2C21.2,10.6,21.6,10.8,21.9,11.1z
		 M20.8,13.3c0.1-0.1,0.2-0.3,0.2-0.5s-0.1-0.4-0.2-0.5S20.5,12,20.3,12s-0.4,0.1-0.5,0.2l-2.3,2.3h-2.9l-2.3-2.3
		C12.1,12,11.9,12,11.7,12s-0.4,0.1-0.5,0.2S11,12.5,11,12.7s0.1,0.4,0.2,0.5l2.3,2.3v6.2c0,0.2,0.1,0.4,0.2,0.5
		c0.1,0.1,0.3,0.2,0.5,0.2h0.3c0.2,0,0.4-0.1,0.5-0.2c0.1-0.1,0.2-0.3,0.2-0.5v-3h1.5v3c0,0.2,0.1,0.4,0.2,0.5
		c0.1,0.1,0.3,0.2,0.5,0.2h0.3c0.2,0,0.4-0.1,0.5-0.2c0.1-0.1,0.2-0.3,0.2-0.5v-6.2L20.8,13.3z M16,9.4c-0.5,0-1,0.2-1.3,0.6
		c-0.4,0.4-0.6,0.8-0.6,1.3s0.2,1,0.6,1.3c0.4,0.4,0.8,0.6,1.3,0.6c0.5,0,1-0.2,1.3-0.6c0.4-0.4,0.6-0.8,0.6-1.3s-0.2-1-0.6-1.3
		C17,9.6,16.5,9.4,16,9.4z"/>
</g>
</svg>
