<?xml version="1.0" encoding="utf-8"?>
<!-- Generator: Adobe Illustrator 20.1.0, SVG Export Plug-In . SVG Version: 6.00 Build 0)  -->
<svg version="1.2" baseProfile="tiny" id="Layer_1" xmlns="http://www.w3.org/2000/svg" xmlns:xlink="http://www.w3.org/1999/xlink"
	 x="0px" y="0px" viewBox="0 0 32 32" xml:space="preserve">
<rect fill="none" width="32" height="32"/>
<g>
	<path fill="#1AD662" d="M23.1,24.4H8.9v-1.1c0-0.1,0-0.2,0.1-0.3c0.1-0.1,0.2-0.1,0.3-0.1h0.6V9c0-0.2,0-0.4,0.2-0.5
		c0.2-0.1,0.3-0.2,0.6-0.2h10.6c0.2,0,0.4,0.1,0.5,0.2C22,8.6,22.1,8.7,22.1,9v13.9h0.6c0.1,0,0.2,0,0.3,0.1
		c0.1,0.1,0.1,0.2,0.1,0.3V24.4z M15,22.8v-2.1c0-0.1,0-0.2,0.1-0.3s0.2-0.1,0.3-0.1h1.3c0.1,0,0.2,0,0.3,0.1s0.1,0.2,0.1,0.3v2.1
		h3.6V9.7l-9.1,0v13.1H15z M13,11.6c0-0.1,0-0.2,0.1-0.3c0.1-0.1,0.2-0.1,0.3-0.1h1.3c0.1,0,0.2,0,0.3,0.1c0.1,0.1,0.1,0.2,0.1,0.3
		v1.3c0,0.1,0,0.2-0.1,0.3c-0.1,0.1-0.2,0.1-0.3,0.1h-1.3c-0.1,0-0.2,0-0.3-0.1C13,13.1,13,13,13,12.9V11.6z M14.6,16.3
		c0.1,0,0.2,0,0.3-0.1S15,16,15,15.9v-1.3c0-0.1,0-0.2-0.1-0.3s-0.2-0.1-0.3-0.1h-1.3c-0.1,0-0.2,0-0.3,0.1S13,14.5,13,14.6v1.3
		c0,0.1,0,0.2,0.1,0.3s0.2,0.1,0.3,0.1H14.6z M15,17.7c0-0.1,0-0.2-0.1-0.3c-0.1-0.1-0.2-0.1-0.3-0.1h-1.3c-0.1,0-0.2,0-0.3,0.1
		C13,17.5,13,17.6,13,17.7v1.3c0,0.1,0,0.2,0.1,0.3c0.1,0.1,0.2,0.1,0.3,0.1h1.3c0.1,0,0.2,0,0.3-0.1C15,19.1,15,19,15,18.9V17.7z
		 M18.6,13.2c0.1,0,0.2,0,0.3-0.1C19,13.1,19,13,19,12.9v-1.3c0-0.1,0-0.2-0.1-0.3c-0.1-0.1-0.2-0.1-0.3-0.1h-1.3
		c-0.1,0-0.2,0-0.3,0.1C17,11.4,17,11.5,17,11.6v1.3c0,0.1,0,0.2,0.1,0.3c0.1,0.1,0.2,0.1,0.3,0.1H18.6z M18.6,16.3
		c0.1,0,0.2,0,0.3-0.1S19,16,19,15.9v-1.3c0-0.1,0-0.2-0.1-0.3s-0.2-0.1-0.3-0.1h-1.3c-0.1,0-0.2,0-0.3,0.1S17,14.5,17,14.6v1.3
		c0,0.1,0,0.2,0.1,0.3s0.2,0.1,0.3,0.1H18.6z M18.6,19.3c0.1,0,0.2,0,0.3-0.1C19,19.1,19,19,19,18.9v-1.3c0-0.1,0-0.2-0.1-0.3
		c-0.1-0.1-0.2-0.1-0.3-0.1h-1.3c-0.1,0-0.2,0-0.3,0.1C17,17.5,17,17.6,17,17.7v1.3c0,0.1,0,0.2,0.1,0.3c0.1,0.1,0.2,0.1,0.3,0.1
		H18.6z"/>
</g>
</svg>
