<?xml version="1.0" encoding="utf-8"?>
<!-- Generator: Adobe Illustrator 20.1.0, SVG Export Plug-In . SVG Version: 6.00 Build 0)  -->
<svg version="1.2" baseProfile="tiny" id="Layer_1" xmlns="http://www.w3.org/2000/svg" xmlns:xlink="http://www.w3.org/1999/xlink"
	 x="0px" y="0px" viewBox="0 0 32 32" xml:space="preserve">
<rect fill="none" width="32" height="32"/>
<g>
	<path fill="#3D8D45" d="M23.4,11.1c0.4,0,0.8,0.2,1.1,0.5c0.3,0.3,0.5,0.7,0.5,1.1V22c0,0.4-0.2,0.8-0.5,1.1
		c-0.3,0.3-0.7,0.5-1.1,0.5H10c-0.4,0-0.8-0.1-1.1-0.5c-0.3-0.3-0.5-0.7-0.5-1.1v-9.3c0-0.4,0.2-0.8,0.5-1.1
		c0.3-0.3,0.7-0.5,1.1-0.5h3.6v-0.5c0-0.4,0.2-0.8,0.5-1.1c0.3-0.3,0.7-0.5,1.1-0.5h3.1c0.4,0,0.8,0.1,1.1,0.5s0.5,0.7,0.5,1.1v0.5
		H23.4z M11.6,22v-9.3h-1.4c0,0-0.1,0-0.1,0.1S10,12.8,10,12.9v8.9c0,0,0,0.1,0.1,0.1s0.1,0.1,0.1,0.1H11.6z M20.3,22v-9.3h-7.2V22
		H20.3z M15.2,10.6v0.5h3.1v-0.5H15.2z M23.2,22c0,0,0.1,0,0.1-0.1s0.1-0.1,0.1-0.1v-8.9c0,0,0-0.1-0.1-0.1s-0.1-0.1-0.1-0.1h-1.4
		V22H23.2z"/>
</g>
</svg>
