<?xml version="1.0" encoding="utf-8"?>
<!-- Generator: Adobe Illustrator 20.1.0, SVG Export Plug-In . SVG Version: 6.00 Build 0)  -->
<svg version="1.2" baseProfile="tiny" id="Layer_1" xmlns="http://www.w3.org/2000/svg" xmlns:xlink="http://www.w3.org/1999/xlink"
	 x="0px" y="0px" viewBox="0 0 32 32" xml:space="preserve">
<rect fill="none" width="32" height="32"/>
<g>
	<path fill="#777DB2" d="M24.9,14.4c0,0.2-0.2,0.3-0.4,0.3h-1c0.4,0.3,0.6,0.6,0.8,1c0.2,0.4,0.3,0.8,0.3,1.3v2.6
		c0,0.5-0.2,1-0.6,1.4v1.8c0,0.2-0.1,0.4-0.3,0.6c-0.2,0.2-0.4,0.3-0.6,0.3H22c-0.2,0-0.4-0.1-0.6-0.3s-0.3-0.4-0.3-0.6v-1.1H10.8
		v1.1c0,0.2-0.1,0.4-0.3,0.6s-0.4,0.3-0.6,0.3H8.8c-0.2,0-0.4-0.1-0.6-0.3S8,23,8,22.7V21c-0.4-0.4-0.6-0.8-0.6-1.4V17
		c0-0.5,0.1-0.9,0.3-1.3c0.2-0.4,0.5-0.7,0.8-1h-1c-0.2,0-0.3-0.1-0.4-0.3l-0.3-0.9c0-0.1,0-0.3,0.1-0.4C7,13,7.1,13,7.3,13h1.6
		l0.3-0.5c0.3-0.8,0.9-1.4,1.6-1.9c0.7-0.5,1.5-0.7,2.4-0.7h5.8c0.9,0,1.6,0.2,2.4,0.7c0.7,0.5,1.2,1.1,1.6,1.9l0.3,0.5h1.6
		c0.1,0,0.3,0.1,0.3,0.2c0.1,0.1,0.1,0.3,0.1,0.4L24.9,14.4z M22.8,16c-0.3-0.3-0.6-0.4-1-0.4H10.3c-0.4,0-0.7,0.1-1,0.4
		s-0.4,0.6-0.4,1v2.6c0,0.2,0.1,0.3,0.2,0.4s0.2,0.2,0.4,0.2h13.2c0.2,0,0.3-0.1,0.4-0.2s0.2-0.2,0.2-0.4V17
		C23.2,16.6,23,16.2,22.8,16z M11.7,19.2c-0.2,0-0.6,0.1-1,0.1h-0.1c-0.3,0-0.6-0.1-0.8-0.3c-0.2-0.2-0.3-0.5-0.3-0.8
		s0.1-0.6,0.3-0.8c0.2-0.2,0.5-0.3,0.8-0.3c0.3,0,0.7,0.2,1.1,0.6c0.4,0.4,0.6,0.8,0.6,1.1C12.3,19,12.1,19.1,11.7,19.2z M21.7,14.1
		l-0.4-1c-0.2-0.5-0.5-0.9-1-1.1c-0.4-0.3-0.9-0.4-1.4-0.4h-5.8c-0.5,0-1,0.1-1.4,0.4c-0.4,0.3-0.8,0.7-1,1.1l-0.4,1H21.7z
		 M13.3,17.6c0,0-0.1,0-0.1,0.1s-0.1,0.1-0.1,0.1v0.4c0,0.2,0.1,0.4,0.3,0.6S13.8,19,14,19h4c0.2,0,0.4-0.1,0.6-0.3s0.3-0.4,0.3-0.6
		v-0.4c0,0,0-0.1-0.1-0.1s-0.1-0.1-0.1-0.1H13.3z M20.4,17.6c-0.4,0.4-0.6,0.8-0.6,1.1c0,0.3,0.2,0.4,0.5,0.5c0.2,0,0.6,0.1,1,0.1
		h0.1c0.3,0,0.6-0.1,0.8-0.3c0.2-0.2,0.3-0.5,0.3-0.8s-0.1-0.6-0.3-0.8C22,17.1,21.8,17,21.5,17S20.8,17.2,20.4,17.6z"/>
</g>
</svg>
