<?xml version="1.0" encoding="utf-8"?>
<!-- Generator: Adobe Illustrator 20.1.0, SVG Export Plug-In . SVG Version: 6.00 Build 0)  -->
<svg version="1.2" baseProfile="tiny" id="Layer_1" xmlns="http://www.w3.org/2000/svg" xmlns:xlink="http://www.w3.org/1999/xlink"
	 x="0px" y="0px" viewBox="0 0 32 32" xml:space="preserve">
<rect fill="none" width="32" height="32"/>
<g>
	<path fill="#BD99C8" d="M26.3,19.5c0.1,0,0.3,0,0.4,0.1c0.1,0.1,0.1,0.2,0.1,0.4v0.5c0,0.1,0,0.3-0.1,0.4S26.4,21,26.3,21h-1.5
		c0,0.8-0.3,1.6-0.9,2.1s-1.3,0.9-2.1,0.9c-0.8,0-1.6-0.3-2.1-0.9s-0.9-1.3-0.9-2.1h-4c0,0.8-0.3,1.6-0.9,2.1s-1.3,0.9-2.1,0.9
		c-0.8,0-1.6-0.3-2.1-0.9S8.6,21.9,8.6,21H8.4c-0.5,0-0.9-0.2-1.2-0.5c-0.3-0.3-0.5-0.8-0.5-1.2V9.7c0-0.5,0.2-0.9,0.5-1.2
		s0.8-0.5,1.2-0.5H18c0.5,0,0.9,0.2,1.2,0.5c0.3,0.3,0.5,0.8,0.5,1.2V11h1.1c0.6,0,1.2,0.2,1.6,0.7l2.6,2.6c0.4,0.4,0.7,1,0.7,1.6
		v3.7H26.3z M18.2,19.5V9.7c0-0.1,0-0.1-0.1-0.2C18.1,9.5,18,9.4,18,9.4H8.4c-0.1,0-0.1,0-0.2,0.1S8.1,9.6,8.1,9.7v9.6
		c0,0.1,0,0.1,0.1,0.2c0.1,0.1,0.1,0.1,0.2,0.1H9c0.3-0.5,0.6-0.8,1.1-1.1c0.5-0.3,1-0.4,1.5-0.4c0.5,0,1.1,0.1,1.5,0.4
		c0.5,0.3,0.8,0.6,1.1,1.1H18.2z M11.7,22.6c0.4,0,0.8-0.1,1.1-0.4c0.3-0.3,0.4-0.7,0.4-1.1c0-0.4-0.1-0.8-0.4-1.1
		c-0.3-0.3-0.7-0.4-1.1-0.4c-0.4,0-0.8,0.1-1.1,0.4c-0.3,0.3-0.4,0.7-0.4,1.1c0,0.4,0.1,0.8,0.4,1.1C10.9,22.4,11.2,22.6,11.7,22.6z
		 M19.7,12.5V15h4l-2.3-2.3c-0.1-0.1-0.3-0.2-0.5-0.2H19.7z M24.3,19.4v-2.9h-4.5v2.3c0.6-0.5,1.3-0.8,2-0.8c0.5,0,1,0.1,1.5,0.4
		C23.6,18.6,24,19,24.3,19.4z M21.8,22.6c0.4,0,0.8-0.1,1.1-0.4c0.3-0.3,0.4-0.7,0.4-1.1c0-0.4-0.1-0.8-0.4-1.1
		c-0.3-0.3-0.7-0.4-1.1-0.4c-0.4,0-0.8,0.1-1.1,0.4c-0.3,0.3-0.4,0.7-0.4,1.1c0,0.4,0.1,0.8,0.4,1.1C21,22.4,21.3,22.6,21.8,22.6z"
		/>
</g>
</svg>
