<?xml version="1.0" encoding="utf-8"?>
<!-- Generator: Adobe Illustrator 20.1.0, SVG Export Plug-In . SVG Version: 6.00 Build 0)  -->
<svg version="1.2" baseProfile="tiny" id="Layer_1" xmlns="http://www.w3.org/2000/svg" xmlns:xlink="http://www.w3.org/1999/xlink"
	 x="0px" y="0px" viewBox="0 0 32 32" xml:space="preserve">
<rect fill="none" width="32" height="32"/>
<g>
	<path fill="#8BA99E" d="M22.6,14.5c0,0.9-0.2,1.8-0.5,2.6s-0.9,1.5-1.5,2.1V21c0,0.5-0.2,0.9-0.5,1.2c-0.3,0.3-0.8,0.5-1.2,0.5
		h-0.5c-0.1,0-0.1,0-0.2,0.1C18,22.9,18,23,18,23.1v0.6c0,0.1,0,0.2-0.1,0.3c-0.1,0.1-0.2,0.1-0.3,0.1h-0.8c-0.1,0-0.2,0-0.3-0.1
		c-0.1-0.1-0.1-0.2-0.1-0.3v-0.6c0-0.5,0.2-0.9,0.5-1.2c0.3-0.3,0.8-0.5,1.2-0.5h0.2c0.2,0,0.4,0,0.4,0c0.1,0,0.1-0.1,0.1-0.2v-1H13
		v1c0,0.1,0,0.2,0.1,0.2c0.1,0,0.2,0,0.4,0h0.2c0.5,0,0.9,0.2,1.2,0.5s0.5,0.8,0.5,1.2v0.6c0,0.1,0,0.2-0.1,0.3s-0.2,0.1-0.3,0.1
		h-0.8c-0.1,0-0.2,0-0.3-0.1C14,23.9,14,23.8,14,23.7v-0.6c0-0.1,0-0.1-0.1-0.2s-0.1-0.1-0.2-0.1h-0.5c-0.5,0-0.9-0.2-1.2-0.5
		s-0.5-0.8-0.5-1.2v-1.8c-0.7-0.6-1.2-1.4-1.5-2.2c-0.4-0.8-0.5-1.7-0.5-2.7c0-1.2,0.3-2.3,0.9-3.2s1.4-1.8,2.4-2.3
		c1-0.6,2.1-0.8,3.3-0.8c1.2,0,2.3,0.3,3.2,0.9c1,0.6,1.8,1.4,2.3,2.4S22.6,13.3,22.6,14.5z M16,9.4c-0.9,0-1.7,0.2-2.5,0.7
		s-1.4,1.1-1.8,1.8S11,13.6,11,14.5c0,0.8,0.2,1.6,0.6,2.3c0.4,0.7,0.9,1.3,1.5,1.8h6c0.6-0.5,1.1-1,1.5-1.8
		c0.4-0.7,0.6-1.5,0.6-2.3c0-0.9-0.2-1.7-0.7-2.5s-1.1-1.4-1.8-1.8C17.7,9.7,16.9,9.4,16,9.4z M17.5,14c0-0.2-0.1-0.4-0.2-0.6
		S17,13.1,16.8,13c0.1,0.3,0.1,0.5,0,0.8c-0.1,0.2-0.3,0.4-0.5,0.5c-0.2,0.1-0.5,0.1-0.8,0c0.1,0.2,0.2,0.4,0.4,0.5
		c0.2,0.1,0.4,0.2,0.6,0.2c0.3,0,0.5-0.1,0.7-0.3C17.4,14.5,17.5,14.2,17.5,14z M18,16.5c0-0.2-0.1-0.4-0.2-0.6
		c-0.1-0.2-0.3-0.3-0.5-0.4c0.1,0.3,0.1,0.5,0,0.8c-0.1,0.2-0.3,0.4-0.5,0.5c-0.2,0.1-0.5,0.1-0.8,0c0.1,0.2,0.2,0.4,0.4,0.5
		c0.2,0.1,0.4,0.2,0.6,0.2c0.3,0,0.5-0.1,0.7-0.3C17.9,17,18,16.8,18,16.5z M20,14.5c0-0.2-0.1-0.4-0.2-0.6s-0.3-0.3-0.5-0.4
		c0.1,0.3,0.1,0.5,0,0.8c-0.1,0.2-0.3,0.4-0.5,0.5c-0.2,0.1-0.5,0.1-0.8,0c0.1,0.2,0.2,0.4,0.4,0.5c0.2,0.1,0.4,0.2,0.6,0.2
		c0.3,0,0.5-0.1,0.7-0.3C19.9,15,20,14.7,20,14.5z"/>
</g>
</svg>
