<?xml version="1.0" encoding="utf-8"?>
<!-- Generator: Adobe Illustrator 20.1.0, SVG Export Plug-In . SVG Version: 6.00 Build 0)  -->
<svg version="1.2" baseProfile="tiny" id="Layer_1" xmlns="http://www.w3.org/2000/svg" xmlns:xlink="http://www.w3.org/1999/xlink"
	 x="0px" y="0px" viewBox="0 0 32 32" xml:space="preserve">
<rect fill="none" width="32" height="32"/>
<g>
	<path fill="#1B8D70" d="M22.8,17.8c-0.9,0.5-1.8,0.8-2.8,0.8c-0.4,0-0.7,0-1.1-0.1L13,24.3c-0.6,0.6-1.3,0.9-2.2,0.9
		c-0.8,0-1.6-0.3-2.2-0.9S7.8,23,7.8,22.2c0-0.8,0.3-1.6,0.9-2.1l5.9-5.9c-0.1-0.4-0.1-0.7-0.1-1.1c0-1,0.3-1.9,0.8-2.8
		c0.5-0.9,1.2-1.5,2-2c0.9-0.5,1.8-0.8,2.8-0.8s1.9,0.3,2.8,0.8c0.9,0.5,1.5,1.2,2.1,2c0.2,0.4,0.3,0.8,0.2,1.1
		c-0.1,0.4-0.3,0.7-0.6,1s-0.7,0.4-1.1,0.4h-3.2L20,13l0.2,0.3h3.2c0.4,0,0.8,0.1,1.1,0.4s0.5,0.6,0.6,1c0.1,0.4,0,0.8-0.2,1.1
		C24.4,16.6,23.7,17.3,22.8,17.8z M15.2,15.8l-5.4,5.4c-0.3,0.3-0.4,0.6-0.4,1s0.1,0.7,0.4,1s0.6,0.4,1,0.4s0.7-0.1,1-0.4l5.4-5.4
		C16.4,17.3,15.7,16.6,15.2,15.8z M12.3,21.9c-0.2,0.2-0.4,0.2-0.6,0.2s-0.4-0.1-0.6-0.2s-0.2-0.4-0.2-0.6s0.1-0.4,0.2-0.6
		c0.2-0.2,0.4-0.2,0.6-0.2s0.4,0.1,0.6,0.2c0.2,0.2,0.2,0.4,0.2,0.6S12.4,21.8,12.3,21.9z M19.2,14.9l-1.1-2l1.1-2h4.2
		c-0.3-0.6-0.8-1.1-1.4-1.4c-0.6-0.3-1.2-0.5-2-0.5s-1.4,0.2-2,0.5c-0.6,0.3-1.1,0.8-1.4,1.4c-0.3,0.6-0.5,1.3-0.5,2
		c0,0.7,0.2,1.3,0.5,2c0.3,0.6,0.8,1.1,1.4,1.4c0.6,0.3,1.3,0.5,2,0.5s1.4-0.2,2-0.5c0.6-0.3,1.1-0.8,1.4-1.4H19.2z"/>
</g>
</svg>
