<?xml version="1.0" encoding="utf-8"?>
<!-- Generator: Adobe Illustrator 20.1.0, SVG Export Plug-In . SVG Version: 6.00 Build 0)  -->
<svg version="1.2" baseProfile="tiny" id="Layer_1" xmlns="http://www.w3.org/2000/svg" xmlns:xlink="http://www.w3.org/1999/xlink"
	 x="0px" y="0px" viewBox="0 0 32 32" xml:space="preserve">
<rect fill="none" width="32" height="32"/>
<g>
	<path fill="#8878CC" d="M10.4,23.8c-0.2,0-0.3-0.1-0.5-0.3c-0.1-0.2-0.2-0.3-0.2-0.5v-1.1c-0.3-0.2-0.7-0.3-0.9-0.6l-0.9,0.5
		C7.7,22,7.6,22,7.4,22c-0.2,0-0.4-0.1-0.5-0.3c-0.6-0.6-1-1.2-1.3-1.7c-0.2-0.4-0.4-1-0.7-1.7c0-0.2,0-0.4,0-0.6
		c0.1-0.2,0.2-0.3,0.3-0.4l0.9-0.5c0-0.3,0-0.7,0-1.1l-0.9-0.5c-0.2-0.1-0.3-0.2-0.4-0.4c-0.1-0.2-0.1-0.4,0-0.6
		c0.3-0.8,0.5-1.4,0.7-1.8c0.3-0.5,0.7-1,1.3-1.7c0.1-0.1,0.3-0.2,0.5-0.2c0.2,0,0.4,0,0.5,0.1l0.9,0.5c0.3-0.2,0.6-0.4,0.9-0.5V9.5
		C9.8,9.3,9.8,9.1,10,9s0.3-0.3,0.5-0.3c0.8-0.2,1.4-0.3,2-0.3c0.6,0,1.2,0.1,2,0.3c0.2,0,0.3,0.1,0.5,0.3s0.2,0.3,0.2,0.5v1.1
		c0.3,0.1,0.6,0.3,0.9,0.5l0.9-0.5c0.2-0.1,0.3-0.1,0.5-0.1c0.2,0,0.4,0.1,0.5,0.2c0.5,0.6,0.9,1.1,1.2,1.6c0.4,0.6,0.6,1.3,0.8,2
		c0,0.2,0,0.3-0.1,0.5c-0.1,0.2-0.2,0.3-0.3,0.4l-0.9,0.6c0,0.4,0,0.7,0,1.1l0.9,0.6c0.1,0.1,0.2,0.2,0.3,0.4
		c0.1,0.2,0.1,0.3,0.1,0.5c-0.1,0.7-0.4,1.3-0.8,1.9c-0.3,0.5-0.7,1-1.2,1.6c-0.1,0.1-0.3,0.2-0.5,0.3c-0.2,0-0.4,0-0.5-0.1L16,21.3
		c-0.3,0.2-0.6,0.4-0.9,0.6V23c0,0.2-0.1,0.4-0.2,0.5c-0.1,0.2-0.3,0.3-0.5,0.3c-0.7,0.2-1.4,0.2-2,0.2S11.1,24,10.4,23.8z
		 M13.4,22.3v-1.5l0.6-0.2c0.5-0.2,1-0.5,1.4-0.8l0.5-0.4l1.4,0.8c0.4-0.5,0.7-1,0.9-1.6l-1.4-0.8l0.1-0.6c0.1-0.6,0.1-1.1,0-1.7
		l-0.1-0.6l1.4-0.8c-0.2-0.6-0.5-1.2-0.9-1.7l-1.4,0.8l-0.5-0.4c-0.4-0.4-0.9-0.7-1.4-0.8l-0.6-0.2v-1.6c-0.7-0.1-1.3-0.1-2,0v1.6
		l-0.5,0.2c-0.6,0.2-1,0.5-1.5,0.8L9,13.1l-1.3-0.8c-0.4,0.5-0.7,1.1-1,1.7L8,14.8l-0.1,0.6c-0.1,0.6-0.1,1.1,0,1.7L8,17.6l-1.4,0.8
		c0.2,0.6,0.5,1.2,0.9,1.6L9,19.3l0.5,0.4c0.4,0.4,0.9,0.7,1.5,0.8l0.6,0.2v1.5C12.1,22.4,12.7,22.4,13.4,22.3z M10.2,18.4
		c-0.6-0.6-0.9-1.3-0.9-2.2c0-0.8,0.3-1.6,0.9-2.2c0.6-0.6,1.3-0.9,2.2-0.9c0.8,0,1.6,0.3,2.2,0.9c0.6,0.6,0.9,1.3,0.9,2.2
		c0,0.9-0.3,1.6-0.9,2.2c-0.6,0.6-1.3,0.9-2.2,0.9C11.5,19.3,10.8,19,10.2,18.4z M11.4,15.2c-0.3,0.3-0.4,0.6-0.4,1s0.1,0.7,0.4,1
		s0.6,0.4,1,0.4c0.4,0,0.7-0.1,1-0.4s0.4-0.6,0.4-1s-0.1-0.7-0.4-1s-0.6-0.4-1-0.4C12,14.8,11.7,15,11.4,15.2z M27,10.1
		C26.9,10,26.8,10,26.7,10h-0.6C26,9.6,25.8,9.3,25.6,9l0.3-0.5c0-0.1,0.1-0.2,0.1-0.3c0-0.1-0.1-0.2-0.2-0.2
		c-0.3-0.3-0.7-0.5-1.1-0.6c-0.1,0-0.2-0.1-0.3,0s-0.2,0.1-0.2,0.2l-0.3,0.5c-0.3-0.1-0.7-0.1-1.1,0l-0.3-0.5c0-0.1-0.1-0.2-0.2-0.2
		s-0.2,0-0.3,0c-0.4,0.1-0.8,0.3-1.1,0.6c-0.1,0.1-0.1,0.2-0.1,0.2c0,0.1,0,0.2,0.1,0.3L21.1,9c-0.3,0.3-0.4,0.6-0.6,0.9H20
		c-0.1,0-0.2,0-0.3,0.1c-0.1,0.1-0.1,0.2-0.2,0.2c-0.1,0.4-0.1,0.8,0,1.3c0,0.1,0.1,0.2,0.2,0.3c0.1,0.1,0.2,0.1,0.3,0.1h0.6
		c0.1,0.3,0.3,0.7,0.6,0.9l-0.3,0.5c-0.1,0.1-0.1,0.2-0.1,0.3c0,0.1,0.1,0.2,0.1,0.2c0.3,0.3,0.7,0.5,1.1,0.7c0.1,0,0.2,0,0.3,0
		c0.1,0,0.2-0.1,0.2-0.2l0.3-0.5c0.4,0.1,0.7,0.1,1.1,0l0.3,0.5c0.1,0.1,0.2,0.2,0.2,0.2c0.1,0,0.2,0,0.3,0c0.4-0.2,0.8-0.4,1.1-0.7
		c0.1,0,0.1-0.1,0.2-0.2c0-0.1,0-0.2-0.1-0.3l-0.3-0.5c0.2-0.3,0.4-0.6,0.6-0.9h0.6c0.1,0,0.2,0,0.3-0.1c0.1-0.1,0.1-0.1,0.2-0.3
		c0-0.4,0-0.8,0-1.3h0C27.1,10.2,27.1,10.2,27,10.1z M27,20.8c-0.1-0.1-0.2-0.1-0.3-0.1h-0.6c-0.1-0.3-0.3-0.7-0.6-0.9l0.3-0.5
		c0-0.1,0.1-0.2,0.1-0.3c0-0.1-0.1-0.2-0.2-0.2c-0.3-0.3-0.7-0.5-1.1-0.7c-0.1,0-0.2,0-0.3,0s-0.2,0.1-0.2,0.2l-0.3,0.5
		c-0.3-0.1-0.7-0.1-1.1,0l-0.3-0.5c0-0.1-0.1-0.2-0.2-0.2s-0.2,0-0.3,0c-0.4,0.2-0.8,0.4-1.1,0.7c-0.1,0-0.1,0.1-0.1,0.2
		c0,0.1,0,0.2,0.1,0.3l0.3,0.5c-0.3,0.3-0.4,0.6-0.6,0.9H20c-0.1,0-0.2,0-0.3,0.1c-0.1,0.1-0.1,0.1-0.1,0.3c-0.1,0.4-0.1,0.8,0,1.3
		c0,0.1,0.1,0.2,0.1,0.2c0.1,0.1,0.2,0.1,0.3,0.1h0.6c0.1,0.3,0.3,0.7,0.5,0.9l-0.2,0.5c-0.1,0.1-0.1,0.2-0.1,0.3
		c0,0.1,0.1,0.2,0.1,0.2c0.3,0.3,0.7,0.5,1.1,0.6c0.1,0,0.2,0.1,0.3,0c0.1,0,0.2-0.1,0.2-0.2l0.3-0.5c0.4,0.1,0.7,0.1,1.1,0l0.3,0.5
		c0,0.1,0.1,0.2,0.2,0.2c0.1,0,0.2,0,0.3,0c0.4-0.1,0.8-0.3,1.1-0.6c0.1-0.1,0.1-0.2,0.2-0.2c0-0.1,0-0.2-0.1-0.3l-0.3-0.5
		c0.2-0.3,0.4-0.6,0.6-0.9h0.6c0.1,0,0.2,0,0.3-0.1c0.1-0.1,0.1-0.2,0.2-0.2c0.1-0.4,0.1-0.9,0-1.3C27.1,20.9,27.1,20.8,27,20.8z
		 M22.6,11.8c-0.2-0.2-0.3-0.5-0.3-0.8s0.1-0.6,0.3-0.8s0.5-0.3,0.8-0.3s0.6,0.1,0.8,0.3s0.3,0.5,0.3,0.8s-0.1,0.6-0.3,0.8
		s-0.5,0.3-0.8,0.3C23,12.1,22.8,12,22.6,11.8z M22.6,22.4c-0.2-0.2-0.3-0.5-0.3-0.8c0-0.3,0.1-0.6,0.3-0.8c0.2-0.2,0.5-0.3,0.8-0.3
		s0.6,0.1,0.8,0.3c0.2,0.2,0.3,0.5,0.3,0.8c0,0.3-0.1,0.6-0.3,0.8c-0.2,0.2-0.5,0.3-0.8,0.3C23,22.8,22.8,22.7,22.6,22.4z"/>
</g>
</svg>
