<?xml version="1.0" encoding="utf-8"?>
<!-- Generator: Adobe Illustrator 20.1.0, SVG Export Plug-In . SVG Version: 6.00 Build 0)  -->
<svg version="1.2" baseProfile="tiny" id="Layer_1" xmlns="http://www.w3.org/2000/svg" xmlns:xlink="http://www.w3.org/1999/xlink"
	 x="0px" y="0px" viewBox="0 0 32 32" xml:space="preserve">
<rect fill="none" width="32" height="32"/>
<g>
	<path fill="#C44D91" d="M26,12.7c0.2,0,0.4,0.1,0.5,0.2c0.1,0.1,0.2,0.3,0.2,0.5v7.5c0,0.2-0.1,0.4-0.2,0.5
		c-0.1,0.1-0.3,0.2-0.5,0.2h-1.5c-0.2,0-0.3,0-0.4-0.1c-0.1-0.1-0.2-0.2-0.3-0.4h-1.3c-0.4,0.6-1,1-1.7,1.1
		c-0.4,0.5-0.9,0.9-1.6,1.1c-0.3,0.3-0.6,0.6-1,0.7c-0.4,0.2-0.8,0.3-1.2,0.3c-0.4,0.2-0.9,0.3-1.5,0.3c-0.5,0-1.1-0.1-1.6-0.4
		c-0.5-0.3-1-0.6-1.4-1l-2.4-2.1H9.7c-0.1,0.1-0.2,0.3-0.3,0.4c-0.1,0.1-0.3,0.1-0.4,0.1H7.4c-0.2,0-0.4-0.1-0.5-0.2
		c-0.1-0.1-0.2-0.3-0.2-0.5v-7.5c0-0.2,0.1-0.4,0.2-0.5c0.1-0.1,0.3-0.2,0.5-0.2h1.5c0.2,0,0.4,0.1,0.6,0.3h0.8l1.2-1.2
		c0.3-0.3,0.7-0.6,1.2-0.8s0.9-0.3,1.3-0.3h1c0.6,0,1.1,0.1,1.7,0.4c0.5-0.3,1-0.4,1.5-0.4h1.5c0.5,0,0.9,0.1,1.3,0.3
		s0.8,0.5,1.1,0.8l1,1.1h0.7c0.1-0.2,0.3-0.3,0.6-0.3H26z M8.2,20.7c0.1,0,0.3,0,0.4-0.1c0.1-0.1,0.1-0.2,0.1-0.4
		c0-0.1,0-0.3-0.1-0.4c-0.1-0.1-0.2-0.1-0.4-0.1c-0.1,0-0.3,0-0.4,0.1c-0.1,0.1-0.1,0.2-0.1,0.4c0,0.1,0,0.3,0.1,0.4
		S8,20.7,8.2,20.7z M21.1,20.5c0.2-0.2,0.3-0.4,0.3-0.8c0-0.3-0.1-0.6-0.3-0.8l-2.3-3l-0.8,0.9c-0.3,0.4-0.7,0.7-1.2,0.8
		c-0.5,0.1-1,0.1-1.4,0s-0.9-0.4-1.2-0.8c-0.4-0.4-0.6-0.9-0.5-1.5c0-0.6,0.2-1.1,0.5-1.5l1.4-1.6c-0.2,0-0.4-0.1-0.5-0.1h-1
		c-0.6,0-1,0.2-1.4,0.6l-1.4,1.4c-0.2,0.2-0.4,0.3-0.7,0.3H9.7v5.3h0.8c0.3,0,0.5,0.1,0.7,0.3l2.5,2.3c0.3,0.3,0.6,0.5,0.9,0.7
		c0.4,0.2,0.7,0.3,1.1,0.3c0.5,0,0.8-0.1,1.1-0.4c0.4,0.1,0.7,0.1,1-0.1c0.3-0.2,0.5-0.4,0.6-0.7c0.3,0,0.6,0,0.8-0.2
		s0.4-0.3,0.5-0.5s0.2-0.4,0.2-0.5c0.1,0.1,0.2,0.1,0.5,0.1C20.6,20.8,20.9,20.7,21.1,20.5z M23.7,19.7v-5.3h-1.2l-1.4-1.7
		c-0.4-0.4-0.8-0.6-1.3-0.6h-1.5c-0.4,0-0.8,0.2-1.1,0.5l-1.8,2.1c-0.1,0.1-0.2,0.3-0.2,0.5s0.1,0.4,0.2,0.5
		c0.2,0.3,0.5,0.4,0.8,0.4c0.3,0,0.6-0.1,0.8-0.4l1.7-1.9c0.1-0.1,0.3-0.2,0.5-0.3s0.4,0,0.5,0.2c0.1,0.1,0.2,0.3,0.3,0.4
		c0,0.2,0,0.3,0,0.5l2.4,3.3c0.4,0.5,0.6,1,0.6,1.7H23.7z M25.2,20.7c0.1,0,0.3,0,0.4-0.1s0.1-0.2,0.1-0.4c0-0.1,0-0.3-0.1-0.4
		c-0.1-0.1-0.2-0.1-0.4-0.1s-0.3,0-0.4,0.1c-0.1,0.1-0.1,0.2-0.1,0.4c0,0.1,0,0.3,0.1,0.4C25,20.6,25.1,20.7,25.2,20.7z"/>
</g>
</svg>
