<?xml version="1.0" encoding="utf-8"?>
<!-- Generator: Adobe Illustrator 20.1.0, SVG Export Plug-In . SVG Version: 6.00 Build 0)  -->
<svg version="1.2" baseProfile="tiny" id="Layer_1" xmlns="http://www.w3.org/2000/svg" xmlns:xlink="http://www.w3.org/1999/xlink"
	 x="0px" y="0px" viewBox="0 0 32 32" xml:space="preserve">
<rect fill="none" width="32" height="32"/>
<g>
	<path fill="#C26640" d="M21.4,8c0.9-0.1,1.7,0.4,2.3,1.4c0.5,0.8,0.9,1.9,1,3.1c0.2,2-0.1,3.9-1.1,5.6c-0.8,1.5-2,2.7-3.5,3.6
		c-1.4,0.9-2.8,1.4-4.2,1.6c-1.1,0.1-2.4,0-3.6-0.3c-0.5,1-1.1,1.5-1.9,1.6c-0.7,0.1-1.4-0.1-1.9-0.6s-0.9-1.1-0.9-1.7
		c-0.1-0.5,0-1,0.3-1.5C8,20.4,8.3,20,8.7,19.6c-0.1-0.4-0.2-0.7-0.2-1.1c-0.2-1.6,0.2-3.2,1.1-4.6c0.9-1.3,2.1-2.3,3.6-3
		c0.4-0.2,0.9-0.3,1.6-0.5c0.4-0.1,1-0.2,1.9-0.3c0.8-0.1,1.3-0.2,1.6-0.3c0.5-0.1,0.8-0.2,0.9-0.3l0.2-0.2c0.3-0.3,0.5-0.6,0.7-0.8
		C20.5,8.3,20.9,8.1,21.4,8z M21.6,9.7c-0.3,0-0.5,0.1-0.7,0.2c-0.1,0.1-0.2,0.2-0.4,0.5l-0.2,0.3c-0.3,0.3-0.8,0.6-1.5,0.8
		c-0.4,0.1-1.1,0.2-2.1,0.4C16,11.9,15.4,12,15.1,12c-0.5,0.1-1,0.2-1.3,0.4c-1.2,0.6-2.2,1.4-2.9,2.3c-0.8,1.1-1.1,2.3-1,3.5
		c0,0.3,0.1,0.6,0.2,0.8c0.1,0.2,0.1,0.3,0.2,0.5l0.1,0.2c0,0.1,0,0.2-0.1,0.4c-0.1,0.1-0.2,0.3-0.4,0.5c-0.3,0.3-0.5,0.5-0.6,0.7
		c-0.2,0.3-0.3,0.5-0.3,0.7c0,0.2,0.1,0.4,0.3,0.6c0.2,0.2,0.5,0.3,0.8,0.3c0.2,0,0.4-0.2,0.6-0.4c0.1-0.1,0.2-0.4,0.4-0.8
		c0.1-0.2,0.2-0.4,0.3-0.5c0.1-0.1,0.2-0.2,0.3-0.2l0.6,0.2c0.5,0.1,1,0.3,1.5,0.3c0.7,0.1,1.4,0.1,2,0.1c1.2-0.1,2.4-0.6,3.6-1.3
		c1.3-0.8,2.3-1.9,3-3.1c0.8-1.4,1.1-2.9,0.9-4.6c-0.1-0.6-0.2-1.2-0.5-1.8C22.4,10,22,9.6,21.6,9.7z M12.8,19.3
		c-0.1,0.2-0.3,0.3-0.5,0.4c-0.2,0.1-0.4,0-0.6-0.1c-0.2-0.1-0.3-0.3-0.3-0.5c0-0.2,0-0.4,0.1-0.6c0.8-1.5,1.8-2.6,3-3.3
		c1.2-0.8,2.6-1.2,4.4-1.2c0.2,0,0.4,0.1,0.5,0.2c0.2,0.2,0.2,0.3,0.3,0.6c0,0.2-0.1,0.4-0.2,0.6c-0.2,0.2-0.3,0.2-0.5,0.2
		c-1.4,0.1-2.6,0.4-3.6,1C14.2,17.1,13.4,18.1,12.8,19.3z"/>
</g>
</svg>
