<?xml version="1.0" encoding="utf-8"?>
<!-- Generator: Adobe Illustrator 20.1.0, SVG Export Plug-In . SVG Version: 6.00 Build 0)  -->
<svg version="1.2" baseProfile="tiny" id="Layer_1" xmlns="http://www.w3.org/2000/svg" xmlns:xlink="http://www.w3.org/1999/xlink"
	 x="0px" y="0px" viewBox="0 0 32 32" xml:space="preserve">
<rect fill="none" width="32" height="32"/>
<g>
	<path fill="#437BCC" d="M18.9,7.4c1.2,0,2.3,0.3,3.4,0.9s1.8,1.4,2.4,2.4c0.6,1,0.9,2.1,0.9,3.4s-0.3,2.3-0.9,3.4
		c-0.6,1-1.4,1.8-2.4,2.4c-1,0.6-2.1,0.9-3.4,0.9c-0.5,0-0.9,0-1.4-0.1L16.1,22v0.7c0,0.2-0.1,0.4-0.2,0.6c-0.2,0.2-0.4,0.2-0.6,0.2
		h-0.8v0.8c0,0.2-0.1,0.4-0.2,0.6c-0.2,0.2-0.4,0.2-0.6,0.2h-5c-0.2,0-0.4-0.1-0.6-0.2c-0.2-0.2-0.2-0.4-0.2-0.6v-4.5
		c0-0.2,0.1-0.4,0.2-0.6l4.3-4.3c0-0.3-0.1-0.6-0.1-0.9c0-1.2,0.3-2.3,0.9-3.4s1.4-1.8,2.4-2.4S17.7,7.4,18.9,7.4z M18.9,9
		c-0.9,0-1.7,0.2-2.5,0.7c-0.8,0.5-1.4,1.1-1.8,1.8c-0.5,0.8-0.7,1.6-0.7,2.5c0,0.5,0.1,1,0.2,1.5l-4.7,4.7v3.3h3.4v-1.7h1.7v-1.7
		h1.1l1.5-1.5c0.6,0.2,1.2,0.3,1.9,0.3c0.9,0,1.7-0.2,2.5-0.7c0.8-0.5,1.4-1.1,1.8-1.8c0.5-0.8,0.7-1.6,0.7-2.5s-0.2-1.7-0.7-2.5
		c-0.5-0.8-1.1-1.4-1.8-1.8S19.8,9,18.9,9z M18.9,12.4c0-0.5,0.2-0.9,0.5-1.2c0.3-0.3,0.7-0.5,1.2-0.5c0.5,0,0.9,0.2,1.2,0.5
		c0.3,0.3,0.5,0.7,0.5,1.2c0,0.5-0.2,0.9-0.5,1.2c-0.3,0.3-0.7,0.5-1.2,0.5c-0.5,0-0.9-0.2-1.2-0.5C19.1,13.3,18.9,12.9,18.9,12.4z"
		/>
</g>
</svg>
