<?xml version="1.0" encoding="utf-8"?>
<!-- Generator: Adobe Illustrator 20.1.0, SVG Export Plug-In . SVG Version: 6.00 Build 0)  -->
<svg version="1.2" baseProfile="tiny" id="Layer_1" xmlns="http://www.w3.org/2000/svg" xmlns:xlink="http://www.w3.org/1999/xlink"
	 x="0px" y="0px" viewBox="0 0 32 32" xml:space="preserve">
<rect fill="none" width="32" height="32"/>
<g>
	<path fill="#FF5983" d="M22.5,9.3c0.4,0,0.8,0.1,1.1,0.4c0.3,0.3,0.4,0.7,0.4,1.1v8c0,0.4-0.1,0.8-0.4,1.1
		c-0.3,0.3-0.7,0.4-1.1,0.4h-5.7v1.5h4.5c0.2,0,0.4,0.1,0.5,0.2s0.2,0.3,0.2,0.5S22,23,21.8,23.1s-0.3,0.2-0.5,0.2H10.7
		c-0.2,0-0.4-0.1-0.5-0.2s-0.2-0.3-0.2-0.5s0.1-0.4,0.2-0.5s0.3-0.2,0.5-0.2h4.5v-1.5H9.5c-0.4,0-0.8-0.1-1.1-0.4
		C8.2,19.6,8,19.2,8,18.8v-8c0-0.4,0.1-0.8,0.4-1.1c0.3-0.3,0.7-0.4,1.1-0.4H22.5z M22.3,18.8c0,0,0.1,0,0.1-0.1s0.1-0.1,0.1-0.1V11
		c0,0,0-0.1-0.1-0.1s-0.1-0.1-0.1-0.1H9.7c0,0-0.1,0-0.1,0.1S9.5,11,9.5,11v7.6c0,0,0,0.1,0.1,0.1s0.1,0.1,0.1,0.1H22.3z"/>
</g>
</svg>
