<?xml version="1.0" encoding="utf-8"?>
<!-- Generator: Adobe Illustrator 20.1.0, SVG Export Plug-In . SVG Version: 6.00 Build 0)  -->
<svg version="1.2" baseProfile="tiny" id="Layer_1" xmlns="http://www.w3.org/2000/svg" xmlns:xlink="http://www.w3.org/1999/xlink"
	 x="0px" y="0px" viewBox="0 0 32 32" xml:space="preserve">
<rect fill="none" width="32" height="32"/>
<g>
	<path fill="#0096AD" d="M10.1,13.2c-0.1,0.1-0.1,0.1-0.3,0.1c-0.1,0-0.2,0-0.3-0.1l-1.5-1.6c-0.1-0.1-0.1-0.2-0.1-0.3S8,11.1,8,11
		l0.4-0.4c0.1-0.1,0.1-0.1,0.3-0.1s0.2,0,0.3,0.1l0.9,0.9l2.2-2.2c0.1-0.1,0.1-0.1,0.3-0.1s0.2,0,0.3,0.1L13,9.7
		c0.1,0.1,0.1,0.1,0.1,0.3c0,0.1,0,0.2-0.1,0.3L10.1,13.2z M10.1,18.2c-0.1,0.1-0.1,0.1-0.3,0.1c-0.1,0-0.2,0-0.3-0.1l-1.5-1.6
		c-0.1-0.1-0.1-0.2-0.1-0.3c0-0.1,0-0.2,0.1-0.3l0.4-0.4c0.1-0.1,0.1-0.1,0.3-0.1s0.2,0,0.3,0.1l0.9,0.9l2.2-2.2
		c0.1-0.1,0.1-0.1,0.3-0.1s0.2,0,0.3,0.1l0.4,0.4c0.1,0.1,0.1,0.1,0.1,0.3s0,0.2-0.1,0.3L10.1,18.2z M8.9,20.8
		c-0.3,0.3-0.4,0.7-0.4,1.1c0,0.4,0.1,0.8,0.4,1.1c0.3,0.3,0.7,0.4,1.1,0.4s0.8-0.1,1.1-0.4c0.3-0.3,0.4-0.7,0.4-1.1
		c0-0.4-0.1-0.8-0.4-1.1c-0.3-0.3-0.7-0.4-1.1-0.4S9.2,20.5,8.9,20.8z M24.1,11.2c0-0.1,0-0.2-0.1-0.3s-0.2-0.1-0.3-0.1h-9.3
		c-0.1,0-0.2,0-0.3,0.1S14,11.1,14,11.2v1c0,0.1,0,0.2,0.1,0.3c0.1,0.1,0.2,0.1,0.3,0.1h9.3c0.1,0,0.2,0,0.3-0.1
		c0.1-0.1,0.1-0.2,0.1-0.3V11.2z M24.1,16.3c0-0.1,0-0.2-0.1-0.3c-0.1-0.1-0.2-0.1-0.3-0.1h-9.3c-0.1,0-0.2,0-0.3,0.1
		C14,16.1,14,16.2,14,16.3v1c0,0.1,0,0.2,0.1,0.3s0.2,0.1,0.3,0.1h9.3c0.1,0,0.2,0,0.3-0.1s0.1-0.2,0.1-0.3V16.3z M24.1,21.3
		c0-0.1,0-0.2-0.1-0.3s-0.2-0.1-0.3-0.1h-9.3c-0.1,0-0.2,0-0.3,0.1S14,21.2,14,21.3v1c0,0.1,0,0.2,0.1,0.3c0.1,0.1,0.2,0.1,0.3,0.1
		h9.3c0.1,0,0.2,0,0.3-0.1c0.1-0.1,0.1-0.2,0.1-0.3V21.3z"/>
</g>
</svg>
