<?xml version="1.0" encoding="utf-8"?>
<!-- Generator: Adobe Illustrator 20.1.0, SVG Export Plug-In . SVG Version: 6.00 Build 0)  -->
<svg version="1.2" baseProfile="tiny" id="Layer_1" xmlns="http://www.w3.org/2000/svg" xmlns:xlink="http://www.w3.org/1999/xlink"
	 x="0px" y="0px" viewBox="0 0 32 32" xml:space="preserve">
<rect fill="none" width="32" height="32"/>
<g>
	<path fill="#BA7056" d="M21.3,13.5c0.6,0,1.1,0.2,1.4,0.6c0.4,0.4,0.5,0.9,0.5,1.5c0,0.5-0.1,0.9-0.4,1.4c-0.2,0.5-0.6,0.9-0.9,1.2
		c-0.4,0.3-0.9,0.5-1.4,0.6c0.5,0.7,0.7,1.4,0.7,2c0,0.6-0.2,1.1-0.7,1.4c-0.4,0.3-0.9,0.4-1.6,0.4c-0.3,0-0.6,0-0.9-0.1
		c-0.2-0.1-0.5-0.1-0.8-0.3C16.6,22.1,16.2,22,16,22s-0.7,0.1-1.3,0.3l-0.8,0.3c-0.3,0.1-0.7,0.1-1,0.1c-0.7,0-1.2-0.2-1.6-0.5
		c-0.4-0.3-0.6-0.7-0.6-1.3c0-0.6,0.2-1.3,0.7-2c-0.5,0-0.9-0.2-1.4-0.6c-0.4-0.3-0.7-0.7-1-1.2c-0.2-0.5-0.4-1-0.4-1.4
		c0-0.6,0.2-1.1,0.5-1.5c0.4-0.4,0.8-0.6,1.4-0.6c0.3,0,0.6,0.1,0.9,0.2c-0.2-0.4-0.3-0.9-0.3-1.3c0-0.7,0.2-1.3,0.6-1.8
		s0.9-0.7,1.6-0.7c0.5,0,1,0.2,1.5,0.6c0.4,0.3,0.7,0.8,1,1.3c0.2-0.5,0.5-1,1-1.3c0.5-0.4,1-0.6,1.5-0.6c0.6,0,1.2,0.2,1.6,0.7
		s0.6,1.1,0.6,1.8c0,0.4-0.1,0.8-0.3,1.3C20.7,13.6,21,13.5,21.3,13.5z M11.6,17.5c0.2,0,0.4-0.1,0.5-0.2c0.1-0.2,0.1-0.3,0.1-0.6
		c0-0.4-0.2-0.8-0.5-1.2c-0.3-0.4-0.6-0.6-1-0.6c-0.2,0-0.4,0.1-0.5,0.4c-0.1,0.1-0.1,0.3-0.1,0.4c0,0.4,0.2,0.8,0.5,1.2
		S11.2,17.5,11.6,17.5z M19.7,21.1c0.2-0.1,0.2-0.4,0.1-0.8c-0.2-0.4-0.4-0.9-0.8-1.3c-0.4-0.5-0.9-1-1.4-1.3
		c-0.6-0.4-1.1-0.6-1.6-0.6s-1,0.2-1.6,0.6c-0.5,0.3-0.9,0.7-1.4,1.2c-0.4,0.5-0.7,0.9-0.8,1.3c-0.2,0.4-0.1,0.7,0,0.8
		c0.2,0.1,0.5,0.2,0.9,0.1c0.2,0,0.6-0.1,1.2-0.3c0.8-0.2,1.3-0.3,1.7-0.3c0.3,0,0.9,0.1,1.6,0.3c0.5,0.2,0.9,0.2,1.2,0.3
		C19.1,21.3,19.5,21.3,19.7,21.1z M13.5,11.3c-0.2,0-0.4,0.1-0.6,0.3c-0.1,0.2-0.2,0.5-0.2,0.8c0,0.4,0.1,0.8,0.4,1.2
		c0.3,0.4,0.6,0.6,1,0.6c0.3,0,0.5-0.1,0.6-0.3c0.1-0.2,0.2-0.5,0.2-0.8c0-0.4-0.1-0.8-0.4-1.2C14.2,11.5,13.9,11.3,13.5,11.3z
		 M16,14.4c-0.3,0.6-0.7,0.9-1.2,1.1c-0.5,0.2-1,0.2-1.5,0c0.2,0.4,0.3,0.8,0.3,1.2c0.8-0.6,1.7-0.9,2.4-0.9c0.8,0,1.6,0.3,2.4,0.9
		c0-0.4,0.1-0.8,0.3-1.2c-0.5,0.2-1,0.2-1.5,0C16.6,15.3,16.3,14.9,16,14.4z M18.5,11.3c-0.4,0-0.7,0.2-1,0.7
		c-0.3,0.4-0.4,0.8-0.4,1.2c0,0.3,0.1,0.5,0.2,0.8c0.1,0.2,0.3,0.3,0.6,0.3c0.4,0,0.7-0.2,1-0.6c0.3-0.4,0.4-0.8,0.4-1.2
		c0-0.3-0.1-0.6-0.2-0.8C18.9,11.4,18.7,11.3,18.5,11.3z M20.4,17.5c0.4,0,0.7-0.2,1-0.6c0.3-0.4,0.5-0.8,0.5-1.2
		c0-0.2,0-0.3-0.1-0.4c-0.1-0.2-0.3-0.4-0.5-0.4c-0.4,0-0.7,0.2-1,0.6c-0.3,0.4-0.5,0.8-0.5,1.2c0,0.2,0,0.4,0.1,0.6
		C20,17.4,20.2,17.5,20.4,17.5z"/>
</g>
</svg>
