<?xml version="1.0" encoding="utf-8"?>
<!-- Generator: Adobe Illustrator 20.1.0, SVG Export Plug-In . SVG Version: 6.00 Build 0)  -->
<svg version="1.2" baseProfile="tiny" id="Layer_1" xmlns="http://www.w3.org/2000/svg" xmlns:xlink="http://www.w3.org/1999/xlink"
	 x="0px" y="0px" viewBox="0 0 32 32" xml:space="preserve">
<rect fill="none" width="32" height="32"/>
<g>
	<path fill="#65C227" d="M23.3,13.8c0.2,0,0.4,0.1,0.5,0.2c0.1,0.1,0.2,0.3,0.2,0.5v4c0,0.2-0.1,0.4-0.2,0.5
		c-0.1,0.1-0.3,0.2-0.5,0.2h-0.3v2.5c0,0.4-0.1,0.8-0.4,1.1c-0.3,0.3-0.7,0.4-1.1,0.4H10.4c-0.4,0-0.8-0.1-1.1-0.4
		c-0.3-0.3-0.4-0.7-0.4-1.1v-2.5H8.7c-0.2,0-0.4-0.1-0.5-0.2c-0.1-0.1-0.2-0.3-0.2-0.5v-4c0-0.2,0.1-0.4,0.2-0.5
		c0.1-0.1,0.3-0.2,0.5-0.2h1.9c-0.4-0.5-0.6-1.1-0.6-1.8c0-0.8,0.3-1.4,0.8-2s1.2-0.8,2-0.8c0.6,0,1.2,0.2,1.7,0.5
		c0.5,0.3,1,0.9,1.5,1.7c0.6-0.8,1.1-1.4,1.5-1.7c0.5-0.4,1.1-0.5,1.7-0.5c0.8,0,1.4,0.3,2,0.8c0.5,0.5,0.8,1.2,0.8,2
		c0,0.7-0.2,1.3-0.6,1.8H23.3z M10.4,21.8h4.8v-6.6H9.4v2.5h5v1.5h-4V21.8z M12.7,10.7c-0.4,0-0.7,0.1-0.9,0.4
		c-0.2,0.2-0.4,0.5-0.4,0.9s0.1,0.7,0.4,0.9s0.5,0.4,0.9,0.4h2.7l-0.1-0.1c-0.5-0.7-0.9-1.2-1.2-1.6c-0.3-0.3-0.6-0.6-0.8-0.7
		C13.2,10.8,13,10.7,12.7,10.7z M16.6,13.2L16.6,13.2l2.6,0.1c0.4,0,0.7-0.1,0.9-0.4c0.2-0.2,0.4-0.5,0.4-0.9s-0.1-0.7-0.4-0.9
		c-0.2-0.2-0.5-0.4-0.9-0.4c-0.3,0-0.5,0.1-0.7,0.2c-0.2,0.1-0.5,0.3-0.8,0.7C17.5,11.9,17.1,12.4,16.6,13.2z M22.6,17.8v-2.5h-5.8
		v6.6h4.8v-2.5h-4v-1.5H22.6z"/>
</g>
</svg>
