<?xml version="1.0" encoding="utf-8"?>
<!-- Generator: Adobe Illustrator 20.1.0, SVG Export Plug-In . SVG Version: 6.00 Build 0)  -->
<svg version="1.2" baseProfile="tiny" id="Layer_1" xmlns="http://www.w3.org/2000/svg" xmlns:xlink="http://www.w3.org/1999/xlink"
	 x="0px" y="0px" viewBox="0 0 32 32" xml:space="preserve">
<rect fill="none" width="32" height="32"/>
<g>
	<path fill="#BD6A7C" d="M16.8,10.2c2.9,0.1,5.1,0.8,6.5,2.1c1.2,1.2,1.8,2.8,1.8,4.9c0,2.2-0.7,3.9-2,5.1c-1.5,1.3-3.9,2-7.1,2
		c-3.2,0-5.6-0.7-7.1-2c-1.3-1.2-2-2.9-2-5.1c0-4.5,2.8-6.9,8.3-7.1c0-0.4,0.1-0.7,0.4-1.1c0.3-0.4,0.6-0.7,1.1-0.9
		c0.2-0.1,0.4-0.1,0.6,0c0.2,0.1,0.3,0.2,0.4,0.4c0.1,0.2,0.1,0.4,0,0.6c-0.1,0.2-0.2,0.3-0.4,0.4C17.1,9.7,17,9.8,16.9,10
		C16.8,10.1,16.8,10.2,16.8,10.2z M16,22.8c2.4,0,4.3-0.4,5.5-1.1c1.4-0.9,2.1-2.4,2.1-4.4c0-2.1-0.7-3.5-2.1-4.4
		c-1.2-0.8-3-1.1-5.5-1.1c-2.4,0-4.3,0.4-5.5,1.1c-1.4,0.9-2.1,2.4-2.1,4.4c0,2.1,0.7,3.5,2.1,4.4C11.7,22.5,13.6,22.8,16,22.8z
		 M21.6,18.4c0-0.1,0-0.2-0.1-0.3c-0.1-0.1-0.2-0.1-0.3,0c-0.7,0.2-1.4,0.4-2.3,0.5C18,18.7,17,18.8,16,18.8v0.8c0,0,0,0.1-0.1,0.1
		s-0.1,0.1-0.1,0.1h-0.6c0,0-0.1,0-0.1-0.1S15,19.7,15,19.6v-0.9c-1.7-0.1-3.1-0.3-4.2-0.7c-0.1,0-0.2,0-0.3,0.1
		c-0.1,0.1-0.1,0.1-0.1,0.3c0.2,0.6,0.5,1.1,1,1.5c0.4,0.4,0.9,0.7,1.5,0.9V20c0,0,0-0.1,0.1-0.1s0.1-0.1,0.1-0.1h0.6
		c0,0,0.1,0,0.1,0.1S14,20,14,20v1.1c0.7,0.1,1.3,0.2,2,0.2c0.7,0,1.4-0.1,2-0.2V20c0,0,0-0.1,0.1-0.1s0.1-0.1,0.1-0.1h0.6
		c0,0,0.1,0,0.1,0.1S19,20,19,20v0.8c0.6-0.3,1.1-0.6,1.5-0.9C21.1,19.4,21.4,18.9,21.6,18.4z M11.7,16.9c0,0.1,0,0.2,0,0.3
		s0.1,0.1,0.2,0.1h3c0.1,0,0.2,0,0.2-0.1s0-0.2,0-0.3l-1.5-2.5c-0.1-0.1-0.1-0.1-0.2-0.1s-0.2,0-0.2,0.1L11.7,16.9z M16.8,16.9
		c0,0.1,0,0.2,0,0.3s0.1,0.1,0.2,0.1h3c0.1,0,0.2,0,0.2-0.1s0-0.2,0-0.3l-1.5-2.5c-0.1-0.1-0.1-0.1-0.2-0.1s-0.2,0-0.2,0.1
		L16.8,16.9z"/>
</g>
</svg>
