<?xml version="1.0" encoding="utf-8"?>
<!-- Generator: Adobe Illustrator 20.1.0, SVG Export Plug-In . SVG Version: 6.00 Build 0)  -->
<svg version="1.2" baseProfile="tiny" id="Layer_1" xmlns="http://www.w3.org/2000/svg" xmlns:xlink="http://www.w3.org/1999/xlink"
	 x="0px" y="0px" viewBox="0 0 32 32" xml:space="preserve">
<rect fill="none" width="32" height="32"/>
<g>
	<path fill="#A396EB" d="M22.4,17.9c-0.7,1.5-1.6,2.8-2.8,4c-1,0.9-2,1.6-3,2c-0.4,0.2-0.8,0.2-1.1,0c-1.2-0.5-2.3-1.3-3.3-2.3
		c-1.1-1.2-2-2.5-2.6-4.1c-0.7-1.7-1.1-3.6-1.1-5.6c0-0.3,0.1-0.6,0.3-0.9s0.4-0.4,0.7-0.5l6.1-2.5c0.4-0.2,0.8-0.2,1.1,0l6.1,2.5
		c0.3,0.1,0.5,0.3,0.7,0.5s0.3,0.5,0.3,0.9C23.6,14.1,23.2,16.1,22.4,17.9z M16,9.4L9.9,12c0,1.7,0.3,3.3,0.9,4.8
		c0.5,1.4,1.3,2.6,2.2,3.6c0.9,1,1.9,1.7,2.9,2.1c1-0.4,2-1.1,2.9-2.1c1-1,1.7-2.2,2.3-3.6c0.6-1.5,0.9-3.2,0.9-4.9L16,9.4z
		 M16,11.1v9.8c-1.3-0.8-2.3-1.8-3.1-3.2c-0.8-1.4-1.3-3-1.5-4.7L16,11.1z"/>
</g>
</svg>
