<?xml version="1.0" encoding="utf-8"?>
<!-- Generator: Adobe Illustrator 20.1.0, SVG Export Plug-In . SVG Version: 6.00 Build 0)  -->
<svg version="1.2" baseProfile="tiny" id="Layer_1" xmlns="http://www.w3.org/2000/svg" xmlns:xlink="http://www.w3.org/1999/xlink"
	 x="0px" y="0px" viewBox="0 0 32 32" xml:space="preserve">
<rect fill="none" width="32" height="32"/>
<g>
	<path fill="#C2B41F" d="M16,8.5c1.4,0,2.7,0.4,3.9,1.1c1.2,0.7,2.2,1.7,2.9,2.9s1.1,2.5,1.1,3.9s-0.4,2.7-1.1,3.9s-1.7,2.1-2.9,2.9
		c-1.2,0.7-2.5,1.1-3.9,1.1c-1.4,0-2.7-0.4-3.9-1.1c-1.2-0.7-2.2-1.7-2.9-2.9c-0.7-1.2-1.1-2.5-1.1-3.9s0.4-2.7,1.1-3.9
		c0.7-1.2,1.7-2.1,2.9-2.9C13.3,8.8,14.6,8.5,16,8.5z M13.3,10.6c-1.1,0.5-1.9,1.2-2.6,2.2c-0.7,1.1-1.1,2.3-1.1,3.6
		c0.5-0.9,1.2-1.8,2-2.5c0.8-0.7,1.7-1.3,2.6-1.8C14,11.6,13.7,11.1,13.3,10.6z M10,18.2c0.3,0.8,0.7,1.5,1.2,2.2
		c0.9-1.9,2.2-3.4,4-4.5c0-1-0.2-1.9-0.5-2.9c-1.1,0.5-2.1,1.2-2.9,2.1C11,16,10.4,17,10,18.2z M12.4,21.4c1.1,0.8,2.3,1.1,3.6,1.1
		c1.2,0,2.2-0.3,3.2-0.9c-2.2,0-4.2-0.6-6-1.8C12.9,20.4,12.6,20.9,12.4,21.4z M20.6,20.6c0.6-0.7,1-1.4,1.3-2.2h-0.1
		c-0.7,0.1-1.3,0.1-2,0c-1.3-0.1-2.6-0.6-3.8-1.2c-0.8,0.5-1.6,1.2-2.2,1.9c1,0.7,2.1,1.1,3.2,1.4C18.2,20.7,19.4,20.8,20.6,20.6z
		 M17.4,10.1c-0.8-0.2-1.7-0.2-2.5-0.1c1.2,1.7,1.8,3.6,1.9,5.7c0.9,0.5,1.8,0.8,2.7,1c0.1-1.2-0.1-2.4-0.4-3.5
		C18.7,12.1,18.1,11.1,17.4,10.1z M22.3,16.8c0.1-1.6-0.2-3-1.1-4.2c-0.6-0.8-1.3-1.4-2.1-1.9c0.5,0.9,0.9,1.9,1.2,3
		c0.2,1.1,0.3,2.1,0.2,3.2C21.1,16.9,21.7,16.9,22.3,16.8z"/>
</g>
</svg>
