<?xml version="1.0" encoding="utf-8"?>
<!-- Generator: Adobe Illustrator 20.1.0, SVG Export Plug-In . SVG Version: 6.00 Build 0)  -->
<svg version="1.2" baseProfile="tiny" id="Layer_1" xmlns="http://www.w3.org/2000/svg" xmlns:xlink="http://www.w3.org/1999/xlink"
	 x="0px" y="0px" viewBox="0 0 32 32" xml:space="preserve">
<rect fill="none" width="32" height="32"/>
<g>
	<path fill="#777DB2" d="M24,15.2c0,0.2-0.1,0.4-0.2,0.5c-0.1,0.1-0.3,0.2-0.5,0.2H23v4.1c0,0.4-0.1,0.7-0.3,1
		c-0.2,0.3-0.4,0.5-0.7,0.7v1.5c0,0.2-0.1,0.4-0.2,0.5c-0.1,0.1-0.3,0.2-0.5,0.2h-1c-0.2,0-0.4-0.1-0.5-0.2
		c-0.1-0.1-0.2-0.3-0.2-0.5V22h-7v1.3c0,0.2-0.1,0.4-0.2,0.5c-0.1,0.1-0.3,0.2-0.5,0.2h-1c-0.2,0-0.4-0.1-0.5-0.2
		c-0.1-0.1-0.2-0.3-0.2-0.5v-1.5c-0.3-0.2-0.6-0.4-0.7-0.7c-0.2-0.3-0.3-0.6-0.3-1V16H8.7c-0.2,0-0.4-0.1-0.5-0.2
		C8.1,15.6,8,15.5,8,15.2v-2.5c0-0.2,0.1-0.4,0.2-0.5C8.3,12.1,8.5,12,8.7,12H9v-0.5c0-0.8,0.4-1.5,1.2-2.1c0.7-0.5,1.6-0.8,2.8-1.1
		c1-0.2,2-0.3,3-0.3s2.1,0.1,3,0.3c1.2,0.3,2.1,0.6,2.8,1.1c0.8,0.6,1.2,1.3,1.2,2.1V12h0.3c0.2,0,0.4,0.1,0.5,0.2
		c0.1,0.1,0.2,0.3,0.2,0.5V15.2z M10.5,15h11v-2.5h-11V15z M10.5,16.5v3.6c0,0.1,0,0.2,0.1,0.3c0.1,0.1,0.2,0.1,0.3,0.1h10.3
		c0.1,0,0.2,0,0.3-0.1c0.1-0.1,0.1-0.2,0.1-0.3v-3.6H10.5z M21.4,11c-0.3-0.4-0.9-0.8-1.9-1.1c-1-0.3-2.1-0.4-3.4-0.4
		s-2.4,0.1-3.4,0.4c-1,0.3-1.6,0.6-1.9,1.1H21.4z M11.6,17.6c0.2-0.2,0.5-0.4,0.9-0.4c0.4,0,0.7,0.1,0.9,0.4
		c0.2,0.2,0.4,0.5,0.4,0.9c0,0.4-0.1,0.7-0.4,0.9c-0.2,0.2-0.5,0.4-0.9,0.4c-0.4,0-0.7-0.1-0.9-0.4c-0.2-0.2-0.4-0.5-0.4-0.9
		C11.2,18.2,11.4,17.9,11.6,17.6z M20.4,19.4c0.2-0.2,0.4-0.5,0.4-0.9c0-0.4-0.1-0.7-0.4-0.9s-0.5-0.4-0.9-0.4
		c-0.4,0-0.7,0.1-0.9,0.4c-0.2,0.2-0.4,0.5-0.4,0.9c0,0.4,0.1,0.7,0.4,0.9c0.2,0.2,0.5,0.4,0.9,0.4C19.9,19.8,20.2,19.6,20.4,19.4z"
		/>
</g>
</svg>
