<?xml version="1.0" encoding="utf-8"?>
<!-- Generator: Adobe Illustrator 20.1.0, SVG Export Plug-In . SVG Version: 6.00 Build 0)  -->
<svg version="1.2" baseProfile="tiny" id="Layer_1" xmlns="http://www.w3.org/2000/svg" xmlns:xlink="http://www.w3.org/1999/xlink"
	 x="0px" y="0px" viewBox="0 0 32 32" xml:space="preserve">
<rect fill="none" width="32" height="32"/>
<g>
	<path fill="#6AA3BD" d="M23.2,21.3c0,0.4-0.1,0.7-0.4,1c-0.3,0.3-0.6,0.4-1,0.4h-0.5v0.9h-1.4l-0.3-0.9h-7.5l-0.3,0.9h-1.4v-0.9
		h-0.5c-0.4,0-0.7-0.1-1-0.4c-0.3-0.3-0.4-0.6-0.4-1v-8.1c0-0.4,0.1-0.7,0.4-1c0.3-0.3,0.6-0.4,1-0.4h4l-1.5-1.6
		c-0.1-0.1-0.2-0.3-0.2-0.5c0-0.2,0.1-0.3,0.2-0.5C12.7,9.1,12.9,9,13.1,9c0.2,0,0.3,0.1,0.5,0.2l2.5,2.5l2.5-2.5
		C18.6,9.1,18.8,9,18.9,9s0.3,0.1,0.5,0.2c0.1,0.1,0.2,0.3,0.2,0.5c0,0.2-0.1,0.3-0.2,0.5l-1.5,1.6h4c0.4,0,0.7,0.1,1,0.4
		c0.3,0.3,0.4,0.6,0.4,1V21.3z M10.1,13.1v8.1h11.8v-8.1H10.1z M19.3,14.2c-0.1,0-0.3,0-0.5-0.1c-0.3,0-0.7-0.1-1.2-0.1
		c-0.6,0-1.4,0-2.3,0s-1.7,0-2.3,0c-0.5,0-0.9,0-1.2,0.1c-0.2,0-0.4,0-0.5,0.1l-0.1,0l-0.1,0.1c0,0.1,0,0.2-0.1,0.3
		c0,0.2-0.1,0.5-0.1,0.9c0,0.5,0,1,0,1.7c0,0.7,0,1.2,0,1.7c0,0.4,0,0.7,0.1,0.9c0,0.2,0,0.3,0.1,0.3l0.1,0l0.1,0.1
		c0.1,0,0.2,0,0.5,0.1c0.3,0,0.7,0.1,1.2,0.1c0.6,0,1.4,0,2.4,0c0.9,0,1.7,0,2.3,0c0.5,0,0.9,0,1.2-0.1c0.2,0,0.4,0,0.5-0.1l0.1-0.1
		l0,0c0-0.1,0.1-0.2,0.1-0.3c0-0.2,0-0.5,0.1-0.9c0-0.5,0.1-1,0.1-1.7c0-0.7,0-1.2-0.1-1.7c0-0.4,0-0.7-0.1-0.9
		C19.5,14.5,19.5,14.3,19.3,14.2L19.3,14.2C19.4,14.2,19.4,14.2,19.3,14.2z M20.1,15.7c0-0.1,0-0.2,0.1-0.2c0.1-0.1,0.1-0.1,0.2-0.1
		h0.2c0.1,0,0.2,0,0.2,0.1c0.1,0.1,0.1,0.1,0.1,0.2v0.2c0,0.1,0,0.2-0.1,0.2c-0.1,0.1-0.1,0.1-0.2,0.1h-0.2c-0.1,0-0.2,0-0.2-0.1
		c-0.1-0.1-0.1-0.1-0.1-0.2V15.7z M20.6,18.1c0.1,0,0.2,0,0.2-0.1c0.1-0.1,0.1-0.1,0.1-0.2v-0.2c0-0.1,0-0.2-0.1-0.2
		c-0.1-0.1-0.1-0.1-0.2-0.1h-0.2c-0.1,0-0.2,0-0.2,0.1c-0.1,0.1-0.1,0.1-0.1,0.2v0.2c0,0.1,0,0.2,0.1,0.2c0.1,0.1,0.1,0.1,0.2,0.1
		H20.6z"/>
</g>
</svg>
