<?xml version="1.0" standalone="no"?>
<!DOCTYPE svg PUBLIC "-//W3C//DTD SVG 20010904//EN"
 "http://www.w3.org/TR/2001/REC-SVG-20010904/DTD/svg10.dtd">
<svg version="1.0" xmlns="http://www.w3.org/2000/svg"
 width="1600.000000pt" height="1600.000000pt" viewBox="0 0 1600.000000 1600.000000"
 preserveAspectRatio="xMidYMid meet">
<metadata>
Created by potrace 1.14, written by Peter Selinger 2001-2017
</metadata>
<g transform="translate(0.000000,1600.000000) scale(0.100000,-0.100000)"
fill="#000000" stroke="none">
<path d="M7928 15389 c-46 -24 -107 -99 -144 -176 -29 -63 -216 -616 -599
-1778 -312 -946 -320 -984 -320 -1485 0 -302 9 -408 51 -618 31 -155 794
-2490 859 -2629 44 -93 107 -173 156 -199 36 -18 102 -18 138 0 49 26 112 106
156 199 65 139 828 2474 859 2629 42 210 51 316 51 618 0 501 -8 539 -320
1485 -383 1162 -570 1715 -599 1778 -78 164 -187 230 -288 176z"/>
<path d="M1737 11789 c-81 -12 -132 -43 -158 -96 -27 -56 -21 -104 25 -199 45
-94 64 -116 521 -629 1070 -1200 1308 -1464 1361 -1510 330 -286 770 -536
1144 -649 47 -14 497 -111 1000 -216 503 -105 1066 -223 1250 -262 304 -65
346 -71 455 -72 109 -1 124 1 169 24 71 36 91 67 91 144 0 70 -36 154 -102
242 -20 27 -423 482 -895 1011 -898 1007 -939 1049 -1159 1205 -281 199 -566
347 -851 442 -177 59 -2736 587 -2788 575 -3 -1 -31 -5 -63 -10z"/>
<path d="M14060 11783 c-119 -23 -2404 -498 -2487 -517 -457 -104 -1065 -459
-1380 -806 -251 -276 -1650 -1850 -1682 -1892 -52 -70 -90 -146 -103 -211 -10
-46 -9 -58 10 -100 18 -41 29 -51 79 -75 53 -24 68 -27 168 -26 114 1 99 -1
945 178 91 20 503 105 915 191 413 86 795 169 850 186 430 132 927 430 1226
736 84 85 570 628 990 1104 74 85 267 302 428 482 353 397 411 480 411 595 0
61 -27 105 -82 134 -36 18 -61 22 -153 24 -60 1 -121 0 -135 -3z"/>
<path d="M7185 7834 c-44 -8 -170 -34 -280 -59 -110 -24 -636 -134 -1170 -245
-533 -110 -1012 -212 -1064 -226 -360 -97 -822 -351 -1159 -638 -71 -60 -552
-589 -1079 -1186 -60 -69 -251 -282 -422 -475 -400 -447 -441 -506 -441 -634
0 -60 2 -65 38 -101 52 -52 100 -63 242 -57 100 4 258 34 1250 240 624 130
1190 248 1258 262 338 72 727 253 1081 503 220 156 261 198 1159 1205 472 529
875 984 895 1011 66 88 102 172 102 242 0 76 -20 108 -89 143 -62 31 -203 38
-321 15z"/>
<path d="M8522 7832 c-92 -33 -129 -89 -119 -179 7 -64 67 -177 139 -263 87
-105 1617 -1821 1692 -1899 76 -79 247 -220 369 -304 331 -230 739 -415 1052
-477 61 -12 617 -127 1237 -256 620 -128 1167 -238 1215 -244 104 -11 192 -1
252 30 33 16 48 32 63 68 19 42 20 53 10 101 -15 69 -43 126 -99 202 -72 98
-1744 1968 -1814 2030 -246 214 -537 400 -842 536 -247 111 -306 125 -1467
367 -597 124 -1159 242 -1250 262 -209 45 -358 54 -438 26z"/>
<path d="M7925 7492 c-53 -33 -107 -103 -150 -196 -24 -51 -166 -465 -325
-951 -155 -473 -333 -1015 -395 -1205 -168 -507 -190 -638 -190 -1100 1 -317
12 -439 60 -652 22 -98 440 -1381 721 -2212 143 -423 191 -518 285 -566 100
-52 190 1 274 161 40 76 147 389 555 1627 160 485 302 931 315 990 48 213 59
335 60 652 0 462 -22 593 -190 1100 -62 190 -240 732 -395 1205 -161 490 -300
899 -325 952 -44 93 -107 173 -156 199 -39 20 -108 18 -144 -4z"/>
</g>
</svg>
