<svg width="300" height="291" viewBox="0 0 300 291" fill="none" xmlns="http://www.w3.org/2000/svg">
<circle cx="154.75" cy="97.75" r="97.25" fill="#D0E2E9"/>
<path d="M177.881 59.5931C166.242 60.0546 167.364 77.0506 178.995 76.5347C189.941 76.049 188.782 59.1609 177.881 59.5931Z" fill="#0E5168"/>
<path d="M176.956 64.62C172.43 66.024 174.841 72.9213 179.388 71.5111C183.915 70.1071 181.503 63.2098 176.956 64.62Z" fill="white"/>
<path d="M127.266 33.4637C120.481 39.3959 117.271 48.9725 121.844 57.3775C124.005 61.3495 127.989 63.9127 129.649 68.1555C130.851 71.2259 130.298 75.0198 130.298 78.26H135.687C135.687 75.6268 134.936 71.6362 135.937 69.1808C136.682 67.3509 139.282 66.9716 140.489 68.5691C142.049 70.6328 141.076 75.7648 141.076 78.26H146.465C146.465 75.0198 145.912 71.2259 147.114 68.1555C148.774 63.9127 152.758 61.3495 154.919 57.3775C159.177 49.55 156.837 38.2668 149.159 33.4637C149.159 37.9937 150.596 45.4161 148.91 49.6172C148.254 51.2487 146.165 52.1884 144.781 53.1111C143.05 54.2653 140.85 56.3812 138.718 56.6133C136.107 56.8979 129.658 52.3286 128.19 50.2423C125.219 46.0183 129.236 38.1562 127.266 33.4637Z" fill="#959E93"/>
<path d="M175.478 45.9257C175.478 48.8553 175.918 58.1308 170.089 55.2948C168.142 54.3477 166.549 52.1536 165.036 50.6411H164.7L161.331 54.0092V54.346C162.844 55.8587 165.038 57.4515 165.985 59.3982C168.821 65.2278 159.546 64.7873 156.616 64.7873V70.1763C159.642 70.1763 168.141 69.4902 166.128 75.2285C165.731 76.3629 164.704 77.2854 164.026 78.2598H175.478V77.923C162.767 74.9028 166.287 56.3858 178.846 56.7088C190.933 57.0197 192.472 75.1652 180.867 77.923V78.2598H192.318C191.641 77.2854 190.614 76.3629 190.216 75.2285C188.203 69.4902 196.702 70.1763 199.728 70.1763V64.7873C196.799 64.7873 187.523 65.2278 190.359 59.3982C191.306 57.4515 193.5 55.8587 195.013 54.346V54.0092L191.645 50.6411H191.308C189.795 52.1536 188.202 54.3477 186.256 55.2948C180.426 58.1308 180.867 48.8553 180.867 45.9257H175.478Z" fill="#68828D"/>
<path d="M124.282 69.8395L124.619 70.1763L124.282 69.8395ZM129.334 69.8395L129.671 70.1763L129.334 69.8395Z" fill="#0D0D0D"/>
<path d="M112.058 95.4294H140.687C143.197 95.4294 149.171 96.5352 151.25 95.0832C152.457 94.2405 153.1 91.9922 153.739 90.714C155.579 87.034 158.072 83.2192 159.212 79.2623H130.582C128.072 79.2623 122.098 78.1566 120.019 79.6086C118.812 80.4513 118.169 82.6995 117.53 83.9777C115.69 87.6578 113.197 91.4725 112.058 95.4294Z" fill="#D39578"/>
<path d="M161.624 79.2623C162.764 83.2192 165.256 87.034 167.096 90.714C167.735 91.9922 168.378 94.2405 169.585 95.0832C171.665 96.5352 177.638 95.4294 180.149 95.4294H208.778C207.638 91.4725 205.146 87.6578 203.306 83.9777C202.667 82.6995 202.023 80.4513 200.817 79.6086C198.737 78.1566 192.763 79.2623 190.253 79.2623H161.624Z" fill="#D39578"/>
<path d="M158.264 83.7218C156.965 86.8407 154.887 93.2492 152.129 95.2604C150.066 96.7649 145.23 95.8471 142.77 95.8471H118.183V127.171L126.603 125.837L140.412 124.37L158.6 129.228V98.8784C158.6 94.5908 159.916 87.6605 158.264 83.7218ZM161.65 83.7218V121.445V131.213C161.65 132.298 161.311 129.458 161.996 130.385C163.109 131.892 165.181 131.836 168.121 133.425C171.062 135.015 172.622 135.55 174.685 135.911C176.158 136.169 178.883 137.033 180.095 136.342C184.774 137.958 187.912 134.161 191.963 131.836C194.357 130.461 200.682 128.217 201.865 125.692C202.869 123.548 202.068 119.42 202.068 117.066V95.8471H177.48C175.021 95.8471 170.185 96.7649 168.121 95.2604C164.822 92.8545 164.24 86.8474 161.65 83.7218Z" fill="#EBD2A2"/>
<path d="M115.174 126.553V156.966H126.872V126.553H115.174Z" fill="#68828D"/>
<path d="M181.223 139.695C181.893 143.64 178.164 147.114 174.186 147.582C172.022 147.836 169.692 146.916 167.635 146.381C163.767 145.374 159.876 144.41 155.988 143.474C153.753 142.936 148.161 142.493 147.057 140.373C145.314 137.023 151.265 138.32 152.591 138.644C159.194 140.253 166.204 142.966 172.973 143.714C176.069 144.055 178.336 140.813 176.614 138.341C174.826 135.775 168.217 135.207 165.208 134.498C160.338 133.351 155.506 132.056 150.65 130.861C148.228 130.264 145.652 129.278 143.128 129.248C140.925 129.222 138.694 129.969 136.577 130.465C134.843 130.871 131.26 131.052 129.929 132.183C129.02 132.956 129.54 135.676 129.54 136.742C129.54 141.15 128.777 146.239 129.576 150.578C129.82 151.901 132.501 152.652 133.665 153.132C138.314 155.051 144.227 154.237 149.194 154.237C155.598 154.237 163.349 155.34 169.576 153.837C172.521 153.126 175.215 151.19 177.826 149.788C182.932 147.047 188.006 146.261 193.109 143.514C196.344 141.773 193.546 143.237 196.764 141.467C198.441 140.545 200.185 139.633 200.349 137.607C200.591 134.615 197.078 133.351 194.58 134.488C187.895 137.534 187.955 136.748 181.223 139.695Z" fill="#D39578"/>
<path d="M103.12 128.892V152.287H114.817V128.892H103.12Z" fill="#959E93"/>
<path d="M24.384 267.864C22.336 267.864 20.64 267.416 19.296 266.52C17.952 265.56 17.024 264.248 16.512 262.584L4.32 218.904C5.216 218.392 6.432 218.136 7.968 218.136C9.376 218.136 10.56 218.456 11.52 219.096C12.48 219.736 13.088 220.664 13.344 221.88L21.408 253.752L20.448 257.88L20.928 258.072L31.392 220.92C31.648 220.088 32.128 219.416 32.832 218.904C33.536 218.392 34.4 218.136 35.424 218.136C36.448 218.136 37.312 218.392 38.016 218.904C38.72 219.416 39.2 220.088 39.456 220.92L48.576 254.136L47.424 258.264L48 258.456L57.408 221.88C57.664 220.664 58.272 219.736 59.232 219.096C60.192 218.456 61.376 218.136 62.784 218.136C64.32 218.136 65.536 218.392 66.432 218.904L54.24 262.584C53.792 264.248 52.832 265.56 51.36 266.52C49.888 267.416 48.128 267.864 46.08 267.864L34.56 226.392L34.176 226.488L35.136 230.04L24.384 267.864ZM88.596 267.864C84.692 267.864 81.204 267.128 78.132 265.656C75.06 264.12 72.66 262.04 70.932 259.416C69.204 256.728 68.34 253.72 68.34 250.392V236.184C68.34 232.792 69.236 229.72 71.028 226.968C72.884 224.216 75.348 222.072 78.42 220.536C81.556 218.936 84.948 218.136 88.596 218.136C92.244 218.136 95.572 218.904 98.58 220.44C101.652 221.976 104.052 224.088 105.78 226.776C107.572 229.464 108.468 232.504 108.468 235.896V242.04C108.468 243.064 108.084 243.928 107.316 244.632C106.548 245.336 105.62 245.688 104.532 245.688H76.5V250.008C76.5 253.272 77.524 255.896 79.572 257.88C81.684 259.864 84.692 260.856 88.596 260.856C92.5 260.856 95.476 259.992 97.524 258.264C99.572 256.536 100.596 254.2 100.596 251.256C102.516 251.128 104.116 251.512 105.396 252.408C106.74 253.24 107.412 254.488 107.412 256.152C107.412 258.2 106.516 260.12 104.724 261.912C102.996 263.704 100.692 265.144 97.812 266.232C94.932 267.32 91.86 267.864 88.596 267.864ZM100.692 239.16V235.896C100.692 232.696 99.572 230.104 97.332 228.12C95.156 226.072 92.244 225.048 88.596 225.048C84.948 225.048 82.004 226.072 79.764 228.12C77.588 230.104 76.5 232.696 76.5 235.896V239.16H100.692Z" fill="#C88C7F"/>
<path d="M117.63 224.952C117.63 222.84 118.27 221.176 119.55 219.96C120.894 218.744 122.91 218.136 125.598 218.136V223.512L123.678 226.008L123.966 226.392C125.95 223.832 128.222 221.816 130.782 220.344C133.342 218.872 136.382 218.136 139.902 218.136C145.406 218.136 149.854 219.672 153.246 222.744C156.638 225.752 158.334 229.784 158.334 234.84V251.256C158.334 256.312 156.574 260.344 153.054 263.352C149.534 266.36 144.958 267.864 139.326 267.864C136.318 267.864 133.534 267.256 130.974 266.04C128.478 264.76 126.27 263.096 124.35 261.048L124.062 261.528C124.51 262.168 125.182 262.872 126.078 263.64V280.536C126.078 284.888 123.262 287.064 117.63 287.064V224.952ZM138.078 260.472C141.854 260.472 144.798 259.64 146.91 257.976C149.022 256.248 150.078 253.88 150.078 250.872V235.224C150.078 232.088 149.022 229.688 146.91 228.024C144.798 226.36 141.822 225.528 137.982 225.528C134.59 225.528 131.742 226.424 129.438 228.216C127.134 229.944 125.982 232.12 125.982 234.744V251.352C125.982 253.912 127.07 256.088 129.246 257.88C131.422 259.608 134.366 260.472 138.078 260.472ZM189.698 225.528C186.114 225.528 183.138 226.616 180.77 228.792C178.402 230.904 177.218 233.496 177.218 236.568V261.72C177.218 263.832 176.514 265.4 175.106 266.424C173.762 267.384 171.682 267.864 168.866 267.864V225.24C168.866 220.504 171.554 218.136 176.93 218.136V223.992C175.906 225.08 175.202 226.04 174.818 226.872L175.202 227.256C179.298 221.176 184.418 218.136 190.562 218.136C192.866 218.136 194.626 218.712 195.842 219.864C197.058 220.952 197.666 222.296 197.666 223.896C197.666 225.048 197.378 226.072 196.802 226.968C195.01 226.008 192.642 225.528 189.698 225.528ZM217.811 267.864C213.907 267.864 210.355 267.128 207.155 265.656C204.019 264.184 201.555 262.2 199.763 259.704C198.035 257.144 197.171 254.296 197.171 251.16V235.416C197.171 232.216 198.035 229.304 199.763 226.68C201.555 224.056 204.019 221.976 207.155 220.44C210.291 218.904 213.843 218.136 217.811 218.136C221.779 218.136 225.331 218.904 228.467 220.44C231.667 221.976 234.131 224.056 235.859 226.68C237.651 229.304 238.547 232.216 238.547 235.416V251.16C238.547 254.296 237.651 257.144 235.859 259.704C234.067 262.2 231.603 264.184 228.467 265.656C225.331 267.128 221.779 267.864 217.811 267.864ZM217.811 260.664C221.651 260.664 224.691 259.768 226.931 257.976C229.235 256.12 230.387 253.72 230.387 250.776V235.704C230.387 232.632 229.235 230.136 226.931 228.216C224.691 226.296 221.651 225.336 217.811 225.336C214.035 225.336 210.995 226.296 208.691 228.216C206.387 230.136 205.235 232.632 205.235 235.704V250.776C205.235 253.72 206.355 256.12 208.595 257.976C210.899 259.768 213.971 260.664 217.811 260.664ZM252.322 225.24H244.354C244.354 220.76 246.018 218.52 249.346 218.52H252.322V213.72C252.322 209.24 253.698 205.656 256.45 202.968C259.266 200.28 263.01 198.936 267.682 198.936C270.242 198.936 272.418 199.544 274.21 200.76C276.066 201.912 276.994 203.32 276.994 204.984C276.994 206.328 276.578 207.416 275.746 208.248C273.506 206.968 271.042 206.328 268.354 206.328C265.922 206.328 264.034 207 262.69 208.344C261.346 209.688 260.674 211.608 260.674 214.104V218.52H291.01V261.72C291.01 265.816 288.226 267.864 282.658 267.864V225.24H260.674V261.72C260.674 263.832 260.002 265.4 258.658 266.424C257.314 267.384 255.202 267.864 252.322 267.864V225.24ZM286.882 210.936C285.09 210.936 283.586 210.36 282.37 209.208C281.154 208.056 280.546 206.616 280.546 204.888C280.546 203.224 281.154 201.816 282.37 200.664C283.586 199.512 285.09 198.936 286.882 198.936C288.674 198.936 290.146 199.512 291.298 200.664C292.514 201.816 293.122 203.224 293.122 204.888C293.122 206.552 292.514 207.992 291.298 209.208C290.146 210.36 288.674 210.936 286.882 210.936Z" fill="#68828D"/>
</svg>
