<svg width="113" height="47" viewBox="0 0 113 47" fill="none" xmlns="http://www.w3.org/2000/svg">
<path d="M9.144 38.324C8.376 38.324 7.74 38.156 7.236 37.82C6.732 37.46 6.384 36.968 6.192 36.344L1.62 19.964C1.956 19.772 2.412 19.676 2.988 19.676C3.516 19.676 3.96 19.796 4.32 20.036C4.68 20.276 4.908 20.624 5.004 21.08L8.028 33.032L7.668 34.58L7.848 34.652L11.772 20.72C11.868 20.408 12.048 20.156 12.312 19.964C12.576 19.772 12.9 19.676 13.284 19.676C13.668 19.676 13.992 19.772 14.256 19.964C14.52 20.156 14.7 20.408 14.796 20.72L18.216 33.176L17.784 34.724L18 34.796L21.528 21.08C21.624 20.624 21.852 20.276 22.212 20.036C22.572 19.796 23.016 19.676 23.544 19.676C24.12 19.676 24.576 19.772 24.912 19.964L20.34 36.344C20.172 36.968 19.812 37.46 19.26 37.82C18.708 38.156 18.048 38.324 17.28 38.324L12.96 22.772L12.816 22.808L13.176 24.14L9.144 38.324ZM33.2235 38.324C31.7595 38.324 30.4515 38.048 29.2995 37.496C28.1475 36.92 27.2475 36.14 26.5995 35.156C25.9515 34.148 25.6275 33.02 25.6275 31.772V26.444C25.6275 25.172 25.9635 24.02 26.6355 22.988C27.3315 21.956 28.2555 21.152 29.4075 20.576C30.5835 19.976 31.8555 19.676 33.2235 19.676C34.5915 19.676 35.8395 19.964 36.9675 20.54C38.1195 21.116 39.0195 21.908 39.6675 22.916C40.3395 23.924 40.6755 25.064 40.6755 26.336V28.64C40.6755 29.024 40.5315 29.348 40.2435 29.612C39.9555 29.876 39.6075 30.008 39.1995 30.008H28.6875V31.628C28.6875 32.852 29.0715 33.836 29.8395 34.58C30.6315 35.324 31.7595 35.696 33.2235 35.696C34.6875 35.696 35.8035 35.372 36.5715 34.724C37.3395 34.076 37.7235 33.2 37.7235 32.096C38.4435 32.048 39.0435 32.192 39.5235 32.528C40.0275 32.84 40.2795 33.308 40.2795 33.932C40.2795 34.7 39.9435 35.42 39.2715 36.092C38.6235 36.764 37.7595 37.304 36.6795 37.712C35.5995 38.12 34.4475 38.324 33.2235 38.324ZM37.7595 27.56V26.336C37.7595 25.136 37.3395 24.164 36.4995 23.42C35.6835 22.652 34.5915 22.268 33.2235 22.268C31.8555 22.268 30.7515 22.652 29.9115 23.42C29.0955 24.164 28.6875 25.136 28.6875 26.336V27.56H37.7595Z" fill="#C88C7F"/>
<path d="M44.52 22.232C44.52 21.44 44.76 20.816 45.24 20.36C45.744 19.904 46.5 19.676 47.508 19.676V21.692L46.788 22.628L46.896 22.772C47.64 21.812 48.492 21.056 49.452 20.504C50.412 19.952 51.552 19.676 52.872 19.676C54.936 19.676 56.604 20.252 57.876 21.404C59.148 22.532 59.784 24.044 59.784 25.94V32.096C59.784 33.992 59.124 35.504 57.804 36.632C56.484 37.76 54.768 38.324 52.656 38.324C51.528 38.324 50.484 38.096 49.524 37.64C48.588 37.16 47.76 36.536 47.04 35.768L46.932 35.948C47.1 36.188 47.352 36.452 47.688 36.74V43.076C47.688 44.708 46.632 45.524 44.52 45.524V22.232ZM52.188 35.552C53.604 35.552 54.708 35.24 55.5 34.616C56.292 33.968 56.688 33.08 56.688 31.952V26.084C56.688 24.908 56.292 24.008 55.5 23.384C54.708 22.76 53.592 22.448 52.152 22.448C50.88 22.448 49.812 22.784 48.948 23.456C48.084 24.104 47.652 24.92 47.652 25.904V32.132C47.652 33.092 48.06 33.908 48.876 34.58C49.692 35.228 50.796 35.552 52.188 35.552ZM71.5456 22.448C70.2016 22.448 69.0856 22.856 68.1976 23.672C67.3096 24.464 66.8656 25.436 66.8656 26.588V36.02C66.8656 36.812 66.6016 37.4 66.0736 37.784C65.5696 38.144 64.7896 38.324 63.7336 38.324V22.34C63.7336 20.564 64.7416 19.676 66.7576 19.676V21.872C66.3736 22.28 66.1096 22.64 65.9656 22.952L66.1096 23.096C67.6456 20.816 69.5656 19.676 71.8696 19.676C72.7336 19.676 73.3936 19.892 73.8496 20.324C74.3056 20.732 74.5336 21.236 74.5336 21.836C74.5336 22.268 74.4256 22.652 74.2096 22.988C73.5376 22.628 72.6496 22.448 71.5456 22.448ZM82.088 38.324C80.624 38.324 79.292 38.048 78.092 37.496C76.916 36.944 75.992 36.2 75.32 35.264C74.672 34.304 74.348 33.236 74.348 32.06V26.156C74.348 24.956 74.672 23.864 75.32 22.88C75.992 21.896 76.916 21.116 78.092 20.54C79.268 19.964 80.6 19.676 82.088 19.676C83.576 19.676 84.908 19.964 86.084 20.54C87.284 21.116 88.208 21.896 88.856 22.88C89.528 23.864 89.864 24.956 89.864 26.156V32.06C89.864 33.236 89.528 34.304 88.856 35.264C88.184 36.2 87.26 36.944 86.084 37.496C84.908 38.048 83.576 38.324 82.088 38.324ZM82.088 35.624C83.528 35.624 84.668 35.288 85.508 34.616C86.372 33.92 86.804 33.02 86.804 31.916V26.264C86.804 25.112 86.372 24.176 85.508 23.456C84.668 22.736 83.528 22.376 82.088 22.376C80.672 22.376 79.532 22.736 78.668 23.456C77.804 24.176 77.372 25.112 77.372 26.264V31.916C77.372 33.02 77.792 33.92 78.632 34.616C79.496 35.288 80.648 35.624 82.088 35.624ZM95.0294 22.34H92.0414C92.0414 20.66 92.6654 19.82 93.9134 19.82H95.0294V18.02C95.0294 16.34 95.5454 14.996 96.5774 13.988C97.6334 12.98 99.0374 12.476 100.789 12.476C101.749 12.476 102.565 12.704 103.237 13.16C103.933 13.592 104.281 14.12 104.281 14.744C104.281 15.248 104.125 15.656 103.813 15.968C102.973 15.488 102.049 15.248 101.041 15.248C100.129 15.248 99.4214 15.5 98.9174 16.004C98.4134 16.508 98.1614 17.228 98.1614 18.164V19.82H109.537V36.02C109.537 37.556 108.493 38.324 106.405 38.324V22.34H98.1614V36.02C98.1614 36.812 97.9094 37.4 97.4054 37.784C96.9014 38.144 96.1094 38.324 95.0294 38.324V22.34ZM107.989 16.976C107.317 16.976 106.753 16.76 106.297 16.328C105.841 15.896 105.613 15.356 105.613 14.708C105.613 14.084 105.841 13.556 106.297 13.124C106.753 12.692 107.317 12.476 107.989 12.476C108.661 12.476 109.213 12.692 109.645 13.124C110.101 13.556 110.329 14.084 110.329 14.708C110.329 15.332 110.101 15.872 109.645 16.328C109.213 16.76 108.661 16.976 107.989 16.976Z" fill="#68828D"/>
</svg>
