<?xml version="1.0" encoding="UTF-8" standalone="no"?>
<svg
   xmlns:dc="http://purl.org/dc/elements/1.1/"
   xmlns:cc="http://creativecommons.org/ns#"
   xmlns:rdf="http://www.w3.org/1999/02/22-rdf-syntax-ns#"
   xmlns:svg="http://www.w3.org/2000/svg"
   xmlns="http://www.w3.org/2000/svg"
   xmlns:sodipodi="http://sodipodi.sourceforge.net/DTD/sodipodi-0.dtd"
   xmlns:inkscape="http://www.inkscape.org/namespaces/inkscape"
   inkscape:version="1.0 (4035a4fb49, 2020-05-01)"
   sodipodi:docname="icon1a.svg"
   id="svg1057"
   xml:space="preserve"
   style="enable-background:new 0 0 238 235;"
   viewBox="0 0 238 235"
   y="0px"
   x="0px"
   version="1.1"><metadata
   id="metadata1063"><rdf:RDF><cc:Work
       rdf:about=""><dc:format>image/svg+xml</dc:format><dc:type
         rdf:resource="http://purl.org/dc/dcmitype/StillImage" /></cc:Work></rdf:RDF></metadata><defs
   id="defs1061" /><sodipodi:namedview
   inkscape:current-layer="Layer_3"
   inkscape:window-maximized="0"
   inkscape:window-y="0"
   inkscape:window-x="0"
   inkscape:cy="117.5"
   inkscape:cx="119"
   inkscape:zoom="4.0210084"
   showgrid="false"
   id="namedview1059"
   inkscape:window-height="1288"
   inkscape:window-width="2153"
   inkscape:pageshadow="2"
   inkscape:pageopacity="0"
   guidetolerance="10"
   gridtolerance="10"
   objecttolerance="10"
   borderopacity="1"
   bordercolor="#666666"
   pagecolor="#ffffff" />
<style
   id="style1008"
   type="text/css">
	.st0{display:none;}
	.st1{fill:#E3842A;}
	.st2{fill:#93561B;}
	.st3{fill:#F19741;}
	.st4{fill:#54483D;}
	.st5{fill:url(#SVGID_1_);}
	.st6{fill:#D7C0A0;}
	.st7{fill:#DBCDB8;}
</style>
<g
   class="st0"
   id="Layer_2">
</g>
<g
   id="Layer_1">
</g>
<g
   id="Layer_3">
	<g
   transform="matrix(0.99955575,0,0,0.99955575,0.00279876,0.003243)"
   id="g1053">
		<path
   id="path1012"
   d="m 143.4,224.6 c -2.4,0 -4.8,-1.2 -6,-3.1 l -7.2,-11.2 h -0.4 c -3.5,0.4 -7.1,0.6 -10.5,0.6 -3.7,0 -7.5,-0.2 -11.2,-0.7 h -0.4 l -7.2,11.3 c -1.2,1.8 -3.6,3.1 -6,3.1 -0.6,0 -1.3,-0.1 -1.8,-0.3 l -15.2,-5 c -2.8,-0.9 -4.9,-4 -4.7,-6.9 l 0.8,-13.5 -0.3,-0.2 C 67.1,195.2 61.2,190.9 55.9,186 l -0.3,-0.3 -12.7,5 c -0.7,0.3 -1.5,0.4 -2.2,0.4 -2.3,0 -4.5,-1.1 -5.7,-2.7 l -9.4,-13 c -1.7,-2.3 -1.6,-6.1 0.2,-8.3 l 8.7,-10.6 -0.2,-0.4 c -3,-6.5 -5.2,-13.4 -6.6,-20.4 l -0.1,-0.4 -13.3,-3.4 c -2.8,-0.7 -5.1,-3.7 -5.1,-6.6 v -16 c 0,-2.9 2.3,-5.8 5.1,-6.6 l 13.3,-3.4 0.1,-0.4 c 1.4,-7 3.6,-13.9 6.6,-20.4 l 0.2,-0.4 -8.7,-10.6 c -1.8,-2.2 -2,-6 -0.2,-8.3 L 35,46.3 c 1.2,-1.7 3.4,-2.7 5.7,-2.7 0.8,0 1.6,0.1 2.3,0.4 L 55.7,49 56,48.7 C 61.2,44 67,39.7 73.3,36.2 L 73.6,36 72.8,22.5 c -0.2,-2.9 1.9,-6 4.7,-6.9 l 15.2,-4.9 c 0.6,-0.2 1.2,-0.3 1.9,-0.3 2.4,0 4.8,1.2 6,3.1 l 7.2,11.3 h 0.4 c 3.8,-0.5 7.6,-0.7 11.3,-0.7 3.5,0 7,0.2 10.6,0.6 h 0.4 l 7.1,-11.2 c 1.2,-1.8 3.6,-3.1 6,-3.1 0.7,0 1.3,0.1 1.9,0.3 l 15.2,4.9 c 2.8,0.9 4.9,4 4.7,6.9 l -0.8,13.1 0.3,0.2 c 6.5,3.6 12.5,8 17.9,13 l 0.2,0.2 12.2,-4.8 c 0.7,-0.3 1.5,-0.4 2.3,-0.4 2.3,0 4.5,1.1 5.7,2.7 l 9.4,13 c 1.7,2.3 1.6,6.1 -0.3,8.3 l -8.2,10 0.2,0.4 c 3.1,6.8 5.5,13.9 6.9,21.2 l 0.1,0.4 12.5,3.3 c 2.8,0.7 5.1,3.7 5.1,6.6 v 16 c 0,2.9 -2.3,5.8 -5.1,6.6 l -12.5,3.3 -0.1,0.4 c -1.4,7.3 -3.8,14.4 -6.9,21.1 l -0.2,0.4 8.2,10 c 1.8,2.2 1.9,6 0.2,8.3 l -9.4,13 c -1.2,1.7 -3.5,2.7 -5.7,2.7 -0.8,0 -1.6,-0.1 -2.2,-0.4 l -12.2,-4.8 -0.3,0.3 c -5.4,5 -11.4,9.3 -17.9,12.9 l -0.3,0.2 0.8,13.1 c 0.2,2.9 -1.9,6 -4.7,6.9 l -15.2,4.9 c -0.7,-0.1 -1.3,0 -2,0 z m -32.5,-29.7 c 2.4,0.3 4.9,0.4 7.6,0.4 2.7,0 5.5,-0.1 8.6,-0.4 l 4.1,-0.7 c 42,-6.7 70.7,-46.4 64,-88.4 -6,-37.7 -38.1,-65 -76.2,-65 -22.6,0 -44,9.9 -58.7,27.1 -14.7,17.2 -21.1,40 -17.5,62.4 5.3,33 31,58.7 64,64 z"
   class="st1" />
		<path
   id="path1014"
   d="m 143.4,13.4 c 0.3,0 0.7,0 0.9,0.1 l 15.2,4.9 c 1.4,0.5 2.7,2.3 2.6,3.8 l -0.9,15 2,1.1 c 6.3,3.5 12.1,7.7 17.3,12.5 l 1.7,1.5 13.9,-5.5 c 0.3,-0.1 0.7,-0.2 1.2,-0.2 1.3,0 2.7,0.6 3.3,1.5 L 210,61 c 0.9,1.2 0.8,3.5 -0.1,4.6 l -9.4,11.5 1,2.1 c 3,6.5 5.3,13.4 6.7,20.5 l 0.4,2.2 14.3,3.7 c 1.5,0.4 2.8,2.2 2.8,3.7 v 16 c 0,1.5 -1.4,3.3 -2.8,3.7 l -14.3,3.7 -0.4,2.2 c -1.4,7 -3.6,13.9 -6.7,20.4 l -1,2.1 9.4,11.5 c 1,1.2 1,3.4 0.1,4.6 l -9.4,13 c -0.6,0.9 -2,1.5 -3.3,1.5 -0.4,0 -0.8,-0.1 -1.2,-0.2 l -13.9,-5.4 -1.7,1.5 c -5.2,4.8 -11.1,9 -17.3,12.5 l -2,1.1 0.9,15 c 0.1,1.5 -1.2,3.4 -2.6,3.8 l -15.2,5 c -0.3,0.1 -0.6,0.1 -0.9,0.1 -1.3,0 -2.8,-0.7 -3.4,-1.7 l -8.2,-12.8 -2.2,0.2 c -3.4,0.4 -6.9,0.6 -10.2,0.6 -3.6,0 -7.2,-0.2 -10.9,-0.7 l -2.3,-0.3 -8.2,13.2 c -0.6,1 -2.1,1.7 -3.4,1.7 -0.3,0 -0.7,0 -0.9,-0.1 l -15.2,-4.9 c -1.4,-0.5 -2.7,-2.3 -2.6,-3.8 l 0.9,-15.4 -2,-1.1 C 68.8,192.9 63.1,188.7 58,184 l -1.7,-1.5 -14.5,5.5 c -0.3,0.1 -0.7,0.2 -1.1,0.2 -1.3,0 -2.7,-0.6 -3.3,-1.5 l -9.4,-13 c -0.9,-1.2 -0.8,-3.5 0.1,-4.6 l 9.9,-12 -1,-2.1 c -2.9,-6.3 -5,-13 -6.4,-19.7 l -0.4,-2.2 -15.1,-3.9 c -1.5,-0.4 -2.8,-2.2 -2.8,-3.7 v -16 c 0,-1.5 1.4,-3.3 2.8,-3.7 l 15.1,-3.9 0.4,-2.2 C 32,92.9 34.1,86.2 37,80 l 0.9,-2.1 -9.9,-12 c -1,-1.2 -1,-3.4 -0.1,-4.6 l 9.4,-13 c 0.6,-0.9 2,-1.5 3.3,-1.5 0.4,0 0.8,0.1 1.2,0.2 l 14.4,5.7 1.7,-1.6 C 63,46.3 68.7,42.2 74.8,38.7 l 2,-1.1 -0.9,-15.4 c -0.1,-1.5 1.2,-3.4 2.6,-3.8 l 15.2,-4.9 c 0.3,-0.1 0.6,-0.1 0.9,-0.1 1.4,0 2.8,0.7 3.4,1.7 l 8.2,12.9 2.3,-0.3 c 3.6,-0.4 7.3,-0.7 10.9,-0.7 3.3,0 6.8,0.2 10.2,0.6 l 2.3,0.3 8.1,-12.8 c 0.6,-1 2.1,-1.7 3.4,-1.7 m -24.9,184.9 c 2.9,0 5.9,-0.2 9,-0.5 l 4.2,-0.7 c 43.6,-6.9 73.5,-48.2 66.5,-91.9 C 192,66.2 158.7,37.8 119,37.8 95.5,37.8 73.3,48.1 58,65.9 42.7,83.8 36.1,107.4 39.8,130.7 c 5.5,34.3 32.2,61 66.5,66.5 l 4.2,0.7 c 2.6,0.3 5.3,0.4 8,0.4 M 143.4,7.4 c -3.4,0 -6.8,1.8 -8.5,4.5 l -6.1,9.6 c -3.2,-0.3 -6.4,-0.5 -9.4,-0.5 -3.3,0 -6.8,0.2 -10.2,0.5 L 103,11.8 c -1.7,-2.7 -5.1,-4.5 -8.5,-4.5 -1,0 -1.9,0.1 -2.8,0.4 l -15.2,4.9 c -4,1.3 -7,5.7 -6.7,9.9 l 0.7,11.6 C 64.9,37.4 59.7,41.2 54.9,45.5 L 44,41.4 c -1,-0.4 -2.2,-0.6 -3.4,-0.6 -3.2,0 -6.4,1.5 -8.1,4 l -9.4,13 c -2.5,3.4 -2.3,8.7 0.4,12 l 7.5,9.1 c -2.6,5.9 -4.5,12 -5.9,18.3 l -11.5,3 c -4.1,1.1 -7.3,5.2 -7.3,9.5 v 16 c 0,4.2 3.2,8.4 7.3,9.5 l 11.5,3 c 1.3,6.2 3.3,12.3 5.9,18.2 l -7.5,9.2 c -2.7,3.3 -2.8,8.5 -0.3,12 l 9.4,12.9 c 1.8,2.5 4.9,4 8.2,4 1.2,0 2.3,-0.2 3.3,-0.6 l 11,-4.3 c 4.8,4.3 10,8.1 15.5,11.4 l -0.7,11.7 c -0.3,4.2 2.7,8.6 6.7,9.9 l 15.2,4.9 v 0 0 c 0.9,0.3 1.8,0.4 2.7,0.4 3.4,0 6.8,-1.8 8.5,-4.5 l 6.2,-9.7 c 3.4,0.4 6.8,0.5 10.1,0.5 3.1,0 6.2,-0.2 9.4,-0.5 l 6.2,9.7 c 1.7,2.7 5,4.5 8.5,4.5 0.9,0 1.9,-0.1 2.7,-0.4 v 0 0 l 15.2,-5 c 4.1,-1.3 7,-5.7 6.7,-9.9 l -0.7,-11.2 c 5.7,-3.3 11.1,-7.2 16,-11.6 l 10.4,4.1 c 1,0.4 2.2,0.6 3.3,0.6 3.3,0 6.4,-1.5 8.2,-4 l 9.4,-13 c 2.5,-3.4 2.3,-8.7 -0.4,-12 l -7,-8.6 c 2.7,-6.1 4.8,-12.5 6.2,-19 l 10.7,-2.8 c 4.1,-1.1 7.3,-5.2 7.3,-9.5 v -16 c 0,-4.2 -3.2,-8.4 -7.3,-9.5 l -10.7,-2.8 c -1.4,-6.5 -3.5,-12.9 -6.2,-19 l 7,-8.5 c 2.7,-3.3 2.9,-8.5 0.4,-12 l -9.4,-12.9 c -1.8,-2.5 -4.9,-4 -8.2,-4 -1.2,0 -2.3,0.2 -3.3,0.6 l -10.4,4.1 C 178.4,41.2 173,37.3 167.2,34 l 0.7,-11.2 c 0.3,-4.2 -2.7,-8.6 -6.7,-9.9 L 146,8 c -0.6,-0.5 -1.6,-0.6 -2.6,-0.6 z m -32.1,184.5 -4.1,-0.7 C 75.5,186.1 50.7,161.4 45.7,129.7 42.3,108.2 48.4,86.3 62.5,69.8 c 14.1,-16.5 34.7,-26 56.4,-26 36.7,0 67.5,26.3 73.3,62.5 6.4,40.5 -21.2,78.6 -61.5,85 l -4,0.6 c -3,0.3 -5.7,0.4 -8.2,0.4 -2.5,0 -4.9,-0.1 -7.2,-0.4 z"
   class="st2" />
		<path
   id="path1016"
   d="m 222.9,105.8 -14.3,-3.7 -0.4,-2.2 c -1.4,-7 -3.6,-13.9 -6.7,-20.5 l -1,-2.1 9.4,-11.5 c 1,-1.2 1,-3.4 0.1,-4.6 l -9.4,-12.9 c -0.6,-0.9 -2,-1.5 -3.3,-1.5 -0.4,0 -0.8,0.1 -1.2,0.2 l -13.9,5.5 -1.7,-1.5 c -5.3,-4.8 -11.1,-9.1 -17.3,-12.5 l -2,-1.1 0.9,-15 c 0.1,-1.5 -1.2,-3.4 -2.6,-3.8 l -15.2,-4.9 c -0.3,-0.1 -0.6,-0.1 -0.9,-0.1 -1.3,0 -2.8,0.7 -3.4,1.7 l -8.1,12.8 -2.3,-0.3 c -3.5,-0.4 -6.9,-0.6 -10.2,-0.6 -3.6,0 -7.3,0.2 -10.9,0.7 L 106.2,28.2 98,15.1 c -0.6,-1 -2.1,-1.7 -3.4,-1.7 -0.3,0 -0.7,0 -0.9,0.1 l -15.2,4.9 c -1.4,0.5 -2.7,2.3 -2.6,3.8 l 0.9,15.4 -2,1.1 C 68.7,42.1 63.1,46.3 57.9,51.1 L 56.2,52.7 41.8,47 c -0.3,-0.1 -0.7,-0.2 -1.2,-0.2 -0.5,0 -1.1,0.1 -1.6,0.3 6.4,6.1 12.7,12.5 18.9,18.9 L 58,65.9 C 73.3,48 95.5,37.8 119,37.8 c 39.7,0 73,28.4 79.2,67.5 5.5,34.8 -12.2,68 -41.7,83.6 1.6,2.2 3.2,4.3 4.8,6.5 0.3,0.4 0.7,0.8 1.2,1.4 l 0.1,0.1 0.6,-0.4 c 6.2,-3.5 12,-7.7 17.3,-12.5 l 1.7,-1.5 13.9,5.4 c 0.3,0.1 0.7,0.2 1.2,0.2 1.3,0 2.7,-0.6 3.3,-1.5 l 9.4,-13 c 0.9,-1.2 0.8,-3.5 -0.1,-4.6 l -9.4,-11.5 1,-2.1 c 3,-6.5 5.3,-13.4 6.7,-20.4 l 0.4,-2.2 14.3,-3.7 c 1.5,-0.4 2.8,-2.2 2.8,-3.7 v -16 c 0,-1.4 -1.3,-3.2 -2.8,-3.6 z"
   class="st3" />
		<path
   id="path1018"
   d="M 169.6,97.3 C 165.4,96.2 161,95 157.5,92.7 l -0.2,-0.1 -0.1,-0.2 C 151.6,82.3 142.8,74.5 134.2,67 l -1.1,-1 c -7.1,-5.9 -5.9,-15.7 -2.7,-22.4 4,-8.8 4.7,-21 -3.4,-26.9 -2.4,-1.8 -5.2,-2.7 -8.4,-2.7 -4.9,0 -10.6,2.3 -14.8,6 -13.9,11.1 -15,31.5 -8.9,45.8 0.6,1.5 1.7,3.8 2.9,5.8 l 1,1.6 -1.9,-0.1 C 96,73.1 95,73 94.1,73 c -8.8,0 -20.6,1.9 -26.7,10.9 -5.6,7.8 -2.4,18.7 3.8,25.4 l 0.7,0.7 -0.7,0.7 c -1.7,1.6 -7.2,7.3 -4.6,13.9 1.7,4.1 5.3,7.2 8.9,9.9 l 0.9,0.7 -0.9,0.8 c -6.8,6.5 -2,17 2.6,22 9.3,9.6 23.3,15.1 38.4,15.1 2.1,0 4.2,-0.1 6.3,-0.3 h 0.2 l 0.2,0.1 c 11.9,3.9 25,6 38.8,6.2 3.1,-2.3 6,-4.7 8.7,-7.4 -6.5,0.2 -13,0.1 -19.5,-0.4 14.2,-15.1 24.7,-37 19,-58.1 -0.8,-3.2 -2.1,-6.3 -3.5,-9.3 0.7,0.2 1.4,0.4 2,0.6 8,2.1 16.2,3.5 24.4,4.4 -0.1,-1.3 -0.3,-2.6 -0.5,-3.9 -0.2,-1.5 -0.5,-3 -0.9,-4.5 -6.7,-0.3 -12.6,-1 -17.8,-2.2 -1.4,-0.2 -2.8,-0.6 -4.3,-1 z M 80.4,81.7 c 3.8,-1.6 7.9,-2.1 12,-2.3 12.8,0.4 26.5,4 35.8,13.1 2.1,2.1 2.8,3.9 2.6,5.6 0.4,4.5 -2,9.4 -5.3,12.4 -14,-7.9 -31.9,-13.6 -47.2,-6 C 75,106.8 73.5,101 72,98.8 68.5,91.9 73.5,84 80.4,81.7 Z m -8,38.6 c -0.1,-0.9 0.4,-1.9 1.9,-3.3 4.8,-5.4 11.7,-8.4 19,-8.5 13.3,0.2 26.3,5.9 36.5,14.2 2.5,2.1 4.3,3.3 3.1,4.7 0.9,2.7 0.4,5.5 -2.6,6.9 -3.4,3.2 -7.2,-1.3 -11,-1.4 -12.2,-3.1 -25.4,-4.9 -37.7,-2.1 -3.4,-1.9 -9.7,-6.3 -9.2,-10.5 z m 6.3,23 c -0.5,-1.3 0.4,-2.7 3.4,-3.9 2.7,-1.5 5.6,-2.5 8.7,-2.4 12.8,0.1 26.7,0.8 37.6,8.2 1.6,1.1 2,2 1.8,2.6 0.6,3.3 -3.4,7.1 -6.5,7.8 -13.2,3.7 -27.8,1.6 -40.1,-3.9 -3.5,-1 -5.6,-5.1 -4.9,-8.4 z m 21.5,20.9 c 11.4,0.9 25.3,2.3 33.9,-6.8 4.3,-4.4 5.1,-12.4 0.5,-16.8 6.3,-3.4 8,-11.8 4.5,-17.8 -1.5,-3.2 -4.1,-5.8 -6.8,-8.1 6.3,-6.9 8.9,-18.3 2.5,-26 C 128,79.9 116.4,76.9 106.6,73.3 97.7,61.4 94.7,43.2 103.4,30.9 c 0.2,-0.2 0.3,-0.5 0.5,-0.7 0.1,-0.1 0.2,-0.3 0.3,-0.4 0.3,-0.3 0.5,-0.7 0.8,-1 0.1,-0.1 0.2,-0.2 0.3,-0.3 0.3,-0.3 0.5,-0.6 0.8,-0.9 0.4,-0.4 0.8,-0.8 1.3,-1.2 2.8,-2.5 6.5,-4.8 10.5,-5.1 7.2,-0.6 9.7,8.7 7.4,14.2 -2.8,9.2 -7.9,19.9 -2.3,29.1 6.8,11.1 19.7,16.6 26.1,28.1 6.6,9.3 7,22.3 -0.4,31.1 -1.4,2.9 -7.3,5.3 -4.7,9 1.5,2.2 5.4,-2.5 4.1,1.3 -1.8,13.7 -9.7,28.5 -24.2,31.9 -7.8,1.4 -16.2,1 -23.7,-1.8 z m 42.7,4.3 c -1.9,3.1 -5.5,1.8 -8.3,1.1 15.5,-8.8 21,-27.4 21.9,-44.2 1.1,-4.3 4.4,-8 4.9,-12.6 l 0.2,-0.8 0.2,0.7 c 7,20.1 -4.3,42 -18.9,55.8 z"
   class="st4" />
		<path
   id="path1020"
   d="m 166.6,104.1 c 1.4,3 2.7,6 3.5,9.3 5.7,21.1 -4.8,43 -19,58.1 6.5,0.5 13,0.6 19.5,0.4 16.1,-15.9 25,-38.6 22.4,-62.7 -8.2,-0.9 -16.3,-2.3 -24.4,-4.4 -0.6,-0.3 -1.3,-0.5 -2,-0.7 z"
   class="st4" />
		
			<linearGradient
   gradientTransform="matrix(91.9891,0,0,-91.9891,62.3867,763.8158)"
   y2="6.8031998"
   x2="1.9646"
   y1="6.8031998"
   x1="0.96460003"
   gradientUnits="userSpaceOnUse"
   id="SVGID_1_">
			<stop
   id="stop1022"
   style="stop-color:#46738B"
   offset="0" />
			<stop
   id="stop1024"
   style="stop-color:#27414F"
   offset="1" />
		</linearGradient>
		<path
   style="fill:url(#SVGID_1_)"
   id="path1027"
   d="m 166.6,104.1 c 1.4,3 2.7,6 3.5,9.3 5.7,21.1 -4.8,43 -19,58.1 6.5,0.5 13,0.6 19.5,0.4 16.1,-15.9 25,-38.6 22.4,-62.7 -8.2,-0.9 -16.3,-2.3 -24.4,-4.4 -0.6,-0.3 -1.3,-0.5 -2,-0.7 z"
   class="st5" />
		<path
   id="path1029"
   d="m 161.6,112 -0.2,0.8 c -0.4,4.6 -3.8,8.4 -4.9,12.6 -0.9,16.8 -6.5,35.4 -21.9,44.2 2.8,0.7 6.4,2 8.3,-1.1 14.6,-13.8 25.9,-35.6 18.9,-55.8 z"
   class="st6" />
		<path
   id="path1031"
   d="m 148.1,133.9 c 1.4,-3.8 -2.6,0.9 -4.1,-1.3 -2.6,-3.6 3.4,-6.1 4.7,-9 7.4,-8.8 7,-21.8 0.4,-31.1 -6.4,-11.5 -19.3,-17 -26.1,-28.1 -5.6,-9.2 -0.5,-19.9 2.3,-29.1 -1.7,5.6 -6.4,11.7 -8.5,17.7 -1.4,3.9 -12.4,2.7 -14.5,-2.4 -2.8,-6.8 -3.2,-13.6 1.1,-19.8 -8.7,12.3 -5.7,30.5 3.2,42.4 9.8,3.5 21.4,6.6 28.2,15.4 6.4,7.7 3.7,19.1 -2.5,26 2.7,2.3 5.3,4.9 6.8,8.1 3.6,6.1 1.9,14.4 -4.5,17.8 4.7,4.4 3.9,12.3 -0.5,16.8 -8.5,9.1 -22.5,7.8 -33.9,6.8 7.5,2.8 15.9,3.2 23.7,1.6 14.5,-3.3 22.3,-18 24.2,-31.8 z"
   class="st6" />
		<path
   id="path1033"
   d="m 106.2,27.5 c 0.4,-0.4 0.8,-0.8 1.3,-1.2 -0.5,0.4 -0.9,0.8 -1.3,1.2 z"
   class="st6" />
		<path
   id="path1035"
   d="m 105.1,28.7 c 0.1,-0.1 0.2,-0.2 0.3,-0.3 -0.1,0.1 -0.2,0.2 -0.3,0.3 z"
   class="st6" />
		<path
   id="path1037"
   d="m 103.9,30.1 c 0.1,-0.1 0.2,-0.3 0.3,-0.4 0,0.2 -0.2,0.3 -0.3,0.4 z"
   class="st6" />
		<path
   id="path1039"
   d="m 78.4,104.6 c 15.3,-7.6 33.2,-1.9 47.2,6 3.2,-3 5.7,-8 5.3,-12.4 -0.3,2.4 -2.5,4.6 -5.3,7.2 -14,-7.9 -31.9,-13.6 -47.2,-6 -3.3,2.3 -4.8,1.8 -6.3,-0.4 1.4,2.1 3,7.9 6.3,5.6 z"
   class="st6" />
		<path
   id="path1041"
   d="m 78.4,99.3 c 15.3,-7.6 33.2,-1.9 47.2,6 2.8,-2.6 5,-4.8 5.3,-7.2 0.2,-1.7 -0.5,-3.5 -2.6,-5.6 -9.4,-9.1 -23.1,-12.7 -35.8,-13.1 -4.1,0.1 -8.2,0.7 -12,2.3 -7,2.3 -12,10.1 -8.4,17.2 1.4,2.2 3,2.8 6.3,0.4 z"
   class="st7" />
		<path
   id="path1043"
   d="m 119.4,132.9 c 3.8,0.2 7.6,4.7 11,1.4 3,-1.4 3.5,-4.2 2.6,-6.9 -0.4,0.5 -1.3,1 -2.6,1.6 -3.4,3.2 -7.2,-1.3 -11,-1.4 -12.2,-3.1 -25.4,-4.9 -37.7,-2.1 -3.2,-1.8 -8.9,-2.8 -9.3,-5.3 -0.5,4.3 5.8,8.6 9.3,10.6 12.2,-2.8 25.5,-1 37.7,2.1 z"
   class="st6" />
		<path
   id="path1045"
   d="m 81.7,125.5 c 12.3,-2.8 25.5,-1 37.7,2.1 3.8,0.2 7.6,4.7 11,1.4 1.3,-0.6 2.2,-1.1 2.6,-1.6 1.2,-1.4 -0.6,-2.6 -3.1,-4.7 -10.3,-8.3 -23.3,-14 -36.5,-14.2 -7.3,0.1 -14.2,3.1 -19,8.5 -1.5,1.4 -2.1,2.4 -1.9,3.3 0.3,2.4 6,3.4 9.2,5.2 z"
   class="st7" />
		<path
   id="path1047"
   d="m 123.7,155.6 c 3.1,-0.8 7.1,-4.6 6.5,-7.8 -0.5,1.3 -3.8,1.9 -6.5,2.5 -13.2,3.7 -27.8,1.6 -40.1,-3.9 -2.6,-0.7 -4.4,-1.9 -4.9,-3.2 -0.7,3.3 1.4,7.5 4.9,8.4 12.3,5.6 26.9,7.7 40.1,4 z"
   class="st6" />
		<path
   id="path1049"
   d="m 83.6,146.4 c 12.3,5.5 26.9,7.6 40.1,3.9 2.7,-0.6 6,-1.2 6.5,-2.5 0.2,-0.7 -0.2,-1.5 -1.8,-2.6 -10.9,-7.4 -24.8,-8.1 -37.6,-8.2 -3.1,-0.1 -6,1 -8.7,2.4 -3,1.2 -3.9,2.6 -3.4,3.9 0.5,1.3 2.3,2.4 4.9,3.1 z"
   class="st7" />
		<path
   id="path1051"
   d="m 102.4,50.7 c 2.1,5.1 13,6.4 14.5,2.4 2.2,-6 6.8,-12.2 8.5,-17.7 2.3,-5.5 -0.1,-14.8 -7.4,-14.2 -4,0.3 -7.7,2.6 -10.5,5.1 -0.5,0.4 -0.9,0.8 -1.3,1.2 -0.3,0.3 -0.6,0.6 -0.8,0.9 -0.1,0.1 -0.2,0.2 -0.3,0.3 -0.3,0.3 -0.6,0.7 -0.8,1 -0.1,0.1 -0.2,0.3 -0.3,0.4 -0.2,0.2 -0.3,0.5 -0.5,0.7 -4.3,6.3 -3.9,13 -1.1,19.9 z"
   class="st7" />
	</g>
</g>
<g
   id="Layer_4">
</g>
</svg>
