<?xml version="1.0" encoding="UTF-8" standalone="no"?>
<svg
   width="159.32899"
   height="53.749001"
   viewBox="0 0 159.32899 53.749001"
   fill="none"
   version="1.1"
   id="svg1802"
   sodipodi:docname="logo.svg"
   inkscape:version="1.2.2 (b0a8486541, 2022-12-01, custom)"
   xmlns:inkscape="http://www.inkscape.org/namespaces/inkscape"
   xmlns:sodipodi="http://sodipodi.sourceforge.net/DTD/sodipodi-0.dtd"
   xmlns="http://www.w3.org/2000/svg"
   xmlns:svg="http://www.w3.org/2000/svg">
  <defs
     id="defs1806" />
  <sodipodi:namedview
     id="namedview1804"
     pagecolor="#ffffff"
     bordercolor="#000000"
     borderopacity="0.25"
     inkscape:showpageshadow="2"
     inkscape:pageopacity="0.0"
     inkscape:pagecheckerboard="0"
     inkscape:deskcolor="#d1d1d1"
     showgrid="false"
     inkscape:zoom="6.6308411"
     inkscape:cx="89.807611"
     inkscape:cy="24.506695"
     inkscape:window-width="1920"
     inkscape:window-height="1011"
     inkscape:window-x="0"
     inkscape:window-y="37"
     inkscape:window-maximized="1"
     inkscape:current-layer="svg1802" />
  <path
     d="m 57.113769,36.824 c -0.768,0 -1.404,-0.168 -1.908,-0.504 -0.504,-0.36 -0.852,-0.852 -1.044,-1.476 l -4.572,-16.38 c 0.336,-0.192 0.792,-0.288 1.368,-0.288 0.528,0 0.972,0.12 1.332,0.36 0.36,0.24 0.588,0.588 0.684,1.044 l 3.024,11.952 -0.36,1.548 0.18,0.072 3.924,-13.932 c 0.096,-0.312 0.276,-0.564 0.54,-0.756 0.264,-0.192 0.588,-0.288 0.972,-0.288 0.384,0 0.708,0.096 0.972,0.288 0.264,0.192 0.444,0.444 0.54,0.756 l 3.42,12.456 -0.432,1.548 0.216,0.072 3.528,-13.716 c 0.096,-0.456 0.324,-0.804 0.684,-1.044 0.36,-0.24 0.804,-0.36 1.332,-0.36 0.576,0 1.032,0.096 1.368,0.288 l -4.572,16.38 c -0.168,0.624 -0.528,1.116 -1.08,1.476 -0.552,0.336 -1.212,0.504 -1.98,0.504 l -4.32,-15.552 -0.144,0.036 0.36,1.332 z m 24.0795,0 c -1.464,0 -2.772,-0.276 -3.924,-0.828 -1.152,-0.576 -2.052,-1.356 -2.7,-2.34 -0.648,-1.008 -0.972,-2.136 -0.972,-3.384 v -5.328 c 0,-1.272 0.336,-2.424 1.008,-3.456 0.696,-1.032 1.62,-1.836 2.772,-2.412 1.176,-0.6 2.448,-0.9 3.816,-0.9 1.368,0 2.616,0.288 3.744,0.864 1.152,0.576 2.052,1.368 2.7,2.376 0.672,1.008 1.008,2.148 1.008,3.42 v 2.304 c 0,0.384 -0.144,0.708 -0.432,0.972 -0.288,0.264 -0.636,0.396 -1.044,0.396 h -10.512 v 1.62 c 0,1.224 0.384,2.208 1.152,2.952 0.792,0.744 1.92,1.116 3.384,1.116 1.464,0 2.58,-0.324 3.348,-0.972 0.768,-0.648 1.152,-1.524 1.152,-2.628 0.72,-0.048 1.32,0.096 1.8,0.432 0.504,0.312 0.756,0.78 0.756,1.404 0,0.768 -0.336,1.488 -1.008,2.16 -0.648,0.672 -1.512,1.212 -2.592,1.62 -1.08,0.408 -2.232,0.612 -3.456,0.612 z m 4.536,-10.764 v -1.224 c 0,-1.2 -0.42,-2.172 -1.26,-2.916 -0.816,-0.768 -1.908,-1.152 -3.276,-1.152 -1.368,0 -2.472,0.384 -3.312,1.152 -0.816,0.744 -1.224,1.716 -1.224,2.916 v 1.224 z"
     fill="#c88c7f"
     id="path1718" />
  <path
     d="m 92.489769,20.732 c 0,-0.792 0.24,-1.416 0.72,-1.872 0.504,-0.456 1.26,-0.684 2.268,-0.684 v 2.016 l -0.72,0.936 0.108,0.144 c 0.744,-0.96 1.596,-1.716 2.556,-2.268 0.96,-0.552 2.1,-0.828 3.420001,-0.828 2.064,0 3.732,0.576 5.004,1.728 1.272,1.128 1.908,2.64 1.908,4.536 v 6.156 c 0,1.896 -0.66,3.408 -1.98,4.536 -1.32,1.128 -3.036,1.692 -5.148,1.692 -1.128001,0 -2.172001,-0.228 -3.132001,-0.684 -0.936,-0.48 -1.764,-1.104 -2.484,-1.872 l -0.108,0.18 c 0.168,0.24 0.42,0.504 0.756,0.792 v 6.336 c 0,1.632 -1.056,2.448 -3.168,2.448 z m 7.668001,13.32 c 1.416,0 2.52,-0.312 3.312,-0.936 0.792,-0.648 1.188,-1.536 1.188,-2.664 v -5.868 c 0,-1.176 -0.396,-2.076 -1.188,-2.7 -0.792,-0.624 -1.908,-0.936 -3.348,-0.936 -1.272001,0 -2.340001,0.336 -3.204001,1.008 -0.864,0.648 -1.296,1.464 -1.296,2.448 v 6.228 c 0,0.96 0.408,1.776 1.224,2.448 0.816,0.648 1.92,0.972 3.312001,0.972 z m 19.358,-13.104 c -1.344,0 -2.46,0.408 -3.348,1.224 -0.888,0.792 -1.332,1.764 -1.332,2.916 v 9.432 c 0,0.792 -0.264,1.38 -0.792,1.764 -0.504,0.36 -1.284,0.54 -2.34,0.54 V 20.84 c 0,-1.776 1.008,-2.664 3.024,-2.664 v 2.196 c -0.384,0.408 -0.648,0.768 -0.792,1.08 l 0.144,0.144 c 1.536,-2.28 3.456,-3.42 5.76,-3.42 0.864,0 1.524,0.216 1.98,0.648 0.456,0.408 0.684,0.912 0.684,1.512 0,0.432 -0.108,0.816 -0.324,1.152 -0.672,-0.36 -1.56,-0.54 -2.664,-0.54 z m 10.542,15.876 c -1.464,0 -2.796,-0.276 -3.996,-0.828 -1.176,-0.552 -2.1,-1.296 -2.772,-2.232 -0.648,-0.96 -0.972,-2.028 -0.972,-3.204 v -5.904 c 0,-1.2 0.324,-2.292 0.972,-3.276 0.672,-0.984 1.596,-1.764 2.772,-2.34 1.176,-0.576 2.508,-0.864 3.996,-0.864 1.488,0 2.82,0.288 3.996,0.864 1.2,0.576 2.124,1.356 2.772,2.34 0.672,0.984 1.008,2.076 1.008,3.276 v 5.904 c 0,1.176 -0.336,2.244 -1.008,3.204 -0.672,0.936 -1.596,1.68 -2.772,2.232 -1.176,0.552 -2.508,0.828 -3.996,0.828 z m 0,-2.7 c 1.44,0 2.58,-0.336 3.42,-1.008 0.864,-0.696 1.296,-1.596 1.296,-2.7 v -5.652 c 0,-1.152 -0.432,-2.088 -1.296,-2.808 -0.84,-0.72 -1.98,-1.08 -3.42,-1.08 -1.416,0 -2.556,0.36 -3.42,1.08 -0.864,0.72 -1.296,1.656 -1.296,2.808 v 5.652 c 0,1.104 0.42,2.004 1.26,2.7 0.864,0.672 2.016,1.008 3.456,1.008 z m 12.941,-13.284 h -2.988 c 0,-1.68 0.624,-2.52 1.872,-2.52 h 1.116 v -1.8 c 0,-1.68 0.516,-3.024 1.548,-4.032 1.056,-1.008 2.46,-1.512 4.212,-1.512 0.96,0 1.776,0.228 2.448,0.684 0.696,0.432 1.044,0.96 1.044,1.584 0,0.504 -0.156,0.912 -0.468,1.224 -0.84,-0.48 -1.764,-0.72 -2.772,-0.72 -0.912,0 -1.62,0.252 -2.124,0.756 -0.504,0.504 -0.756,1.224 -0.756,2.16 v 1.656 h 11.376 v 16.2 c 0,1.536 -1.044,2.304 -3.132,2.304 V 20.84 h -8.244 v 13.68 c 0,0.792 -0.252,1.38 -0.756,1.764 -0.504,0.36 -1.296,0.54 -2.376,0.54 z m 12.96,-5.364 c -0.672,0 -1.236,-0.216 -1.692,-0.648 -0.456,-0.432 -0.684,-0.972 -0.684,-1.62 0,-0.624 0.228,-1.152 0.684,-1.584 0.456,-0.432 1.02,-0.648 1.692,-0.648 0.672,0 1.224,0.216 1.656,0.648 0.456,0.432 0.684,0.96 0.684,1.584 0,0.624 -0.228,1.164 -0.684,1.62 -0.432,0.432 -0.984,0.648 -1.656,0.648 z"
     fill="#68828d"
     id="path1720" />
  <path
     d="m 68.993069,39.321 0.144,0.144 z"
     fill="#d2d2d2"
     id="path1722" />
  <path
     d="m 69.137069,39.321 0.144,0.144 z"
     fill="#6e6e6e"
     id="path1724" />
  <path
     d="m 69.281069,39.321 0.144,0.144 z"
     fill="#2b2b2b"
     id="path1726" />
  <path
     d="m 69.425069,39.321 0.1439,0.144 z"
     fill="#0b0b0b"
     id="path1728" />
  <path
     d="m 68.705169,39.465 -0.144,0.2879 z"
     fill="#f8f8f8"
     id="path1730" />
  <path
     d="m 68.849169,39.465 0.1439,0.1439 z"
     fill="#696969"
     id="path1732" />
  <path
     d="m 68.993069,39.465 0.144,0.1439 z"
     fill="#020202"
     id="path1734" />
  <path
     d="m 68.705169,39.6089 0.144,0.144 z"
     fill="#414141"
     id="path1736" />
  <path
     d="m 68.561169,39.7529 0.144,0.144 z"
     fill="#686868"
     id="path1738" />
  <path
     d="m 68.417269,39.8969 0.1439,0.1439 z"
     fill="#d2d2d2"
     id="path1740" />
  <path
     d="m 68.561169,39.8969 0.144,0.1439 z"
     fill="#020202"
     id="path1742" />
  <path
     d="m 68.417269,40.0409 0.1439,0.1439 z"
     fill="#6f6f6f"
     id="path1744" />
  <path
     d="m 68.417269,40.1848 0.1439,0.144 z"
     fill="#2a2a2a"
     id="path1746" />
  <path
     d="m 68.417269,40.3288 0.1439,0.144 z"
     fill="#0d0d0d"
     id="path1748" />
  <path
     d="m 69.4475,56.5973 0.1439,0.1439 z"
     fill="#0d0d0d"
     id="path1750" />
  <path
     d="m 69.4475,56.7412 0.1439,0.144 z"
     fill="#2a2a2a"
     id="path1752" />
  <path
     d="m 69.4475,56.8852 0.1439,0.144 z"
     fill="#6f6f6f"
     id="path1754" />
  <path
     d="m 69.4475,57.0292 0.1439,0.1439 z"
     fill="#d3d3d3"
     id="path1756" />
  <path
     d="m 69.5914,57.0292 0.144,0.1439 z"
     fill="#030303"
     id="path1758" />
  <path
     d="m 69.5914,57.1732 0.144,0.1439 z"
     fill="#6b6b6b"
     id="path1760" />
  <path
     d="m 69.5914,57.3171 0.288,0.288 z"
     fill="#f9f9f9"
     id="path1762" />
  <path
     d="m 69.7354,57.3171 0.144,0.144 z"
     fill="#434343"
     id="path1764" />
  <path
     d="m 69.8794,57.4611 0.1439,0.144 z"
     fill="#6c6c6c"
     id="path1766" />
  <path
     d="m 70.0233,57.4611 0.144,0.144 z"
     fill="#030303"
     id="path1768" />
  <path
     d="m 70.0233,57.6051 0.144,0.1439 z"
     fill="#d4d4d4"
     id="path1770" />
  <path
     d="m 70.1673,57.6051 0.144,0.1439 z"
     fill="#717171"
     id="path1772" />
  <path
     d="m 70.3113,57.6051 0.144,0.1439 z"
     fill="#2c2c2c"
     id="path1774" />
  <path
     d="m 70.4553,57.6051 0.1439,0.1439 z"
     fill="#0c0c0c"
     id="path1776" />
  <circle
     cx="23.469769"
     cy="26.5"
     r="22.5"
     fill="#d0e2e9"
     id="circle1778" />
  <path
     d="m 28.821469,17.6719 c -2.6929,0.1068 -2.4334,4.039 0.2576,3.9197 2.5326,-0.1124 2.2644,-4.0197 -0.2576,-3.9197 z"
     fill="#0e5168"
     id="path1780" />
  <path
     d="m 28.607469,18.835 c -1.0473,0.3248 -0.4894,1.9206 0.5625,1.5943 1.0474,-0.3248 0.4895,-1.9206 -0.5625,-1.5943 z"
     fill="#ffffff"
     id="path1782" />
  <path
     d="m 17.111069,11.6266 c -1.5699,1.3725 -2.3125,3.5881 -1.2546,5.5327 0.5,0.919 1.4217,1.512 1.8058,2.4937 0.2781,0.7103 0.1502,1.5881 0.1502,2.3377 h 1.2468 c 0,-0.6092 -0.1737,-1.5325 0.0578,-2.1005 0.1725,-0.4234 0.7739,-0.5112 1.0533,-0.1416 0.3608,0.4775 0.1357,1.6649 0.1357,2.2421 h 1.2468 c 0,-0.7496 -0.1278,-1.6274 0.1502,-2.3377 0.3841,-0.9817 1.3058,-1.5747 1.8058,-2.4937 0.9852,-1.811 0.4438,-4.4215 -1.3326,-5.5327 0,1.048 0.3325,2.7653 -0.0578,3.7373 -0.1515,0.3774 -0.6349,0.5948 -0.9552,0.8083 -0.4005,0.2671 -0.9095,0.7566 -1.4027,0.8103 -0.6041,0.0658 -2.0963,-0.9913 -2.4358,-1.474 -0.6873,-0.9773 0.2419,-2.7963 -0.2137,-3.8819 z"
     fill="#959e93"
     id="path1784" />
  <path
     d="m 28.265369,14.5098 c 0,0.6778 0.1019,2.8238 -1.2468,2.1677 -0.4505,-0.2192 -0.819,-0.7268 -1.1689,-1.0767 h -0.078 l -0.7792,0.7792 v 0.078 c 0.3499,0.3499 0.8576,0.7184 1.0767,1.1688 0.6561,1.3488 -1.4899,1.2469 -2.1677,1.2469 v 1.2468 c 0.7002,0 2.6666,-0.1588 2.2008,1.1689 -0.092,0.2624 -0.3296,0.4759 -0.4864,0.7013 h 2.6495 v -0.0779 c -2.9407,-0.6988 -2.1265,-4.9829 0.7792,-4.9082 2.7967,0.0719 3.1525,4.2701 0.4676,4.9082 v 0.0779 h 2.6495 c -0.1568,-0.2254 -0.3944,-0.4389 -0.4864,-0.7013 -0.4658,-1.3277 1.5006,-1.1689 2.2008,-1.1689 v -1.2468 c -0.6778,0 -2.8238,0.1019 -2.1677,-1.2469 0.2191,-0.4504 0.7267,-0.8189 1.0767,-1.1688 V 16.38 l -0.7793,-0.7792 h -0.0779 c -0.35,0.3499 -0.7185,0.8575 -1.1689,1.0767 -1.3487,0.6561 -1.2468,-1.4899 -1.2468,-2.1677 z"
     fill="#68828d"
     id="path1786" />
  <path
     d="m 16.420569,20.0426 0.0779,0.0779 z m 1.1689,0 0.0779,0.0779 z"
     fill="#0d0d0d"
     id="path1788" />
  <path
     d="m 13.592369,25.9631 h 6.6237 c 0.5808,0 1.9629,0.2558 2.444,-0.0801 0.2792,-0.195 0.428,-0.7151 0.5759,-1.0109 0.4257,-0.8514 1.0023,-1.734 1.266,-2.6494 h -6.6237 c -0.5808,0 -1.9629,-0.2559 -2.444,0.0801 -0.2792,0.1949 -0.4281,0.7151 -0.5759,1.0108 -0.4257,0.8514 -1.0023,1.734 -1.266,2.6495 z"
     fill="#d39578"
     id="path1790" />
  <path
     d="m 25.060069,22.2227 c 0.2637,0.9154 0.8404,1.798 1.2661,2.6494 0.1478,0.2958 0.2967,0.8159 0.5759,1.0109 0.4811,0.3359 1.8632,0.0801 2.444,0.0801 h 6.6237 c -0.2637,-0.9155 -0.8404,-1.7981 -1.2661,-2.6495 -0.1478,-0.2957 -0.2966,-0.8159 -0.5758,-1.0108 -0.4812,-0.336 -1.8633,-0.0801 -2.444,-0.0801 z"
     fill="#d39578"
     id="path1792" />
  <path
     d="m 24.282669,23.2544 c -0.3004,0.7216 -0.7812,2.2043 -1.4192,2.6696 -0.4774,0.3481 -1.5963,0.1357 -2.1654,0.1357 h -5.6886 v 7.2472 l 1.9482,-0.3086 3.1949,-0.3395 4.208,1.1241 v -7.0218 c 0,-0.992 0.3045,-2.5954 -0.0779,-3.5067 z m 0.7835,0 v 8.7277 2.2599 c 0,0.2511 -0.0784,-0.4059 0.0801,-0.1914 0.2576,0.3486 0.7368,0.3356 1.4171,0.7033 0.6803,0.3678 1.0414,0.4916 1.5186,0.5751 0.3408,0.0596 0.9712,0.2596 1.2517,0.0998 1.0825,0.3738 1.8086,-0.5046 2.7459,-1.0426 0.5539,-0.318 2.0172,-0.8373 2.2907,-1.4214 0.2323,-0.4962 0.047,-1.4511 0.047,-1.9957 v -4.9094 h -5.6886 c -0.5691,0 -1.6879,0.2124 -2.1653,-0.1357 -0.7633,-0.5566 -0.898,-1.9465 -1.4972,-2.6696 z"
     fill="#ebd2a2"
     id="path1794" />
  <path
     d="m 14.313369,33.1639 v 7.0365 h 2.7064 v -7.0365 z"
     fill="#68828d"
     id="path1796" />
  <path
     d="m 29.594469,36.2046 c 0.1551,0.9127 -0.7076,1.7165 -1.628,1.8246 -0.5007,0.0588 -1.0398,-0.154 -1.5157,-0.2779 -0.8948,-0.2328 -1.7951,-0.4559 -2.6946,-0.6725 -0.517,-0.1245 -1.811,-0.2271 -2.0662,-0.7175 -0.4033,-0.7749 0.9735,-0.4749 1.2803,-0.4001 1.5276,0.3725 3.1495,1.0001 4.7155,1.173 0.7164,0.0792 1.2409,-0.6709 0.8424,-1.2429 -0.4136,-0.5937 -1.9425,-0.7251 -2.6388,-0.8891 -1.1267,-0.2654 -2.2446,-0.5651 -3.3682,-0.8417 -0.5602,-0.1379 -1.1564,-0.3662 -1.7403,-0.373 -0.5096,-0.0061 -1.0258,0.1668 -1.5157,0.2814 -0.4012,0.0939 -1.2302,0.1359 -1.5381,0.3977 -0.2103,0.1788 -0.09,0.8081 -0.09,1.0546 0,1.02 -0.1766,2.1973 0.0084,3.2011 0.0563,0.3061 0.6766,0.4798 0.946,0.591 1.0755,0.444 2.4437,0.2556 3.5928,0.2556 1.4818,0 3.275,0.2552 4.7156,-0.0926 0.6814,-0.1644 1.3047,-0.6124 1.9087,-0.9366 1.1814,-0.6342 2.3553,-0.8162 3.5359,-1.4516 0.7486,-0.4028 0.1013,-0.0641 0.8458,-0.4736 0.3879,-0.2133 0.7914,-0.4244 0.8294,-0.893 0.0561,-0.6923 -0.7569,-0.9848 -1.3347,-0.7216 -1.5466,0.7045 -1.5329,0.5229 -3.0905,1.2047 z"
     fill="#d39578"
     id="path1798" />
  <path
     d="m 11.524469,33.7052 v 5.4127 h 2.7064 v -5.4127 z"
     fill="#959e93"
     id="path1800" />
</svg>
