<?xml version="1.0" encoding="UTF-8" standalone="no"?>
<svg
   xmlns:dc="http://purl.org/dc/elements/1.1/"
   xmlns:cc="http://creativecommons.org/ns#"
   xmlns:rdf="http://www.w3.org/1999/02/22-rdf-syntax-ns#"
   xmlns:svg="http://www.w3.org/2000/svg"
   xmlns="http://www.w3.org/2000/svg"
   xmlns:sodipodi="http://sodipodi.sourceforge.net/DTD/sodipodi-0.dtd"
   xmlns:inkscape="http://www.inkscape.org/namespaces/inkscape"
   inkscape:version="1.0 (4035a4fb49, 2020-05-01)"
   sodipodi:docname="logo1a-horiz.svg"
   id="svg1187"
   xml:space="preserve"
   style="enable-background:new 0 0 482 300;"
   viewBox="0 0 482 300"
   y="0px"
   x="0px"
   version="1.1"><metadata
   id="metadata1193"><rdf:RDF><cc:Work
       rdf:about=""><dc:format>image/svg+xml</dc:format><dc:type
         rdf:resource="http://purl.org/dc/dcmitype/StillImage" /><dc:title></dc:title></cc:Work></rdf:RDF></metadata><defs
   id="defs1191">
	

		
		
		
		
		
		
		
		
			<linearGradient
   gradientTransform="matrix(65.712954,0,0,-65.712954,241.63384,222.49341)"
   y2="0.81809998"
   x2="-1.0275"
   y1="0.81809998"
   x1="-2.0274999"
   gradientUnits="userSpaceOnUse"
   id="SVGID_1_">
			<stop
   id="stop1152"
   style="stop-color:#46738B"
   offset="0" />
			<stop
   id="stop1154"
   style="stop-color:#27414F"
   offset="1" />
		</linearGradient>
		
		
		
		
		
		
		
		
		
		
		
		
		
	</defs><sodipodi:namedview
   inkscape:current-layer="svg1187"
   inkscape:window-maximized="0"
   inkscape:window-y="0"
   inkscape:window-x="0"
   inkscape:cy="236.14544"
   inkscape:cx="313.26308"
   inkscape:zoom="1.1508823"
   showgrid="false"
   id="namedview1189"
   inkscape:window-height="1278"
   inkscape:window-width="2015"
   inkscape:pageshadow="2"
   inkscape:pageopacity="0"
   guidetolerance="10"
   gridtolerance="10"
   objecttolerance="10"
   borderopacity="1"
   bordercolor="#666666"
   pagecolor="#ffffff" />
<style
   id="style1134"
   type="text/css">
	.st0{display:none;}
	.st1{fill:#E3842A;}
	.st2{fill:#93561B;}
	.st3{fill:#135A7F;}
	.st4{fill:#F19741;}
	.st5{fill:#54483D;}
	.st6{fill:url(#SVGID_1_);}
	.st7{fill:#D7C0A0;}
	.st8{fill:#DBCDB8;}
</style>
<g
   class="st0"
   id="Layer_2">
</g>
<g
   id="Layer_1">
</g>
<path
   style="stroke-width:0.714356"
   id="path1138"
   d="m 102.94672,230.65036 c -1.71445,0 -3.428909,-0.85723 -4.286129,-2.21451 l -5.14337,-8.00078 h -0.28574 c -2.50024,0.28574 -5.07192,0.42861 -7.50073,0.42861 -2.64312,0 -5.35767,-0.14287 -8.00079,-0.50005 h -0.28574 l -5.14337,8.07222 c -0.85723,1.28584 -2.57168,2.21451 -4.286133,2.21451 -0.428614,0 -0.928663,-0.0714 -1.285841,-0.21431 l -10.858209,-3.57178 c -2.000196,-0.64292 -3.500344,-2.85742 -3.357473,-4.92906 l 0.571485,-9.6438 -0.214307,-0.14287 c -4.429006,-2.50025 -8.643706,-5.57198 -12.429792,-9.07232 l -0.214307,-0.21431 -9.072319,3.57178 c -0.500049,0.21431 -1.071534,0.28574 -1.571583,0.28574 -1.643019,0 -3.214601,-0.78579 -4.071828,-1.92876 l -6.714946,-9.28662 c -1.214405,-1.64302 -1.142969,-4.35757 0.142872,-5.92916 l 6.214896,-7.57217 -0.142872,-0.28574 c -2.143067,-4.64331 -3.71465,-9.57237 -4.714748,-14.57286 l -0.07144,-0.28574 -9.500933,-2.42881 c -2.0001959,-0.50005 -3.6432149,-2.64312 -3.6432149,-4.71475 v -11.4297 c 0,-2.07163 1.643019,-4.14326 3.6432149,-4.71474 l 9.500933,-2.42881 0.07144,-0.28575 c 1.000098,-5.00049 2.571681,-9.92954 4.714748,-14.57286 l 0.142872,-0.28574 -6.214896,-7.57217 c -1.285841,-1.57158 -1.428712,-4.28614 -0.142872,-5.92915 l 6.714946,-9.21519 c 0.857227,-1.21441 2.428809,-1.92877 4.071828,-1.92877 0.571485,0 1.142969,0.0714 1.643018,0.28574 l 9.07232,3.57179 0.214307,-0.21431 c 3.786086,-3.50035 8.000786,-6.572079 12.429792,-9.14376 l 0.214307,-0.142871 -0.571485,-9.643804 c -0.142871,-2.071632 1.357276,-4.286135 3.357473,-4.929056 l 10.858209,-3.500344 c 0.428613,-0.142871 0.857227,-0.214306 1.357276,-0.214306 1.714452,0 3.428912,0.857227 4.286132,2.214503 l 5.14337,8.072221 h 0.28574 c 2.71455,-0.357178 5.42911,-0.500049 8.07222,-0.500049 2.50025,0 5.00049,0.142871 7.57217,0.428614 h 0.28575 l 5.07192,-8.000786 c 0.85723,-1.285841 2.571679,-2.214503 4.286139,-2.214503 0.50005,0 0.92866,0.07143 1.35727,0.214306 l 10.85821,3.500344 c 2.0002,0.642921 3.50035,2.857424 3.35748,4.929056 l -0.57149,9.358062 0.21431,0.142871 c 4.64331,2.571681 8.92945,5.714842 12.78697,9.286632 l 0.21431,0.2143 8.71514,-3.42891 c 0.50005,-0.2143 1.07153,-0.28574 1.64302,-0.28574 1.64301,0 3.2146,0.78579 4.07182,1.92877 l 6.71495,9.28662 c 1.2144,1.64302 1.14297,4.35757 -0.21431,5.92915 l -5.85772,7.14356 0.14288,0.28575 c 2.2145,4.85762 3.92895,9.92954 4.92905,15.14434 l 0.0714,0.28574 8.92944,2.35738 c 2.0002,0.50005 3.64322,2.64311 3.64322,4.71475 v 11.42969 c 0,2.07163 -1.64302,4.14326 -3.64322,4.71475 l -8.92944,2.35737 -0.0714,0.28574 c -1.0001,5.2148 -2.71455,10.28673 -4.92905,15.07291 l -0.14288,0.28575 5.85772,7.14355 c 1.28584,1.57159 1.35728,4.28614 0.14287,5.92916 l -6.71494,9.28662 c -0.85723,1.21441 -2.50025,1.92877 -4.07183,1.92877 -0.57148,0 -1.14297,-0.0714 -1.57158,-0.28575 l -8.71514,-3.42891 -0.21431,0.21431 c -3.85752,3.57178 -8.14366,6.64351 -12.78697,9.21519 l -0.21431,0.14287 0.57149,9.35807 c 0.14287,2.07163 -1.35728,4.28613 -3.35748,4.92905 l -11.14395,3.42891 c -0.42861,0.14287 -0.85722,0.21431 -1.28584,0.21431 z M 79.658721,209.36255 c 1.71445,0.21431 3.50034,0.28574 5.4291,0.28574 1.92877,0 3.92896,-0.0714 6.14347,-0.28574 l 2.92885,-0.50005 c 30.002949,-4.78618 50.504959,-33.14611 45.718779,-63.14906 -4.28614,-26.93121 -27.21696,-46.433132 -54.433919,-46.433132 -16.14444,0 -31.431658,7.072132 -41.93269,19.359052 -10.501031,12.28692 -15.072908,28.57423 -12.501227,44.5758 3.786086,23.57375 22.145032,41.93269 45.718777,45.71878 z"
   class="st1" /><path
   style="stroke-width:0.714356"
   id="path1140"
   d="m 102.94672,79.706957 c 0.21431,0 0.50005,0 0.64292,0.07144 l 10.85821,3.500344 c 1.0001,0.357178 1.92876,1.643018 1.85733,2.714552 l -0.64292,10.715338 1.42871,0.785792 c 4.50044,2.500245 8.6437,5.500537 12.35835,8.929447 l 1.21441,1.07153 9.92955,-3.92895 c 0.2143,-0.0714 0.50005,-0.14287 0.85722,-0.14287 0.92867,0 1.92876,0.42861 2.35738,1.07153 l 6.71494,9.21519 c 0.64292,0.85723 0.57149,2.50025 -0.0714,3.28604 l -6.71495,8.21509 0.71436,1.50015 c 2.14307,4.64331 3.78608,9.57237 4.78618,14.64429 l 0.28574,1.57159 10.21529,2.64311 c 1.07154,0.28574 2.0002,1.57158 2.0002,2.64312 v 11.42969 c 0,1.07154 -1.0001,2.35738 -2.0002,2.64312 l -10.21529,2.64312 -0.28574,1.57158 c -1.0001,5.00049 -2.57168,9.92955 -4.78618,14.57286 l -0.71436,1.50015 6.71495,8.21509 c 0.71435,0.85723 0.71435,2.42881 0.0714,3.28604 l -6.71494,9.28662 c -0.42862,0.64292 -1.42871,1.07154 -2.35738,1.07154 -0.28574,0 -0.57148,-0.0714 -0.85722,-0.14288 l -9.92955,-3.85752 -1.21441,1.07154 c -3.71465,3.4289 -7.92935,6.4292 -12.35835,8.92944 l -1.42871,0.7858 0.64292,10.71533 c 0.0714,1.07154 -0.85723,2.42881 -1.85733,2.71456 l -10.85821,3.57178 c -0.2143,0.0714 -0.42861,0.0714 -0.64292,0.0714 -0.92866,0 -2.00019,-0.50005 -2.42881,-1.2144 l -5.857719,-9.14376 -1.57158,0.14287 c -2.42881,0.28574 -4.92905,0.42862 -7.28643,0.42862 -2.57168,0 -5.14336,-0.14288 -7.78648,-0.50005 l -1.64302,-0.21431 -5.85772,9.21519 c -0.42861,0.71436 -1.50015,1.21441 -2.428808,1.21441 -0.214306,0 -0.500049,0 -0.64292,-0.0714 l -10.858209,-3.50034 c -1.000098,-0.35718 -1.928761,-1.64302 -1.857325,-2.71456 l 0.64292,-11.00108 -1.428712,-0.78579 c -4.286135,-2.42881 -8.357964,-5.4291 -12.001178,-8.78657 l -1.285841,-0.92867 -10.35816,4.07183 c -0.214307,0.0714 -0.500049,0.14287 -0.785792,0.14287 -0.928662,0 -1.92876,-0.42861 -2.357374,-1.07153 l -6.714945,-9.28663 c -0.64292,-0.85722 -0.571485,-2.50024 0.07144,-3.28603 l 7.072124,-8.57228 -0.642921,-1.50014 c -2.071632,-4.50044 -3.571779,-9.28663 -4.571877,-14.07281 L 22.08164,165.2868 11.294867,162.50082 C 10.223333,162.21507 9.2946701,160.92923 9.2946701,159.8577 V 148.428 c 0,-1.07154 1.0000989,-2.35738 2.0001969,-2.64312 l 10.786773,-2.78599 0.285743,-1.57158 c 1.000098,-4.85762 2.500245,-9.64381 4.571877,-14.07281 l 0.642921,-1.50015 -7.072124,-8.57227 c -0.714355,-0.85723 -0.714355,-2.42881 -0.07144,-3.28604 l 6.714945,-9.28662 c 0.428614,-0.64292 1.428712,-1.07154 2.357374,-1.07154 0.285743,0 0.571485,0.0714 0.857227,0.14287 l 10.286725,4.07183 1.214405,-1.14297 c 3.643215,-3.4289 7.715043,-6.35777 12.072614,-8.858013 l 1.428712,-0.785792 -0.64292,-11.00108 c -0.07144,-1.071534 0.857227,-2.42881 1.857325,-2.714553 l 10.858209,-3.500343 c 0.214307,-0.07144 0.428614,-0.07144 0.64292,-0.07144 1.000098,0 2.000198,0.500049 2.428808,1.214405 l 5.85772,9.215191 1.64302,-0.214307 c 2.57168,-0.285742 5.2148,-0.500049 7.78648,-0.500049 2.35738,0 4.85762,0.142871 7.28643,0.428613 l 1.64302,0.214307 5.786279,-9.143755 c 0.35718,-0.785791 1.42871,-1.285841 2.42881,-1.285841 M 85.087821,211.79136 c 2.07164,0 4.2147,-0.14287 6.42921,-0.35718 l 3.00029,-0.50005 c 31.145919,-4.92905 52.505159,-34.43195 47.504669,-65.6493 -4.42901,-27.93131 -28.21706,-48.219029 -56.576989,-48.219029 -16.787363,0 -32.646063,7.357869 -43.575708,20.073409 -10.929645,12.78697 -15.644394,29.64577 -13.001277,46.29026 3.928957,24.5024 23.002259,43.57571 47.504665,47.50466 l 3.0003,0.50005 c 1.85732,0.28575 3.78608,0.35718 5.71484,0.35718 M 102.94672,75.420818 c -2.42881,0 -4.857619,1.285841 -6.072019,3.214602 l -4.35757,6.857816 c -2.28594,-0.214307 -4.57188,-0.357178 -6.71495,-0.357178 -2.35737,0 -4.85762,0.142871 -7.28643,0.357178 l -4.42901,-6.929252 c -1.28584,-1.857325 -3.64321,-3.143166 -6.072023,-3.143166 -0.714356,0 -1.357276,0.07144 -2.000197,0.285743 l -10.858209,3.500343 c -2.857423,0.928663 -5.000491,4.071829 -4.786184,7.072123 l 0.500049,8.286529 c -4.000393,2.357374 -7.715044,5.071926 -11.143952,8.143664 l -7.857914,-3.000298 c -0.714356,-0.285743 -1.571583,-0.428614 -2.42881,-0.428614 -2.285939,0 -4.571878,1.071532 -5.786283,2.857422 l -6.714945,9.28663 c -1.78589,2.42881 -1.643018,6.2149 0.285742,8.57227 l 5.357669,6.50064 c -1.857325,4.2147 -3.214601,8.57227 -4.214699,13.07271 l -8.215093,2.14307 c -2.9288589,0.78579 -5.2147979,3.71465 -5.2147979,6.78638 v 11.42969 c 0,3.0003 2.285939,6.00059 5.2147979,6.78639 l 8.215093,2.14306 c 0.928662,4.42901 2.357374,8.78658 4.214699,13.00128 l -5.357669,6.57207 c -1.92876,2.35738 -2.000196,6.07203 -0.214306,8.57227 l 6.714945,9.2152 c 1.28584,1.78588 3.500344,2.85742 5.857718,2.85742 0.857227,0 1.643018,-0.14287 2.357374,-0.42861 l 7.857915,-3.07174 c 3.428908,3.07174 7.143559,5.78629 11.072516,8.14366 l -0.500049,8.35797 c -0.214307,3.00029 1.928761,6.14346 4.786184,7.07212 l 10.858209,3.50034 v 0 0 c 0.642921,0.21431 1.285841,0.28574 1.928761,0.28574 2.428809,0 4.857619,-1.28584 6.072029,-3.2146 l 4.42901,-6.92925 c 2.42881,0.28574 4.85762,0.35718 7.21499,0.35718 2.2145,0 4.42901,-0.14287 6.71494,-0.35718 l 4.42901,6.92925 c 1.21441,1.92876 3.571779,3.2146 6.072029,3.2146 0.64292,0 1.35727,-0.0714 1.92876,-0.28574 v 0 0 l 10.85821,-3.57178 c 2.92886,-0.92866 5.00049,-4.07183 4.78618,-7.07212 l -0.50005,-8.00079 c 4.07183,-2.35737 7.92935,-5.14336 11.4297,-8.28652 l 7.4293,2.92886 c 0.71435,0.28574 1.57158,0.42861 2.35737,0.42861 2.35737,0 4.57188,-1.07154 5.85772,-2.85742 l 6.71494,-9.28663 c 1.78589,-2.42881 1.64302,-6.2149 -0.28574,-8.57227 l -5.00049,-6.14346 c 1.92876,-4.35757 3.42891,-8.92945 4.42901,-13.57276 l 7.6436,-2.0002 c 2.92886,-0.78579 5.2148,-3.71465 5.2148,-6.78638 V 148.428 c 0,-3.0003 -2.28594,-6.00059 -5.2148,-6.78639 l -7.6436,-2.00019 c -1.0001,-4.64331 -2.50025,-9.21519 -4.42901,-13.57276 l 5.00049,-6.07203 c 1.92876,-2.35737 2.07163,-6.07202 0.28574,-8.57227 l -6.71494,-9.21519 c -1.28584,-1.78589 -3.50035,-2.857426 -5.85772,-2.857426 -0.85723,0 -1.64302,0.142871 -2.35737,0.428613 l -7.4293,2.928863 c -3.50035,-3.143169 -7.35787,-5.929157 -11.50113,-8.286532 l 0.50004,-8.000785 c 0.21431,-3.000295 -1.92876,-6.143461 -4.78618,-7.072123 l -10.85821,-3.500344 c -0.42861,-0.357178 -1.14297,-0.428614 -1.78589,-0.428614 z m -23.002259,131.798662 -2.92886,-0.50005 c -22.64508,-3.64321 -40.361106,-21.2878 -43.932885,-43.93288 -2.42881,-15.35865 1.928761,-31.00305 12.001178,-42.78992 10.072418,-11.78687 24.788147,-18.57325 40.289677,-18.57325 26.216859,0 48.219019,18.78756 52.362279,44.64724 4.57188,28.93141 -15.14434,56.14837 -43.932879,60.72025 l -2.85743,0.42861 c -2.14306,0.21431 -4.07183,0.28575 -5.85772,0.28575 -1.78588,0 -3.50034,-0.0714 -5.14336,-0.28575 z"
   class="st2" /><path
   style="stroke-width:1.04406"
   id="path1144"
   d="m 449.46244,129.68871 h 0.20881 v 15.45216 h -5.01151 v 7.09964 h 13.36402 v -34.34973 h -9.7098 l -10.02301,19.52401 h -0.10441 l -9.7098,-19.52401 h -15.45215 v 7.09964 h 5.0115 v 27.25009 h 13.36403 v -7.09964 h -5.01151 v -15.45216 h 0.20881 l 8.97896,17.95791 h 4.80269 z m -36.54226,22.5518 v -7.09964 h -4.8027 v -27.35449 h -7.09964 l -15.34774,20.67247 v -20.67247 h -13.36403 v 7.09964 h 4.8027 v 27.35449 h 7.30845 l 15.13893,-20.88129 v 20.88129 z m -40.61411,0 v -7.09964 h -4.8027 v -27.35449 h -13.36402 v 7.09964 h 4.8027 v 6.05557 h -13.88606 v -13.15521 h -13.36403 v 7.09964 h 4.8027 v 27.35449 h 13.36402 v -7.09964 h -4.80269 v -7.09964 h 13.88606 v 14.19928 z m -40.5097,0 v -7.09964 h -4.8027 v -27.35449 h -7.09964 l -15.34774,20.67247 v -20.67247 h -13.36403 v 7.09964 h 4.8027 v 27.35449 h 7.30845 l 15.13893,-20.88129 v 20.88129 z M 277.92264,137.5192 v 14.72131 h 13.57284 v -7.09964 h -5.01151 v -27.35449 h -13.15521 v 7.09964 h 4.69829 v 6.15998 c -1.98372,1.87931 -4.69829,3.02778 -6.89083,3.02778 -4.28066,0 -5.11591,-1.77491 -5.11591,-6.89082 v -9.29218 H 252.8651 v 7.09964 h 4.59388 v 5.11592 c 0,8.0393 3.44541,10.96268 10.02302,10.96268 3.2366,0 7.93489,-1.67051 10.44064,-3.54982 z m -34.76734,-2.50576 c 0,5.32473 -3.02779,10.75387 -10.02302,10.75387 -6.99524,0 -10.02302,-5.42914 -10.02302,-10.75387 0,-5.32473 3.02778,-10.75386 10.02302,-10.75386 6.99523,0 10.02302,5.42913 10.02302,10.75386 z m 8.56132,0 c 0,-10.75386 -7.93489,-17.95791 -18.47994,-17.95791 -10.54505,0 -18.47994,7.09964 -18.47994,17.95791 0,10.75387 7.93489,17.95791 18.47994,17.95791 10.54505,0 18.47994,-7.09964 18.47994,-17.95791 z M 186.567,124.88602 h 13.78165 v 27.35449 h 13.36403 v -7.09964 h -4.8027 v -27.35449 h -35.707 v 7.09964 h 4.80269 v 27.35449 h 13.36403 v -7.09964 h -4.8027 z"
   class="st3" /><path
   style="stroke-width:0.714356"
   id="path1146"
   d="m 159.66658,145.78488 -10.21529,-2.64312 -0.28574,-1.57158 c -1.0001,-5.00049 -2.57168,-9.92955 -4.78619,-14.6443 l -0.71435,-1.50014 6.71494,-8.2151 c 0.71436,-0.85722 0.71436,-2.42881 0.0714,-3.28603 l -6.71495,-9.21519 c -0.42861,-0.64292 -1.42871,-1.07154 -2.35737,-1.07154 -0.28574,0 -0.57149,0.0714 -0.85723,0.14287 l -9.85811,3.85753 -1.21441,-1.07154 c -3.78608,-3.42891 -7.92935,-6.50064 -12.35835,-8.92945 l -1.42871,-0.785792 0.64292,-10.715338 c 0.0714,-1.071533 -0.85723,-2.42881 -1.85733,-2.714552 L 103.5896,79.921264 c -0.2143,-0.214307 -0.42861,-0.214307 -0.64292,-0.214307 -0.92866,0 -2.00019,0.50005 -2.42881,1.214405 l -5.786279,9.143756 -1.64302,-0.214307 c -2.50024,-0.285743 -4.92905,-0.428614 -7.28643,-0.428614 -2.57168,0 -5.2148,0.142871 -7.78648,0.500049 l -1.64302,0.214307 -5.85772,-9.215191 c -0.42861,-0.714355 -1.50015,-1.214405 -2.428808,-1.214405 -0.214306,0 -0.500049,0 -0.64292,0.07144 l -10.858209,3.500344 c -1.000098,0.357178 -1.928761,1.643018 -1.857325,2.714552 l 0.64292,11.001081 -1.428712,0.785791 c -4.357571,2.428805 -8.357964,5.429105 -12.072614,8.858015 l -1.214405,1.14297 -10.286725,-4.07183 c -0.214306,-0.0714 -0.500049,-0.14287 -0.857227,-0.14287 -0.357178,0 -0.785791,0.0714 -1.142969,0.2143 4.571878,4.35758 9.07232,8.92945 13.501326,13.50133 l 0.07144,-0.0714 c 10.929644,-12.78697 26.788338,-20.073395 43.575708,-20.073395 28.359929,0 52.147979,20.287705 56.576979,48.219025 3.92896,24.85958 -8.71514,48.57619 -29.78864,59.72015 1.14297,1.57158 2.28594,3.07173 3.42891,4.64331 0.21431,0.28574 0.50005,0.57148 0.85723,1.0001 l 0.0714,0.0714 0.42862,-0.28574 c 4.429,-2.50025 8.57227,-5.50054 12.35835,-8.92945 l 1.21441,-1.07153 9.92955,3.85752 c 0.2143,0.0714 0.50005,0.14287 0.85722,0.14287 0.92867,0 1.92876,-0.42861 2.35738,-1.07153 l 6.71494,-9.28663 c 0.64292,-0.85723 0.57149,-2.50024 -0.0714,-3.28604 l -6.71495,-8.21509 0.71436,-1.50015 c 2.14307,-4.64331 3.78608,-9.57236 4.78618,-14.57286 l 0.28574,-1.57158 10.21529,-2.64312 c 1.07154,-0.28574 2.0002,-1.57158 2.0002,-2.64311 v -11.4297 c 0,-1.00009 -1.0001,-2.28593 -2.07163,-2.50024 z"
   class="st4" /><path
   style="stroke-width:0.714356"
   id="path1148"
   d="m 121.59141,139.64142 c -3.00029,-0.78579 -6.14346,-1.64302 -8.64371,-3.28604 l -0.14287,-0.0714 -0.0714,-0.14288 c -4.0004,-7.21499 -10.28673,-12.78697 -16.430189,-18.14463 l -0.78579,-0.71436 c -5.07193,-4.2147 -4.2147,-11.21539 -1.92876,-16.00158 2.85742,-6.286327 3.35747,-15.001469 -2.42881,-19.216168 -1.71445,-1.285841 -3.71465,-1.928761 -6.00059,-1.928761 -3.50034,0 -7.57217,1.643019 -10.57247,4.286135 -9.929546,7.92935 -10.715337,22.502214 -6.357766,32.717504 0.428613,1.07153 1.214406,2.71455 2.071636,4.14326 l 0.71435,1.14297 -1.35727,-0.0714 c -0.64293,0 -1.357281,-0.0714 -2.000201,-0.0714 -6.286332,0 -14.715731,1.35728 -19.073302,7.78648 -4.000393,5.57198 -1.714454,13.35845 2.714552,18.14464 l 0.50005,0.50005 -0.50005,0.50005 c -1.214405,1.14297 -5.143362,5.21479 -3.286037,9.92954 1.214405,2.92886 3.786087,5.14337 6.357768,7.07213 l 0.64292,0.50005 -0.64292,0.57148 c -4.85762,4.64331 -1.428712,12.14405 1.857325,15.71583 6.643509,6.85782 16.644495,10.78677 27.431265,10.78677 1.50015,0 3.0003,-0.0714 4.50045,-0.2143 h 0.14287 l 0.14287,0.0714 c 8.50083,2.78599 17.858889,4.28614 27.717009,4.42901 2.2145,-1.64302 4.28613,-3.35747 6.21489,-5.28624 -4.64331,0.14288 -9.28663,0.0714 -13.92994,-0.28574 10.14386,-10.78677 17.64459,-26.43116 13.57276,-41.50407 -0.57148,-2.28594 -1.50014,-4.50045 -2.50024,-6.64351 0.50005,0.14287 1.0001,0.28574 1.42871,0.42861 5.71485,1.50015 11.57256,2.50025 17.43028,3.14317 -0.0714,-0.92867 -0.2143,-1.85733 -0.35718,-2.78599 -0.14287,-1.07154 -0.35717,-2.14307 -0.64292,-3.2146 -4.78618,-0.21431 -9.00088,-0.71436 -12.71553,-1.57159 -1.0001,-0.14287 -2.0002,-0.42861 -3.07173,-0.71435 z M 57.9423,128.5689 c 2.714552,-1.14297 5.643411,-1.50015 8.57227,-1.64302 9.143761,0.28575 18.930431,2.85743 25.573941,9.35807 1.50015,1.50014 2.0002,2.78598 1.85733,4.00039 0.28574,3.2146 -1.42871,6.71494 -3.78609,8.85801 -10.00098,-5.64341 -22.787954,-9.71524 -33.717598,-4.28613 -2.357375,1.64301 -3.428909,-2.50025 -4.500442,-4.07183 -2.571681,-5.00049 1.000098,-10.57247 6.000589,-12.21549 z m -5.786283,27.5027 c -0.07144,-0.64292 0.285743,-1.35727 1.357277,-2.35737 3.428908,-3.85752 8.357963,-6.00059 13.572761,-6.07203 9.500936,0.14288 18.787566,4.2147 26.073996,10.14386 1.78589,1.50014 3.07173,2.35737 2.2145,3.35747 0.64292,1.92876 0.28574,3.92896 -1.85733,4.92906 -2.42881,2.28593 -5.14336,-0.92867 -7.85791,-1.0001 -8.71514,-2.21451 -18.144642,-3.50035 -26.93122,-1.50015 -2.42881,-1.35728 -6.929251,-4.42901 -6.572074,-7.50074 z m 4.500442,16.43019 c -0.357178,-0.92866 0.285743,-1.92876 2.42881,-2.78599 1.928761,-1.07153 4.000393,-1.78589 6.214896,-1.71445 9.143756,0.0714 19.073306,0.57148 26.859786,5.85771 1.14297,0.7858 1.42871,1.42872 1.28584,1.85733 0.42861,2.35737 -2.42881,5.07193 -4.64331,5.57198 -9.4295,2.64311 -19.8591,1.14296 -28.645678,-2.78599 -2.500245,-0.64292 -4.000393,-3.64322 -3.500344,-6.00059 z m 15.358652,14.93004 c 8.14366,0.64292 18.07321,1.64301 24.21667,-4.85762 3.07173,-3.14317 3.64321,-8.85802 0.35717,-12.00118 4.500449,-2.42881 5.714849,-8.4294 3.21461,-12.71554 -1.07154,-2.28594 -2.92886,-4.14326 -4.85762,-5.78628 4.50044,-4.92906 6.357759,-13.07271 1.78589,-18.57325 -4.85762,-6.28633 -13.14415,-8.4294 -20.14484,-11.00108 -6.35777,-8.50084 -8.500838,-21.50212 -2.28594,-30.288695 0.14287,-0.142871 0.21431,-0.357178 0.35718,-0.500049 0.0714,-0.07143 0.14287,-0.214307 0.21431,-0.285742 0.2143,-0.214307 0.35717,-0.500049 0.57148,-0.714356 0.0714,-0.07144 0.14287,-0.142871 0.21431,-0.214307 0.2143,-0.214307 0.35718,-0.428613 0.57148,-0.64292 0.28574,-0.285743 0.57149,-0.571485 0.92866,-0.857227 2.0002,-1.78589 4.64332,-3.428908 7.50074,-3.643215 5.14336,-0.428614 6.92925,6.214896 5.28623,10.143853 -2.00019,6.572078 -5.64341,14.215688 -1.64301,20.787758 4.85762,7.92935 14.072809,11.85831 18.644679,20.0734 4.71475,6.64351 5.0005,15.93014 -0.28574,22.21647 -1.0001,2.07163 -5.2148,3.78608 -3.35747,6.4292 1.07153,1.57158 3.85752,-1.78589 2.92886,0.92866 -1.28584,9.78668 -6.929249,20.35915 -17.287409,22.78796 -5.50054,1.07153 -11.57257,0.71435 -16.93024,-1.28584 z m 30.502999,3.07173 c -1.35728,2.2145 -3.928959,1.28584 -5.929159,0.78579 11.072519,-6.28633 15.001479,-19.57335 15.644399,-31.57453 0.78579,-3.07173 3.14316,-5.71485 3.50034,-9.00089 l 0.14287,-0.57148 0.14287,0.50005 c 5.0005,14.42999 -3.07173,30.07438 -13.50132,39.86106 z"
   class="st5" /><path
   style="stroke-width:0.714356"
   id="path1150"
   d="m 119.44834,144.49904 c 1.0001,2.14307 1.92876,4.28613 2.50025,6.64351 4.07183,15.07291 -3.42891,30.7173 -13.57276,41.50407 4.64331,0.35718 9.28662,0.42862 13.92994,0.28575 11.50113,-11.35826 17.85889,-27.57414 16.00157,-44.79012 -5.85772,-0.64292 -11.644,-1.64302 -17.43029,-3.14316 -0.42861,-0.21431 -0.92866,-0.35718 -1.42871,-0.50005 z"
   class="st5" /><path
   style="fill:url(#SVGID_1_);stroke-width:0.714356"
   id="path1157"
   d="m 119.44834,144.49904 c 1.0001,2.14307 1.92876,4.28613 2.50025,6.64351 4.07183,15.07291 -3.42891,30.7173 -13.57276,41.50407 4.64331,0.35718 9.28662,0.42862 13.92994,0.28575 11.50113,-11.35826 17.85889,-27.57414 16.00157,-44.79012 -5.85772,-0.64292 -11.644,-1.64302 -17.43029,-3.14316 -0.42861,-0.21431 -0.92866,-0.35718 -1.42871,-0.50005 z"
   class="st6" /><path
   style="stroke-width:0.714356"
   id="path1159"
   d="m 115.87656,150.14245 -0.14287,0.57148 c -0.28574,3.28604 -2.71455,6.00059 -3.50034,9.00089 -0.64292,12.00118 -4.64332,25.2882 -15.644399,31.57453 2.0002,0.50005 4.571879,1.42871 5.929159,-0.78579 10.42959,-9.85811 18.50182,-25.43107 13.50132,-39.86106 z"
   class="st7" /><path
   style="stroke-width:0.714356"
   id="path1161"
   d="m 106.23276,165.78684 c 1.0001,-2.71455 -1.85733,0.64292 -2.92886,-0.92866 -1.85733,-2.57168 2.42881,-4.35757 3.35747,-6.4292 5.28624,-6.28633 5.00049,-15.57296 0.28574,-22.21647 -4.57187,-8.21509 -13.787059,-12.14405 -18.644679,-20.0734 -4.0004,-6.57207 -0.35718,-14.21569 1.64301,-20.787759 -1.2144,4.000393 -4.57187,8.357969 -6.07202,12.644099 -1.0001,2.78599 -8.85801,1.92876 -10.35816,-1.71445 -2.0002,-4.85762 -2.28594,-9.715244 0.78579,-14.14425 -6.214898,8.78658 -4.07183,21.78786 2.28594,30.28869 7.00069,2.50025 15.28722,4.71475 20.14484,11.00108 4.571869,5.50054 2.64311,13.6442 -1.78589,18.57325 1.92876,1.64302 3.78608,3.50035 4.85762,5.78629 2.571679,4.35757 1.357269,10.28672 -3.21461,12.71553 3.35748,3.14317 2.78599,8.78658 -0.35717,12.00118 -6.07203,6.50064 -16.07301,5.57198 -24.21667,4.85762 5.35767,2.0002 11.35826,2.28594 16.93024,1.14297 10.35816,-2.35737 15.930129,-12.85841 17.287409,-22.71652 z"
   class="st7" /><path
   style="stroke-width:0.714356"
   id="path1163"
   d="m 76.301251,89.850811 c 0.28574,-0.285743 0.57148,-0.571485 0.92866,-0.857227 -0.35718,0.214307 -0.64292,0.500049 -0.92866,0.857227 z"
   class="st7" /><path
   style="stroke-width:0.714356"
   id="path1165"
   d="m 75.515461,90.708038 c 0.0714,-0.07144 0.14287,-0.142871 0.2143,-0.214307 -0.0714,0 -0.14287,0.142871 -0.2143,0.214307 z"
   class="st7" /><path
   style="stroke-width:0.714356"
   id="path1167"
   d="m 74.729661,91.708136 c 0.0714,-0.07143 0.14288,-0.214307 0.21431,-0.285742 -0.0714,0.07144 -0.14287,0.142871 -0.21431,0.285742 z"
   class="st7" /><path
   style="stroke-width:0.714356"
   id="path1169"
   d="m 56.442153,144.85622 c 10.929644,-5.42911 23.716618,-1.35728 33.717598,4.28613 2.28594,-2.14307 4.07183,-5.71485 3.78609,-8.85801 -0.21431,1.71445 -1.78589,3.28604 -3.78609,5.14336 -10.00098,-5.64341 -22.787954,-9.71524 -33.717598,-4.28613 -2.357375,1.64301 -3.428909,1.28584 -4.500442,-0.28575 1.000098,1.50015 2.143067,5.71485 4.500442,4.0004 z"
   class="st7" /><path
   style="stroke-width:0.714356"
   id="path1171"
   d="m 56.442153,141.14157 c 10.929644,-5.42911 23.716618,-1.35728 33.717598,4.28613 2.0002,-1.85732 3.57178,-3.42891 3.78609,-5.14336 0.14287,-1.21441 -0.35718,-2.50025 -1.85733,-4.00039 -6.71494,-6.50064 -16.50162,-9.07232 -25.573941,-9.35807 -2.928859,0.0714 -5.857718,0.50005 -8.57227,1.64302 -5.000491,1.64302 -8.57227,7.215 -6.000589,12.28692 1.000098,1.50015 2.143067,1.92876 4.500442,0.28575 z"
   class="st8" /><path
   style="stroke-width:0.714356"
   id="path1173"
   d="m 85.730751,165.07249 c 2.71455,0.14287 5.4291,3.35747 7.85791,1.0001 2.14307,-1.0001 2.50025,-3.0003 1.85732,-4.92906 -0.28574,0.35718 -0.92866,0.71436 -1.85732,1.14297 -2.42881,2.28594 -5.14336,-0.92866 -7.85791,-1.0001 -8.71515,-2.2145 -18.144647,-3.50034 -26.931224,-1.50015 -2.285939,-1.28584 -6.357767,-2.00019 -6.64351,-3.78608 -0.357177,3.07173 4.143264,6.14346 6.64351,7.57217 8.786577,-2.0002 18.216074,-0.71436 26.931224,1.50015 z"
   class="st7" /><path
   style="stroke-width:0.714356"
   id="path1175"
   d="m 58.799527,159.85769 c 8.786577,-2.0002 18.216074,-0.71436 26.931224,1.50015 2.71455,0.14287 5.4291,3.35747 7.85791,1.00009 0.92866,-0.42861 1.57158,-0.78579 1.85732,-1.14296 0.85723,-1.0001 -0.42861,-1.85733 -2.2145,-3.35748 -7.35786,-5.92915 -16.64449,-10.00098 -26.07399,-10.14385 -5.214798,0.0714 -10.143854,2.2145 -13.572762,6.07202 -1.071534,1.0001 -1.500147,1.71446 -1.357276,2.35738 0.214307,1.71445 4.286135,2.42881 6.572074,3.71465 z"
   class="st8" /><path
   style="stroke-width:0.714356"
   id="path1177"
   d="m 88.802481,181.28837 c 2.2145,-0.57149 5.07192,-3.28604 4.64331,-5.57198 -0.35718,0.92866 -2.71455,1.35728 -4.64331,1.78589 -9.4295,2.64312 -19.8591,1.14297 -28.645678,-2.78599 -1.857325,-0.50005 -3.143166,-1.35727 -3.500344,-2.28594 -0.500049,2.35738 1.000099,5.35767 3.500344,6.00059 8.786578,4.07183 19.216178,5.50054 28.645678,2.85743 z"
   class="st7" /><path
   style="stroke-width:0.714356"
   id="path1179"
   d="m 60.156803,174.78773 c 8.786578,3.92895 19.216178,5.4291 28.645678,2.78598 1.92876,-0.42861 4.28613,-0.85722 4.64331,-1.78588 0.14287,-0.50005 -0.14287,-1.07154 -1.28584,-1.85733 -7.78648,-5.28623 -17.71603,-5.78628 -26.859786,-5.85772 -2.214503,-0.0714 -4.286135,0.71436 -6.214896,1.71446 -2.143067,0.85722 -2.785988,1.85732 -2.42881,2.78598 0.357178,0.85723 1.643019,1.64302 3.500344,2.21451 z"
   class="st8" /><path
   style="stroke-width:0.714356"
   id="path1181"
   d="m 73.586701,106.35244 c 1.50014,3.64321 9.28662,4.57187 10.35816,1.71445 1.57158,-4.28614 4.85762,-8.715146 6.07202,-12.644103 1.64302,-3.928958 -0.0714,-10.572467 -5.28623,-10.143854 -2.85743,0.214307 -5.50054,1.857326 -7.50074,3.643215 -0.35718,0.285743 -0.64292,0.571485 -0.92866,0.857227 -0.21431,0.214307 -0.42862,0.428614 -0.57149,0.642921 -0.0714,0.07143 -0.14287,0.142871 -0.2143,0.214306 -0.21431,0.214307 -0.42862,0.500049 -0.57149,0.714356 -0.0714,0.07144 -0.14287,0.214307 -0.21431,0.285743 -0.14287,0.142871 -0.2143,0.357177 -0.35717,0.500049 -3.07174,4.500442 -2.78599,9.35806 -0.78579,14.21569 z"
   class="st8" />
<g
   id="Layer_4">
</g>
<path
   style="stroke-width:1.04406"
   sodipodi:nodetypes="ssssccsssccccscccssccccccccccssccccccccccccccccccccccccccccssccccccccccssccssssssssss"
   id="path1142"
   d="m 372.0413,183.95418 c 0,-11.79793 -6.36881,-20.35925 -18.16674,-20.35925 -10.54505,0 -18.47994,7.09963 -18.47994,17.9579 0,10.75387 7.93489,17.22707 18.47994,17.22707 h 8.66574 v -7.09964 h -7.93489 c -8.1437,0 -10.64946,-4.59388 -10.64946,-10.54505 0,-6.15998 4.17626,-10.33624 10.02302,-10.33624 5.22032,0 9.60539,3.65423 9.60539,7.51726 h -17.01825 v 5.74236 h 25.47519 z m -38.31718,14.72131 v -7.09964 h -5.01151 v -17.95791 c 0,-7.72607 -7.41286,-10.02301 -10.64946,-10.02301 -5.01151,0 -8.66573,2.08812 -12.52877,5.22032 v -4.48948 h -13.05081 v 7.09964 h 4.8027 v 27.25008 h 13.99046 v -7.09964 h -5.42913 v -16.07859 c 2.19253,-2.61016 5.42913,-4.8027 8.97895,-4.8027 3.1322,0 5.32473,1.98373 5.32473,5.01151 v 22.96942 z m -41.24055,0 v -7.09964 h -5.63795 v -27.35449 h -14.19927 v 7.09964 h 5.63795 v 27.35449 z m -6.15998,-36.85547 v -8.56133 h -8.56133 v 8.56133 z m -13.78165,36.85547 v -7.09964 h -5.63795 v -46.66968 h -14.19927 v 7.09964 h 5.63794 v 46.66968 z m -19.83722,0 v -7.09964 h -5.01151 v -17.95791 c 0,-7.72607 -7.41286,-10.02301 -10.64946,-10.02301 -5.01151,0 -8.66574,2.08812 -12.52877,5.22032 v -4.48948 h -13.15522 v 7.09964 h 4.8027 v 27.25008 h 13.99046 v -7.09964 h -5.42913 v -16.07859 c 2.19253,-2.61016 5.42913,-4.8027 8.97895,-4.8027 3.1322,0 5.32473,1.98373 5.32473,5.01151 v 22.96942 z m -50.95035,-17.22706 c 0,5.32473 -3.02779,10.75386 -10.02302,10.75386 -6.99523,0 -10.02302,-5.42913 -10.02302,-10.75386 0,-5.32473 3.02779,-10.75387 10.02302,-10.75387 6.99523,0 10.02302,5.42914 10.02302,10.75387 z m 8.56133,0 c 0,-10.75387 -7.93489,-17.95791 -18.47994,-17.95791 -10.54505,0 -18.47994,7.09964 -18.47994,17.95791 0,10.75386 7.93489,17.95791 18.47994,17.95791 10.54505,0 18.47994,-7.09964 18.47994,-17.95791 z"
   class="st1" /></svg>
