<?xml version="1.0" encoding="utf-8"?>
<!-- Generator: Adobe Illustrator 20.1.0, SVG Export Plug-In . SVG Version: 6.00 Build 0)  -->
<svg version="1.2" baseProfile="tiny" id="Layer_1" xmlns="http://www.w3.org/2000/svg" xmlns:xlink="http://www.w3.org/1999/xlink"
	 x="0px" y="0px" viewBox="0 0 266 66" xml:space="preserve">
<g>
	<path fill="#C87477" d="M54.7,32.1l1.2,3h19.5c0.8,0,1.8-0.4,2.4-0.9c0.6-0.5,1.2-1.3,1.2-2.1v-4.5c0-2.5-1-4.7-2.3-6.7
		c-1.3-2-3.2-3.5-5.5-4.7c-2.2-1.1-4.8-1.7-7.4-1.7c-2.7,0-5.2,0.6-7.5,1.8c-2.3,1.1-4.5,2.7-5.8,4.7c-1.3,2-2.4,4.3-2.4,6.8v10.5
		c0,2.5,1,4.7,2.3,6.7c1.3,1.9,3.2,3.5,5.5,4.6c2.3,1.1,4.9,1.6,7.8,1.6c2.4,0,4.7-0.4,6.8-1.2c2.1-0.8,3.8-1.9,5.1-3.2
		c1.3-1.3,2-2.7,2-4.2c0-1.2-0.5-2.1-1.5-2.8c-0.9-0.7-2.1-0.9-3.5-0.8c0,2.2-0.8,3.9-2.3,5.2c-1.5,1.3-3.7,1.9-6.6,1.9
		c-2.9,0-5-0.7-6.5-2.2C55.6,42.3,55,40.4,55,38v-3.1L54.7,32.1z M55,27.6c0-2.4,0.7-4.3,2.3-5.7c1.7-1.5,3.8-2.3,6.5-2.3
		c2.7,0,5,0.8,6.6,2.3c1.7,1.5,2.6,3.4,2.6,5.7v3.5H55V27.6z"/>
	<path fill="#C87477" d="M16.3,51.1c-1.5,0-2.8-0.3-3.8-1c-1-0.7-1.7-1.7-2.1-2.9L1.5,15c0.7-0.4,1.6-0.6,2.7-0.6
		c1,0,1.9,0.2,2.6,0.7c0.7,0.5,1.2,1.2,1.3,2.1l5.5,21.9l-0.3,4.6l0.4,0.1l7.7-27.4c0.2-0.6,0.5-1.1,1.1-1.5
		c0.5-0.4,1.2-0.6,1.9-0.6s1.4,0.2,1.9,0.6c0.5,0.4,0.9,0.9,1.1,1.5l6.3,22.9l-0.4,4.6l0.4,0.1l6.9-27c0.2-0.9,0.6-1.6,1.3-2.1
		c0.7-0.5,1.6-0.7,2.6-0.7c1.1,0,2,0.2,2.7,0.6l-9,32.2c-0.3,1.2-1,2.2-2.1,2.9c-1.1,0.7-2.4,1-3.9,1l-8.5-30.6l-0.3,0.1l0.5,3.2
		L16.3,51.1z"/>
	<path fill="#63829C" d="M138.7,19.6c0-1.6,0.5-2.8,1.4-3.7c1-0.9,2.5-1.3,4.5-1.3l0,3.2l-1.4,2.6l0.2,0.3c1.5-1.9,3.2-3.4,5.1-4.4
		c1.9-1.1,4.1-1.6,6.7-1.6c4.1,0,7.3,1.2,9.8,3.5c2.5,2.2,3.7,5.2,3.7,8.9l-0.1,12.1c0,3.7-1.3,6.7-4,8.9c-2.6,2.2-6,3.3-10.1,3.3
		c-2.2,0-4.3-0.5-6.2-1.4c-1.8-1-3.5-2.2-4.9-3.7l-0.2,0.4c0.3,0.5,0.8,1.5,1.5,2.1l-0.1,11.4c0,3.2-2.1,4.8-6.3,4.8L138.7,19.6z
		 M153.6,45.9c2.8,0,5-0.6,6.5-1.8c1.6-1.3,2.4-3,2.4-5.2l0.1-11.5c0-2.3-0.8-4.1-2.3-5.3c-1.6-1.2-3.7-1.9-6.6-1.9
		c-2.5,0-4.6,0.6-6.3,1.9c-1.7,1.3-2.6,2.9-2.6,4.8l-0.1,12.3c0,1.9,0.8,3.5,2.4,4.8C148.7,45.2,150.8,45.9,153.6,45.9z M188.5,20.3
		c-2.6,0-4.8,0.8-6.6,2.4c-1.8,1.5-2.6,3.5-2.7,5.7L179.1,47c0,1.6-0.5,2.7-1.6,3.5c-1,0.7-2.5,1-4.6,1l0.2-31.4c0-3.5,2-5.2,6-5.2
		l0,3.6c-0.8,0.8-1.3,2.2-1.6,2.8l0.3,0.3c3.1-4.5,6.8-6.7,11.4-6.7c1.7,0,3,0.4,3.9,1.3c0.9,0.8,1.3,1.8,1.3,3
		c0,0.8-0.2,1.6-0.7,2.3C192.4,20.7,190.7,20.4,188.5,20.3z M211.1,51.7c-2.9,0-5.5-0.6-7.9-1.7c-2.3-1.1-4.1-2.6-5.4-4.4
		c-1.3-1.9-1.9-4-1.9-6.3l0.1-11.6c0-2.4,0.7-4.5,2-6.4c1.3-1.9,3.2-3.5,5.5-4.6c2.3-1.1,4.9-1.7,7.9-1.7s5.5,0.6,7.9,1.7
		c2.4,1.1,4.2,2.7,5.4,4.6c1.3,1.9,2,4.1,1.9,6.5l-0.1,11.6c0,2.3-0.7,4.4-2,6.3c-1.3,1.8-3.2,3.3-5.5,4.4
		C216.7,51.2,214.1,51.7,211.1,51.7z M211.2,46.4c2.8,0,5.1-0.6,6.7-1.9c1.7-1.4,2.6-3.1,2.6-5.3l0.1-11.1c0-2.3-0.8-4.1-2.5-5.5
		c-1.6-1.4-3.9-2.1-6.7-2.2c-2.8,0-5,0.7-6.7,2.1c-1.7,1.4-2.6,3.2-2.6,5.5L201.9,39c0,2.2,0.8,3.9,2.4,5.3
		C206.1,45.7,208.3,46.4,211.2,46.4z M259.9,10c-1.3,0-2.4-0.4-3.3-1.3c-0.9-0.9-1.3-1.9-1.3-3.2c0-1.2,0.5-2.3,1.4-3.1
		c0.9-0.8,2-1.3,3.3-1.3s2.4,0.4,3.2,1.3c0.9,0.9,1.3,1.9,1.3,3.1c0,1.2-0.5,2.3-1.4,3.2C262.3,9.6,261.2,10,259.9,10z"/>
	<path fill="#63829C" d="M240,15.5l0-3.3c0-1.8,0.5-3.3,1.5-4.2c1-1,2.4-1.5,4.2-1.5c2,0,3.8,0.5,5.4,1.5c0.6-0.6,0.9-1.4,0.9-2.4
		c0-1.2-0.7-2.3-2-3.1c-1.3-0.9-2.9-1.4-4.8-1.4c-3.4,0-6.2,1-8.3,2.9c-2,2-3.1,4.6-3.1,7.9l0,3.5l-2.2,0c-2.5,0-3.7,1.6-3.7,4.9
		l5.9,0l-0.2,31.4c2.1,0,3.7-0.3,4.7-1c1-0.7,1.5-1.9,1.5-3.5l0.2-26.9l13.9,0.1l5.6-2.5l-3.3,2.7L256,52c4.1,0,6.2-1.5,6.2-4.5
		l0.2-31.9L240,15.5z"/>
	<path fill="#F3E0D9" d="M98.2,43.8c-0.4,0.1-0.7,0.2-1,0.3l-0.5,0.1c0.5,0.1,1,0.1,1.5,0.1l0,0l0,0C98.2,44.1,98.2,43.9,98.2,43.8
		 M91.1,25.6c-2.2,2-3.6,4.8-3.6,8c0,3.1,1.3,5.9,3.5,7.9l2.8-3.2c1-1.2,3.1-2.4,4.7-2.7l6.8-1.4c1.1-0.4,2.3-0.6,3.6-0.6
		c-1.7,0-3.3-0.4-4.8-1.1l-5.6-1.2c-1.5-0.3-3.6-1.5-4.7-2.7L91.1,25.6 M98.2,22.9c-0.2,0-0.5,0-0.7,0c0.2,0.1,0.5,0.1,0.7,0.2
		C98.2,23.1,98.2,23,98.2,22.9L98.2,22.9"/>
	<path fill="#D9E5F5" d="M108.7,31.9c0.1,0.6,0.1,1.1,0.1,1.7l0,0l0,0l0,0l0,0c0-0.6,0-1.2,0.1-1.7c0,0-0.1,0-0.1,0
		S108.7,31.9,108.7,31.9 M110.3,12.4l1.9,5.7c0.5,1.5,0.5,3.9,0,5.4l-1.3,3.9c1.9-2.7,5.1-4.4,8.7-4.4
		C119.5,17.5,115.5,13.1,110.3,12.4 M107.4,12.4c-5.2,0.7-9.2,5.2-9.2,10.6l0,0c3.6,0,6.7,1.7,8.7,4.4l-1.3-3.9
		c-0.5-1.5-0.5-3.9,0-5.4L107.4,12.4"/>
	<path fill="#D0CCD6" d="M98.2,22.9c0,0.1,0,0.2,0,0.3c1.3,0.5,2.8,1.5,3.6,2.4l5.2,5.8c0.9,1,0.7,1.6-0.2,1.6c-0.2,0-0.4,0-0.7-0.1
		l-2-0.4c1.4,0.7,3,1.1,4.8,1.1l0,0c0-0.6,0-1.2-0.1-1.7c-0.3-0.1-0.5-0.5-0.7-1.1l-1.1-3.4C104.9,24.7,101.7,22.9,98.2,22.9"/>
	<path fill="#ECD9EE" d="M111,40.1l1.1,3.5c0.5,1.5,0.5,3.9,0,5.4l-2,6c5.3-0.7,9.3-5.2,9.3-10.6l0,0C116,44.3,113,42.6,111,40.1
		 M106.7,40.1c-1.9,2.6-5,4.2-8.5,4.2c0,5.4,4.1,9.9,9.3,10.6l-2-6c-0.5-1.5-0.5-3.9,0-5.4L106.7,40.1 M108.8,33.6L108.8,33.6
		L108.8,33.6L108.8,33.6c0,0.5,0,1-0.1,1.5c0,0,0.1,0,0.1,0s0.1,0,0.1,0C108.9,34.6,108.8,34.1,108.8,33.6L108.8,33.6"/>
	<path fill="#E2C1CF" d="M108.8,33.6c-1.3,0-2.5,0.2-3.6,0.6l0.8-0.2c0.3-0.1,0.5-0.1,0.7-0.1c1,0,1.1,0.6,0.2,1.6l-5.2,5.8
		c-0.8,0.9-2.3,1.9-3.6,2.4c0,0.2,0,0.4,0,0.5l0,0c3.5,0,6.5-1.7,8.5-4.2l1.3-3.9c0.2-0.7,0.5-1,0.8-1.1
		C108.8,34.6,108.8,34.1,108.8,33.6L108.8,33.6L108.8,33.6"/>
	<path fill="#D8E8DA" d="M119.5,43.8c0,0.2,0,0.4,0,0.5l0,0c0.5,0,1,0,1.5-0.1l-0.5-0.1C120.2,44,119.9,43.9,119.5,43.8 M126.6,25.6
		l-2.7,3c-1,1.2-3.1,2.4-4.7,2.7l-5.6,1.2c-1.4,0.7-3,1.1-4.8,1.1l0,0c1.3,0,2.5,0.2,3.6,0.6l6.8,1.4c1.5,0.3,3.6,1.5,4.7,2.7
		l2.8,3.2c2.1-2,3.5-4.8,3.5-7.9C130.2,30.4,128.8,27.6,126.6,25.6 M119.5,22.9L119.5,22.9L119.5,22.9c0,0.1,0,0.2,0,0.3
		c0.3-0.1,0.5-0.2,0.7-0.2C120,23,119.8,22.9,119.5,22.9"/>
	<path fill="#BAD3D2" d="M119.5,22.9c-3.6,0-6.7,1.7-8.7,4.4l-1.1,3.4c-0.2,0.6-0.5,1-0.7,1.1c-0.1,0.6-0.1,1.1-0.1,1.7l0,0
		c1.7,0,3.3-0.4,4.8-1.1l-2,0.4c-0.3,0.1-0.5,0.1-0.7,0.1c-1,0-1.1-0.6-0.2-1.6l5.2-5.8c0.8-0.9,2.3-1.9,3.6-2.4
		C119.5,23.1,119.5,23,119.5,22.9L119.5,22.9"/>
	<path fill="#C9CACC" d="M108.8,33.6c0,0.5,0,1,0.1,1.5c0.3,0.1,0.6,0.4,0.8,1.1l1.3,3.9c1.9,2.6,5,4.2,8.5,4.2c0-0.2,0-0.4,0-0.5
		c-1.3-0.5-2.8-1.5-3.6-2.4l-5.2-5.8c-0.9-1-0.7-1.6,0.2-1.6c0.2,0,0.4,0,0.7,0.1l0.8,0.2C111.3,33.8,110.1,33.6,108.8,33.6"/>
	<path fill="#89A6D4" d="M108.8,9.6c-0.3,0-0.6,0.4-0.9,1.1l-0.6,1.7c0.5-0.1,1-0.1,1.4-0.1s1,0,1.4,0.1l-0.6-1.7
		C109.5,9.9,109.2,9.6,108.8,9.6"/>
	<path fill="#7B9CD0" d="M108.8,12.3c-0.5,0-1,0-1.4,0.1l-1.9,5.7c-0.5,1.5-0.5,3.9,0,5.4l1.3,3.9c1,1.3,1.6,2.9,1.9,4.5
		c0,0,0.1,0,0.1,0s0.1,0,0.1,0c0.3-1.7,0.9-3.2,1.9-4.5l1.3-3.9c0.5-1.5,0.5-3.9,0-5.4l-1.9-5.7C109.8,12.3,109.3,12.3,108.8,12.3"
		/>
	<path fill="#7893C5" d="M106.8,27.4l1.1,3.4c0.2,0.6,0.5,1,0.7,1.1C108.4,30.2,107.8,28.7,106.8,27.4"/>
	<path fill="#6F95C3" d="M110.9,27.4c-1,1.3-1.6,2.9-1.9,4.5c0.3-0.1,0.5-0.5,0.7-1.1L110.9,27.4"/>
	<path fill="#DA9CB4" d="M110.2,54.9c-0.4,0.1-0.9,0.1-1.4,0.1s-0.9,0-1.4-0.1l0.5,1.4c0.2,0.7,0.6,1.1,0.9,1.1s0.6-0.4,0.9-1.1
		L110.2,54.9"/>
	<path fill="#D38FAE" d="M108.8,35.1C108.8,35.1,108.8,35.1,108.8,35.1c-0.4,1.9-1.1,3.6-2.2,5l-1.1,3.5c-0.5,1.5-0.5,3.9,0,5.4l2,6
		c0.4,0.1,0.9,0.1,1.4,0.1s0.9,0,1.4-0.1l2-6c0.5-1.5,0.5-3.9,0-5.4l-1.1-3.5C109.9,38.6,109.2,36.9,108.8,35.1
		C108.9,35.1,108.9,35.1,108.8,35.1"/>
	<path fill="#CF85A2" d="M108.7,35.1c-0.3,0.1-0.6,0.4-0.8,1.1l-1.3,3.9C107.8,38.6,108.5,36.9,108.7,35.1"/>
	<path fill="#C688A1" d="M108.9,35.1c0.3,1.9,1,3.6,2.1,5l-1.3-3.9C109.5,35.5,109.2,35.1,108.9,35.1"/>
	<path fill="#8D8FCD" d="M88.9,21.2c-1,0-1.1,0.6-0.2,1.6l2.5,2.8c1.7-1.5,3.9-2.5,6.3-2.6c-0.1,0-0.2-0.1-0.3-0.1l-7.6-1.6
		C89.3,21.3,89.1,21.2,88.9,21.2"/>
	<path fill="#8884BE" d="M97.4,23c-2.4,0.2-4.6,1.1-6.3,2.6l2.7,3c1,1.2,3.1,2.4,4.7,2.7l5.6,1.2c-3.4-1.7-5.8-5.2-5.9-9.3
		C97.9,23.1,97.7,23,97.4,23"/>
	<path fill="#7B7CBD" d="M98.2,23.2c0.1,4.1,2.5,7.6,5.9,9.3l2,0.4c0.3,0.1,0.5,0.1,0.7,0.1c1,0,1.1-0.6,0.2-1.6l-5.2-5.8
		C101,24.7,99.5,23.7,98.2,23.2"/>
	<path fill="#A47FC1" d="M126.7,41.5c-1.5,1.4-3.5,2.4-5.7,2.7l7.1,1.5c0.3,0.1,0.5,0.1,0.7,0.1c1,0,1.1-0.6,0.2-1.6L126.7,41.5"/>
	<path fill="#9576B3" d="M112.4,34.2c4,1.4,6.9,5.1,7.1,9.5c0.4,0.1,0.7,0.2,1,0.3l0.5,0.1c2.2-0.3,4.1-1.3,5.7-2.7l-2.8-3.2
		c-1-1.2-3.1-2.4-4.7-2.7L112.4,34.2"/>
	<path fill="#906BAE" d="M110.9,34c-1,0-1.1,0.6-0.2,1.6l5.2,5.8c0.8,0.9,2.3,1.9,3.6,2.4c-0.2-4.4-3.1-8.1-7.1-9.5l-0.8-0.2
		C111.4,34,111.1,34,110.9,34"/>
	<path fill="#E7958B" d="M91,41.5l-2.3,2.6c-0.9,1-0.7,1.6,0.2,1.6c0.2,0,0.4,0,0.7-0.1l7.1-1.5C94.5,43.9,92.5,42.9,91,41.5"/>
	<path fill="#E38A7D" d="M105.3,34.2l-6.8,1.4c-1.5,0.3-3.6,1.5-4.7,2.7L91,41.5c1.5,1.4,3.5,2.4,5.7,2.7l0.5-0.1
		c0.3-0.1,0.7-0.2,1-0.3C98.4,39.4,101.3,35.6,105.3,34.2"/>
	<path fill="#DD7E78" d="M106.7,34c-0.2,0-0.4,0-0.7,0.1l-0.8,0.2c-4,1.4-6.9,5.1-7.1,9.5c1.3-0.5,2.8-1.5,3.6-2.4l5.2-5.8
		C107.8,34.6,107.7,34,106.7,34"/>
	<path fill="#87C4C5" d="M128.8,21.2c-0.2,0-0.4,0-0.7,0.1l-7.6,1.6c-0.1,0-0.2,0-0.3,0.1c2.4,0.2,4.6,1.1,6.3,2.6l2.5-2.8
		C129.9,21.9,129.8,21.2,128.8,21.2"/>
	<path fill="#79BCB8" d="M120.2,23c-0.2,0.1-0.5,0.1-0.7,0.2c-0.1,4.1-2.5,7.6-5.9,9.3l5.6-1.2c1.5-0.3,3.6-1.5,4.7-2.7l2.7-3
		C124.9,24.1,122.7,23.1,120.2,23"/>
	<path fill="#6DB3B4" d="M119.5,23.2c-1.3,0.5-2.8,1.5-3.6,2.4l-5.2,5.8c-0.9,1-0.7,1.6,0.2,1.6c0.2,0,0.4,0,0.7-0.1l2-0.4
		C117,30.8,119.4,27.3,119.5,23.2"/>
</g>
</svg>
