<?xml version="1.0" encoding="utf-8"?>
<!-- Generator: Adobe Illustrator 20.1.0, SVG Export Plug-In . SVG Version: 6.00 Build 0)  -->
<svg version="1.2" baseProfile="tiny" id="Layer_1" xmlns="http://www.w3.org/2000/svg" xmlns:xlink="http://www.w3.org/1999/xlink"
	 x="0px" y="0px" viewBox="0 0 221.3 100" xml:space="preserve">
<g>
	<path fill="#C87477" d="M144.3,24.3l1,2.1h17.9c0.7,0,1.7-0.4,2.2-0.8c0.5-0.5,1.1-1.2,1.1-1.9v-4.1c0-2.3-0.9-4.3-2.1-6.1
		c-1.2-1.8-2.9-3.2-5-4.3c-2-1-4.3-1.5-6.8-1.5c-2.5,0-4.8,0.5-6.9,1.6c-2.1,1-4.1,2.5-5.3,4.3c-1.2,1.9-2.2,3.9-2.2,6.2v9.6
		c0,2.2,0.9,4.3,2.1,6.1c1.2,1.8,2.9,3.2,5,4.2c2.1,1,4.5,1.5,7.1,1.5c2.2,0,4.3-0.4,6.2-1.1c1.9-0.7,3.5-1.7,4.7-2.9
		c1.2-1.2,1.8-2.5,1.8-3.9c0-1.1-0.4-2-1.4-2.5c-0.9-0.6-1.9-0.9-3.2-0.8c0,2-0.7,3.6-2.1,4.7c-1.4,1.2-3.4,1.7-6,1.7
		c-2.6,0-4.5-0.7-6-2c-1.4-1.3-2-3.1-2-5.3v-2.8L144.3,24.3z M144.6,19.5c0-2.2,0.6-3.9,2.1-5.2c1.5-1.4,3.4-2.1,5.9-2.1
		c2.5,0,4.6,0.7,6,2.1c1.5,1.3,2.4,3.1,2.4,5.2v3.2h-16.4V19.5z"/>
	<path fill="#C87477" d="M109.3,41c-1.4,0-2.5-0.3-3.4-0.9c-0.9-0.6-1.5-1.5-1.9-2.6L95.8,8.1c0.6-0.3,1.4-0.5,2.5-0.5
		c0.9,0,1.7,0.2,2.4,0.6c0.6,0.4,1.1,1.1,1.2,1.9l5,20l-0.3,4.2l0.3,0.1l7-25c0.2-0.6,0.5-1,1-1.4c0.5-0.3,1.1-0.5,1.7-0.5
		s1.3,0.2,1.7,0.5c0.5,0.3,0.8,0.8,1,1.4l5.8,20.9l-0.4,4.2l0.4,0.1l6.3-24.6c0.2-0.8,0.6-1.4,1.2-1.9c0.6-0.4,1.4-0.6,2.4-0.6
		c1,0,1.9,0.2,2.5,0.5l-8.2,29.4c-0.3,1.1-0.9,2-1.9,2.6c-1,0.6-2.2,0.9-3.6,0.9l-7.7-27.9l-0.3,0.1l0.4,3L109.3,41z"/>
	<path fill="#63829C" d="M99.9,50.5c0-1.4,0.4-2.5,1.3-3.3c0.9-0.8,2.3-1.2,4.1-1.2l0,2.9l-1.3,2.3l0.2,0.3c1.3-1.7,2.9-3.1,4.6-4
		c1.7-1,3.8-1.5,6.1-1.4c3.7,0,6.7,1.1,9,3.2c2.3,2,3.4,4.8,3.4,8.2l-0.1,11c0,3.4-1.2,6.1-3.6,8.1c-2.4,2-5.5,3-9.2,3
		c-2,0-3.9-0.4-5.6-1.3c-1.7-0.9-3.2-2-4.4-3.4l-0.2,0.3c0.3,0.4,0.7,1.4,1.3,1.9l-0.1,10.4c0,2.9-1.9,4.4-5.7,4.4L99.9,50.5z
		 M113.5,74.5c2.5,0,4.5-0.5,5.9-1.6c1.4-1.2,2.1-2.7,2.2-4.8l0.1-10.5c0-2.1-0.7-3.7-2.1-4.9c-1.4-1.1-3.4-1.7-6-1.7
		c-2.3,0-4.2,0.6-5.8,1.8c-1.6,1.2-2.3,2.6-2.4,4.4l-0.1,11.2c0,1.7,0.7,3.2,2.2,4.4C109,73.9,111,74.5,113.5,74.5z M145.3,51.2
		c-2.4,0-4.4,0.7-6,2.2c-1.6,1.4-2.4,3.1-2.4,5.2l-0.1,16.9c0,1.4-0.5,2.5-1.4,3.2c-0.9,0.6-2.3,1-4.2,0.9l0.2-28.7
		c0-3.2,1.8-4.8,5.5-4.7l0,3.3c-0.7,0.7-1.2,2-1.4,2.6l0.3,0.3c2.8-4.1,6.2-6.1,10.4-6.1c1.5,0,2.7,0.4,3.5,1.2
		c0.8,0.7,1.2,1.6,1.2,2.7c0,0.8-0.2,1.5-0.6,2.1C148.9,51.5,147.3,51.2,145.3,51.2z M166,79.8c-2.6,0-5-0.5-7.2-1.5
		c-2.1-1-3.8-2.3-4.9-4c-1.2-1.7-1.7-3.6-1.7-5.8l0.1-10.6c0-2.2,0.6-4.1,1.8-5.9c1.2-1.8,2.9-3.1,5-4.2c2.1-1,4.5-1.5,7.2-1.5
		c2.7,0,5.1,0.5,7.2,1.6c2.1,1,3.8,2.5,4.9,4.2c1.2,1.8,1.8,3.7,1.8,5.9L180,68.6c0,2.1-0.6,4-1.8,5.7c-1.2,1.7-2.9,3-5,4
		C171,79.3,168.6,79.8,166,79.8z M166,74.9c2.6,0,4.6-0.6,6.1-1.8c1.6-1.2,2.3-2.8,2.4-4.8l0.1-10.1c0-2.1-0.8-3.7-2.3-5
		c-1.5-1.3-3.5-2-6.1-2c-2.5,0-4.6,0.6-6.1,1.9s-2.3,3-2.4,5l-0.1,10.1c0,2,0.7,3.6,2.2,4.9C161.4,74.3,163.4,74.9,166,74.9z
		 M210.4,41.8c-1.2,0-2.2-0.4-3-1.2c-0.8-0.8-1.2-1.8-1.2-2.9c0-1.1,0.4-2.1,1.2-2.8c0.8-0.8,1.8-1.2,3-1.1c1.2,0,2.2,0.4,3,1.2
		c0.8,0.8,1.2,1.7,1.2,2.8c0,1.1-0.4,2.1-1.2,2.9C212.6,41.4,211.6,41.8,210.4,41.8z"/>
	<path fill="#63829C" d="M192.3,46.8l0-3c0-1.7,0.5-3,1.4-3.9c0.9-0.9,2.2-1.3,3.8-1.3c1.8,0,3.5,0.5,5,1.3c0.6-0.6,0.8-1.3,0.9-2.2
		c0-1.1-0.6-2.1-1.9-2.9c-1.2-0.8-2.7-1.2-4.4-1.3c-3.1,0-5.7,0.9-7.6,2.7c-1.9,1.8-2.8,4.2-2.8,7.2l0,3.2l-2,0
		c-2.2,0-3.4,1.5-3.4,4.5l5.4,0l-0.2,28.7c1.9,0,3.4-0.3,4.3-0.9c0.9-0.7,1.4-1.7,1.4-3.2l0.2-24.5l12.7,0.1l5.1-2.3l-3,2.4
		l-0.2,28.5c3.7,0,5.6-1.3,5.6-4.1l0.2-29L192.3,46.8z"/>
</g>
<path fill="#F3E0D9" d="M29.7,67.9c-0.7,0.3-1.3,0.5-1.9,0.6L27,68.6c0.9,0.1,1.8,0.2,2.8,0.2l0,0l0,0
	C29.7,68.5,29.7,68.2,29.7,67.9 M16.9,35c-4,3.5-6.5,8.7-6.5,14.5c0,5.7,2.4,10.8,6.3,14.3l5.1-5.8c1.9-2.1,5.7-4.3,8.4-4.9
	l12.3-2.6c2-0.7,4.2-1.1,6.5-1.1c-3.1,0-6-0.7-8.6-2l-10.2-2.1c-2.8-0.6-6.6-2.8-8.4-4.9L16.9,35 M29.7,30.2c-0.4,0-0.9,0-1.3,0
	c0.4,0.1,0.9,0.3,1.3,0.4C29.7,30.5,29.7,30.3,29.7,30.2L29.7,30.2"/>
<path fill="#D9E5F5" d="M48.8,46.4c0.2,1,0.3,2.1,0.3,3.1l0,0l0,0l0,0l0,0c0-1.1,0.1-2.1,0.3-3.1c-0.1,0-0.2,0-0.3,0
	C49,46.4,48.9,46.4,48.8,46.4 M51.7,11l3.4,10.3c0.9,2.7,0.9,7.1,0,9.7l-2.4,7.1c3.5-4.9,9.2-8,15.7-8C68.4,20.4,61.1,12.3,51.7,11
	 M46.4,11c-9.4,1.3-16.7,9.4-16.7,19.2l0,0c6.5,0,12.2,3.2,15.7,8L43,31c-0.9-2.7-0.9-7.1,0-9.7L46.4,11"/>
<path fill="#D0CCD6" d="M29.7,30.2c0,0.2,0,0.3,0,0.5c2.4,0.9,5.1,2.6,6.6,4.3l9.4,10.5c1.6,1.8,1.3,2.9-0.4,2.9
	c-0.3,0-0.7,0-1.2-0.1l-3.6-0.7c2.6,1.3,5.5,2,8.6,2l0,0c0-1.1-0.1-2.1-0.3-3.1c-0.5-0.2-1-0.8-1.4-2l-2.1-6.2
	C41.9,33.3,36.2,30.2,29.7,30.2"/>
<path fill="#ECD9EE" d="M53,61.2l2.1,6.3c0.9,2.7,0.9,7.1,0,9.7L51.5,88c9.5-1.2,16.9-9.3,16.9-19.2l0,0
	C62.1,68.8,56.5,65.8,53,61.2 M45.1,61.2c-3.5,4.6-9.1,7.6-15.4,7.6c0,9.8,7.4,18,16.9,19.2L43,77.2c-0.9-2.7-0.9-7.1,0-9.7
	L45.1,61.2 M49.1,49.5L49.1,49.5L49.1,49.5L49.1,49.5c0,0.9-0.1,1.8-0.2,2.6c0.1,0,0.1,0,0.2,0c0.1,0,0.1,0,0.2,0
	C49.1,51.3,49.1,50.4,49.1,49.5L49.1,49.5"/>
<path fill="#E2C1CF" d="M49.1,49.5c-2.3,0-4.5,0.4-6.5,1.1l1.5-0.3c0.5-0.1,0.9-0.1,1.2-0.1c1.7,0,2,1.2,0.4,2.9l-9.4,10.5
	c-1.5,1.7-4.1,3.4-6.5,4.3c0,0.3,0,0.6,0,1l0,0c6.3,0,11.9-3,15.4-7.6l2.3-7.1c0.4-1.2,0.9-1.9,1.4-2C49,51.3,49.1,50.4,49.1,49.5
	L49.1,49.5L49.1,49.5"/>
<path fill="#D8E8DA" d="M68.4,67.9c0,0.3,0,0.6,0,1l0,0c0.9,0,1.9-0.1,2.8-0.2l-0.9-0.2C69.7,68.3,69,68.1,68.4,67.9 M81.2,35
	l-4.9,5.5c-1.9,2.1-5.7,4.3-8.4,4.9l-10.2,2.1c-2.6,1.3-5.5,2-8.6,2l0,0c2.3,0,4.5,0.4,6.5,1.1l12.3,2.6c2.8,0.6,6.6,2.8,8.4,4.9
	l5.1,5.8c3.9-3.5,6.3-8.6,6.3-14.3C87.7,43.7,85.2,38.5,81.2,35 M68.4,30.2L68.4,30.2L68.4,30.2c0,0.2,0,0.3,0,0.5
	c0.5-0.2,0.9-0.3,1.3-0.4C69.3,30.2,68.8,30.2,68.4,30.2"/>
<path fill="#BAD3D2" d="M68.4,30.2c-6.5,0-12.2,3.2-15.7,8l-2.1,6.2c-0.4,1.1-0.9,1.8-1.4,2c-0.2,1-0.3,2.1-0.3,3.1l0,0
	c3.1,0,6-0.7,8.6-2l-3.6,0.7c-0.5,0.1-0.9,0.1-1.2,0.1c-1.7,0-2-1.2-0.4-2.9l9.4-10.5c1.5-1.7,4.1-3.4,6.6-4.3
	C68.4,30.5,68.4,30.3,68.4,30.2L68.4,30.2"/>
<path fill="#C9CACC" d="M49.1,49.5c0,0.9,0.1,1.8,0.2,2.6c0.5,0.1,1,0.8,1.4,2l2.3,7.1c3.5,4.6,9.1,7.6,15.4,7.6c0-0.3,0-0.6,0-1
	c-2.4-0.9-5.1-2.6-6.5-4.3l-9.4-10.5c-1.6-1.8-1.3-2.9,0.4-2.9c0.3,0,0.7,0,1.2,0.1l1.5,0.3C53.5,49.9,51.3,49.5,49.1,49.5"/>
<path fill="#89A6D4" d="M49.1,5.9c-0.6,0-1.2,0.7-1.6,2l-1,3.1c0.9-0.1,1.7-0.2,2.6-0.2s1.8,0.1,2.6,0.2l-1-3.1
	C50.2,6.6,49.6,5.9,49.1,5.9"/>
<path fill="#7B9CD0" d="M49.1,10.8c-0.9,0-1.8,0.1-2.6,0.2L43,21.3c-0.9,2.7-0.9,7.1,0,9.7l2.4,7.1c1.7,2.4,2.9,5.2,3.4,8.2
	c0.1,0,0.2,0,0.3,0c0.1,0,0.2,0,0.3,0c0.5-3,1.7-5.8,3.4-8.2l2.4-7.1c0.9-2.7,0.9-7.1,0-9.7L51.7,11C50.8,10.9,49.9,10.8,49.1,10.8"
	/>
<path fill="#7893C5" d="M45.4,38.2l2.1,6.2c0.4,1.1,0.9,1.8,1.4,2C48.3,43.4,47.1,40.6,45.4,38.2"/>
<path fill="#6F95C3" d="M52.7,38.2c-1.7,2.4-2.9,5.2-3.4,8.2c0.5-0.2,1-0.8,1.4-2L52.7,38.2"/>
<path fill="#DA9CB4" d="M51.5,88c-0.8,0.1-1.6,0.2-2.5,0.2s-1.6-0.1-2.5-0.2l0.8,2.6c0.4,1.3,1,2,1.6,2c0.6,0,1.2-0.7,1.6-2L51.5,88
	"/>
<path fill="#D38FAE" d="M49.1,52.1c-0.1,0-0.1,0-0.2,0c-0.5,3.4-1.8,6.5-3.8,9L43,67.5c-0.9,2.7-0.9,7.1,0,9.7L46.6,88
	c0.8,0.1,1.6,0.2,2.5,0.2s1.6-0.1,2.5-0.2l3.6-10.8c0.9-2.7,0.9-7.1,0-9.7L53,61.2c-2-2.6-3.3-5.7-3.8-9
	C49.2,52.1,49.1,52.1,49.1,52.1"/>
<path fill="#CF85A2" d="M48.9,52.2c-0.5,0.1-1,0.8-1.4,2l-2.3,7.1C47.1,58.6,48.4,55.5,48.9,52.2"/>
<path fill="#C688A1" d="M49.2,52.2c0.5,3.4,1.8,6.5,3.8,9l-2.3-7.1C50.3,52.9,49.8,52.3,49.2,52.2"/>
<path fill="#8D8FCD" d="M12.9,27.1c-1.7,0-2,1.2-0.4,2.9l4.5,5c3.1-2.7,7.1-4.5,11.5-4.8c-0.2,0-0.4-0.1-0.5-0.1l-13.8-2.9
	C13.6,27.1,13.2,27.1,12.9,27.1"/>
<path fill="#8884BE" d="M28.4,30.2C24,30.5,20,32.3,16.9,35l4.9,5.5c1.9,2.1,5.7,4.3,8.4,4.9l10.2,2.1c-6.2-3.1-10.5-9.5-10.7-16.8
	C29.3,30.5,28.8,30.3,28.4,30.2"/>
<path fill="#7B7CBD" d="M29.7,30.7c0.2,7.4,4.5,13.7,10.7,16.8l3.6,0.7c0.5,0.1,0.9,0.1,1.2,0.1c1.7,0,2-1.2,0.4-2.9l-9.4-10.5
	C34.8,33.3,32.1,31.6,29.7,30.7"/>
<path fill="#A47FC1" d="M81.4,63.8c-2.8,2.5-6.3,4.3-10.3,4.8L84,71.3c0.5,0.1,0.9,0.1,1.2,0.1c1.7,0,2-1.2,0.4-2.9L81.4,63.8"/>
<path fill="#9576B3" d="M55.5,50.6c7.2,2.6,12.4,9.3,12.8,17.3c0.7,0.3,1.3,0.5,1.9,0.6l0.9,0.2c3.9-0.6,7.5-2.3,10.3-4.8L76.3,58
	c-1.9-2.1-5.7-4.3-8.4-4.9L55.5,50.6"/>
<path fill="#906BAE" d="M52.9,50.2c-1.7,0-2,1.2-0.4,2.9l9.4,10.5c1.5,1.7,4.1,3.4,6.5,4.3c-0.4-8-5.6-14.7-12.8-17.3l-1.5-0.3
	C53.6,50.2,53.2,50.2,52.9,50.2"/>
<path fill="#E7958B" d="M16.7,63.8l-4.2,4.7c-1.6,1.8-1.3,2.9,0.4,2.9c0.3,0,0.7,0,1.2-0.1L27,68.6C23,68.1,19.5,66.4,16.7,63.8"/>
<path fill="#E38A7D" d="M42.6,50.6l-12.3,2.6c-2.8,0.6-6.6,2.8-8.4,4.9l-5.1,5.8c2.8,2.5,6.3,4.3,10.3,4.8l0.9-0.2
	c0.6-0.1,1.2-0.3,1.9-0.6C30.1,59.9,35.4,53.2,42.6,50.6"/>
<path fill="#DD7E78" d="M45.2,50.2c-0.3,0-0.7,0-1.2,0.1l-1.5,0.3c-7.2,2.6-12.4,9.3-12.8,17.3c2.4-0.9,5.1-2.6,6.5-4.3l9.4-10.5
	C47.2,51.3,47,50.2,45.2,50.2"/>
<path fill="#87C4C5" d="M85.2,27.1c-0.3,0-0.7,0-1.2,0.1l-13.8,2.9c-0.2,0-0.4,0.1-0.5,0.1c4.4,0.3,8.4,2.1,11.5,4.8l4.5-5
	C87.2,28.2,87,27.1,85.2,27.1"/>
<path fill="#79BCB8" d="M69.7,30.2c-0.4,0.1-0.9,0.3-1.3,0.4c-0.2,7.4-4.5,13.7-10.7,16.8l10.2-2.1c2.8-0.6,6.6-2.8,8.4-4.9l4.9-5.5
	C78.1,32.3,74.1,30.5,69.7,30.2"/>
<path fill="#6DB3B4" d="M68.4,30.7c-2.4,0.9-5.1,2.6-6.6,4.3l-9.4,10.5c-1.6,1.8-1.3,2.9,0.4,2.9c0.3,0,0.7,0,1.2-0.1l3.6-0.7
	C63.9,44.4,68.2,38,68.4,30.7"/>
</svg>
