<svg width="214" height="60" viewBox="0 0 214 60" fill="none" xmlns="http://www.w3.org/2000/svg">
<path d="M58.144 38.324C57.376 38.324 56.74 38.156 56.236 37.82C55.732 37.46 55.384 36.968 55.192 36.344L50.62 19.964C50.956 19.772 51.412 19.676 51.988 19.676C52.516 19.676 52.96 19.796 53.32 20.036C53.68 20.276 53.908 20.624 54.004 21.08L57.028 33.032L56.668 34.58L56.848 34.652L60.772 20.72C60.868 20.408 61.048 20.156 61.312 19.964C61.576 19.772 61.9 19.676 62.284 19.676C62.668 19.676 62.992 19.772 63.256 19.964C63.52 20.156 63.7 20.408 63.796 20.72L67.216 33.176L66.784 34.724L67 34.796L70.528 21.08C70.624 20.624 70.852 20.276 71.212 20.036C71.572 19.796 72.016 19.676 72.544 19.676C73.12 19.676 73.576 19.772 73.912 19.964L69.34 36.344C69.172 36.968 68.812 37.46 68.26 37.82C67.708 38.156 67.048 38.324 66.28 38.324L61.96 22.772L61.816 22.808L62.176 24.14L58.144 38.324ZM82.2235 38.324C80.7595 38.324 79.4515 38.048 78.2995 37.496C77.1475 36.92 76.2475 36.14 75.5995 35.156C74.9515 34.148 74.6275 33.02 74.6275 31.772V26.444C74.6275 25.172 74.9635 24.02 75.6355 22.988C76.3315 21.956 77.2555 21.152 78.4075 20.576C79.5835 19.976 80.8555 19.676 82.2235 19.676C83.5915 19.676 84.8395 19.964 85.9675 20.54C87.1195 21.116 88.0195 21.908 88.6675 22.916C89.3395 23.924 89.6755 25.064 89.6755 26.336V28.64C89.6755 29.024 89.5315 29.348 89.2435 29.612C88.9555 29.876 88.6075 30.008 88.1995 30.008H77.6875V31.628C77.6875 32.852 78.0715 33.836 78.8395 34.58C79.6315 35.324 80.7595 35.696 82.2235 35.696C83.6875 35.696 84.8035 35.372 85.5715 34.724C86.3395 34.076 86.7235 33.2 86.7235 32.096C87.4435 32.048 88.0435 32.192 88.5235 32.528C89.0275 32.84 89.2795 33.308 89.2795 33.932C89.2795 34.7 88.9435 35.42 88.2715 36.092C87.6235 36.764 86.7595 37.304 85.6795 37.712C84.5995 38.12 83.4475 38.324 82.2235 38.324ZM86.7595 27.56V26.336C86.7595 25.136 86.3395 24.164 85.4995 23.42C84.6835 22.652 83.5915 22.268 82.2235 22.268C80.8555 22.268 79.7515 22.652 78.9115 23.42C78.0955 24.164 77.6875 25.136 77.6875 26.336V27.56H86.7595Z" fill="#C88C7F"/>
<path d="M93.52 22.232C93.52 21.44 93.76 20.816 94.24 20.36C94.744 19.904 95.5 19.676 96.508 19.676V21.692L95.788 22.628L95.896 22.772C96.64 21.812 97.492 21.056 98.452 20.504C99.412 19.952 100.552 19.676 101.872 19.676C103.936 19.676 105.604 20.252 106.876 21.404C108.148 22.532 108.784 24.044 108.784 25.94V32.096C108.784 33.992 108.124 35.504 106.804 36.632C105.484 37.76 103.768 38.324 101.656 38.324C100.528 38.324 99.484 38.096 98.524 37.64C97.588 37.16 96.76 36.536 96.04 35.768L95.932 35.948C96.1 36.188 96.352 36.452 96.688 36.74V43.076C96.688 44.708 95.632 45.524 93.52 45.524V22.232ZM101.188 35.552C102.604 35.552 103.708 35.24 104.5 34.616C105.292 33.968 105.688 33.08 105.688 31.952V26.084C105.688 24.908 105.292 24.008 104.5 23.384C103.708 22.76 102.592 22.448 101.152 22.448C99.88 22.448 98.812 22.784 97.948 23.456C97.084 24.104 96.652 24.92 96.652 25.904V32.132C96.652 33.092 97.06 33.908 97.876 34.58C98.692 35.228 99.796 35.552 101.188 35.552ZM120.546 22.448C119.202 22.448 118.086 22.856 117.198 23.672C116.31 24.464 115.866 25.436 115.866 26.588V36.02C115.866 36.812 115.602 37.4 115.074 37.784C114.57 38.144 113.79 38.324 112.734 38.324V22.34C112.734 20.564 113.742 19.676 115.758 19.676V21.872C115.374 22.28 115.11 22.64 114.966 22.952L115.11 23.096C116.646 20.816 118.566 19.676 120.87 19.676C121.734 19.676 122.394 19.892 122.85 20.324C123.306 20.732 123.534 21.236 123.534 21.836C123.534 22.268 123.426 22.652 123.21 22.988C122.538 22.628 121.65 22.448 120.546 22.448ZM131.088 38.324C129.624 38.324 128.292 38.048 127.092 37.496C125.916 36.944 124.992 36.2 124.32 35.264C123.672 34.304 123.348 33.236 123.348 32.06V26.156C123.348 24.956 123.672 23.864 124.32 22.88C124.992 21.896 125.916 21.116 127.092 20.54C128.268 19.964 129.6 19.676 131.088 19.676C132.576 19.676 133.908 19.964 135.084 20.54C136.284 21.116 137.208 21.896 137.856 22.88C138.528 23.864 138.864 24.956 138.864 26.156V32.06C138.864 33.236 138.528 34.304 137.856 35.264C137.184 36.2 136.26 36.944 135.084 37.496C133.908 38.048 132.576 38.324 131.088 38.324ZM131.088 35.624C132.528 35.624 133.668 35.288 134.508 34.616C135.372 33.92 135.804 33.02 135.804 31.916V26.264C135.804 25.112 135.372 24.176 134.508 23.456C133.668 22.736 132.528 22.376 131.088 22.376C129.672 22.376 128.532 22.736 127.668 23.456C126.804 24.176 126.372 25.112 126.372 26.264V31.916C126.372 33.02 126.792 33.92 127.632 34.616C128.496 35.288 129.648 35.624 131.088 35.624ZM144.029 22.34H141.041C141.041 20.66 141.665 19.82 142.913 19.82H144.029V18.02C144.029 16.34 144.545 14.996 145.577 13.988C146.633 12.98 148.037 12.476 149.789 12.476C150.749 12.476 151.565 12.704 152.237 13.16C152.933 13.592 153.281 14.12 153.281 14.744C153.281 15.248 153.125 15.656 152.813 15.968C151.973 15.488 151.049 15.248 150.041 15.248C149.129 15.248 148.421 15.5 147.917 16.004C147.413 16.508 147.161 17.228 147.161 18.164V19.82H158.537V36.02C158.537 37.556 157.493 38.324 155.405 38.324V22.34H147.161V36.02C147.161 36.812 146.909 37.4 146.405 37.784C145.901 38.144 145.109 38.324 144.029 38.324V22.34ZM156.989 16.976C156.317 16.976 155.753 16.76 155.297 16.328C154.841 15.896 154.613 15.356 154.613 14.708C154.613 14.084 154.841 13.556 155.297 13.124C155.753 12.692 156.317 12.476 156.989 12.476C157.661 12.476 158.213 12.692 158.645 13.124C159.101 13.556 159.329 14.084 159.329 14.708C159.329 15.332 159.101 15.872 158.645 16.328C158.213 16.76 157.661 16.976 156.989 16.976Z" fill="#68828D"/>
<path d="M70.0233 40.821L70.1673 40.965L70.0233 40.821Z" fill="#D2D2D2"/>
<path d="M70.1673 40.821L70.3113 40.965L70.1673 40.821Z" fill="#6E6E6E"/>
<path d="M70.3113 40.821L70.4553 40.965L70.3113 40.821Z" fill="#2B2B2B"/>
<path d="M70.4553 40.821L70.5992 40.965L70.4553 40.821Z" fill="#0B0B0B"/>
<path d="M69.7354 40.965L69.5914 41.2529L69.7354 40.965Z" fill="#F8F8F8"/>
<path d="M69.8794 40.965L70.0233 41.1089L69.8794 40.965Z" fill="#696969"/>
<path d="M70.0233 40.965L70.1673 41.1089L70.0233 40.965Z" fill="#020202"/>
<path d="M69.7354 41.1089L69.8794 41.2529L69.7354 41.1089Z" fill="#414141"/>
<path d="M69.5914 41.2529L69.7354 41.3969L69.5914 41.2529Z" fill="#686868"/>
<path d="M69.4475 41.3969L69.5914 41.5408L69.4475 41.3969Z" fill="#D2D2D2"/>
<path d="M69.5914 41.3969L69.7354 41.5408L69.5914 41.3969Z" fill="#020202"/>
<path d="M69.4475 41.5409L69.5914 41.6848L69.4475 41.5409Z" fill="#6F6F6F"/>
<path d="M69.4475 41.6848L69.5914 41.8288L69.4475 41.6848Z" fill="#2A2A2A"/>
<path d="M69.4475 41.8288L69.5914 41.9728L69.4475 41.8288Z" fill="#0D0D0D"/>
<path d="M69.4475 58.0973L69.5914 58.2412L69.4475 58.0973Z" fill="#0D0D0D"/>
<path d="M69.4475 58.2412L69.5914 58.3852L69.4475 58.2412Z" fill="#2A2A2A"/>
<path d="M69.4475 58.3852L69.5914 58.5292L69.4475 58.3852Z" fill="#6F6F6F"/>
<path d="M69.4475 58.5292L69.5914 58.6731L69.4475 58.5292Z" fill="#D3D3D3"/>
<path d="M69.5914 58.5292L69.7354 58.6731L69.5914 58.5292Z" fill="#030303"/>
<path d="M69.5914 58.6732L69.7354 58.8171L69.5914 58.6732Z" fill="#6B6B6B"/>
<path d="M69.5914 58.8171L69.8794 59.1051L69.5914 58.8171Z" fill="#F9F9F9"/>
<path d="M69.7354 58.8171L69.8794 58.9611L69.7354 58.8171Z" fill="#434343"/>
<path d="M69.8794 58.9611L70.0233 59.1051L69.8794 58.9611Z" fill="#6C6C6C"/>
<path d="M70.0233 58.9611L70.1673 59.1051L70.0233 58.9611Z" fill="#030303"/>
<path d="M70.0233 59.1051L70.1673 59.249L70.0233 59.1051Z" fill="#D4D4D4"/>
<path d="M70.1673 59.1051L70.3113 59.249L70.1673 59.1051Z" fill="#717171"/>
<path d="M70.3113 59.1051L70.4553 59.249L70.3113 59.1051Z" fill="#2C2C2C"/>
<path d="M70.4553 59.1051L70.5992 59.249L70.4553 59.1051Z" fill="#0C0C0C"/>
<circle cx="22.5" cy="28" r="22.5" fill="#D0E2E9"/>
<path d="M27.8517 19.1719C25.1588 19.2787 25.4183 23.2109 28.1093 23.0916C30.6419 22.9792 30.3737 19.0719 27.8517 19.1719Z" fill="#0E5168"/>
<path d="M27.6377 20.335C26.5904 20.6598 27.1483 22.2556 28.2002 21.9293C29.2476 21.6045 28.6897 20.0087 27.6377 20.335Z" fill="white"/>
<path d="M16.1413 13.1266C14.5714 14.4991 13.8288 16.7147 14.8867 18.6593C15.3867 19.5783 16.3084 20.1713 16.6925 21.153C16.9706 21.8633 16.8427 22.7411 16.8427 23.4907H18.0895C18.0895 22.8815 17.9158 21.9582 18.1473 21.3902C18.3198 20.9668 18.9212 20.879 19.2006 21.2486C19.5614 21.7261 19.3363 22.9135 19.3363 23.4907H20.5831C20.5831 22.7411 20.4553 21.8633 20.7333 21.153C21.1174 20.1713 22.0391 19.5783 22.5391 18.6593C23.5243 16.8483 22.9829 14.2378 21.2065 13.1266C21.2065 14.1746 21.539 15.8919 21.1487 16.8639C20.9972 17.2413 20.5138 17.4587 20.1935 17.6722C19.793 17.9393 19.284 18.4288 18.7908 18.4825C18.1867 18.5483 16.6945 17.4912 16.355 17.0085C15.6677 16.0312 16.5969 14.2122 16.1413 13.1266Z" fill="#959E93"/>
<path d="M27.2956 16.0098C27.2956 16.6876 27.3975 18.8336 26.0488 18.1775C25.5983 17.9583 25.2298 17.4507 24.8799 17.1008H24.8019L24.0227 17.88V17.958C24.3726 18.3079 24.8803 18.6764 25.0994 19.1268C25.7555 20.4756 23.6095 20.3737 22.9317 20.3737V21.6205C23.6319 21.6205 25.5983 21.4617 25.1325 22.7894C25.0405 23.0518 24.8029 23.2653 24.6461 23.4907H27.2956V23.4128C24.3549 22.714 25.1691 18.4299 28.0748 18.5046C30.8715 18.5765 31.2273 22.7747 28.5424 23.4128V23.4907H31.1919C31.0351 23.2653 30.7975 23.0518 30.7055 22.7894C30.2397 21.4617 32.2061 21.6205 32.9063 21.6205V20.3737C32.2285 20.3737 30.0825 20.4756 30.7386 19.1268C30.9577 18.6764 31.4653 18.3079 31.8153 17.958V17.88L31.036 17.1008H30.9581C30.6081 17.4507 30.2396 17.9583 29.7892 18.1775C28.4405 18.8336 28.5424 16.6876 28.5424 16.0098H27.2956Z" fill="#68828D"/>
<path d="M15.4508 21.5426L15.5287 21.6205L15.4508 21.5426ZM16.6197 21.5426L16.6976 21.6205L16.6197 21.5426Z" fill="#0D0D0D"/>
<path d="M12.6226 27.4631H19.2463C19.8271 27.4631 21.2092 27.7189 21.6903 27.383C21.9695 27.188 22.1183 26.6679 22.2662 26.3721C22.6919 25.5207 23.2685 24.6381 23.5322 23.7227H16.9085C16.3277 23.7227 14.9456 23.4668 14.4645 23.8028C14.1853 23.9977 14.0364 24.5179 13.8886 24.8136C13.4629 25.665 12.8863 26.5476 12.6226 27.4631Z" fill="#D39578"/>
<path d="M24.0903 23.7227C24.354 24.6381 24.9307 25.5207 25.3564 26.3721C25.5042 26.6679 25.6531 27.188 25.9323 27.383C26.4134 27.7189 27.7955 27.4631 28.3763 27.4631H35C34.7363 26.5476 34.1596 25.665 33.7339 24.8136C33.5861 24.5179 33.4373 23.9977 33.1581 23.8028C32.6769 23.4668 31.2948 23.7227 30.7141 23.7227H24.0903Z" fill="#D39578"/>
<path d="M23.3129 24.7544C23.0125 25.476 22.5317 26.9587 21.8937 27.424C21.4163 27.7721 20.2974 27.5597 19.7283 27.5597H14.0397V34.8069L15.9879 34.4983L19.1828 34.1588L23.3908 35.2829V28.2611C23.3908 27.2691 23.6953 25.6657 23.3129 24.7544ZM24.0964 24.7544V33.4821V35.742C24.0964 35.9931 24.018 35.3361 24.1765 35.5506C24.4341 35.8992 24.9133 35.8862 25.5936 36.2539C26.2739 36.6217 26.635 36.7455 27.1122 36.829C27.453 36.8886 28.0834 37.0886 28.3639 36.9288C29.4464 37.3026 30.1725 36.4242 31.1098 35.8862C31.6637 35.5682 33.127 35.0489 33.4005 34.4648C33.6328 33.9686 33.4475 33.0137 33.4475 32.4691V27.5597H27.7589C27.1898 27.5597 26.071 27.7721 25.5936 27.424C24.8303 26.8674 24.6956 25.4775 24.0964 24.7544Z" fill="#EBD2A2"/>
<path d="M13.3436 34.6639V41.7004H16.05V34.6639H13.3436Z" fill="#68828D"/>
<path d="M28.6247 37.7046C28.7798 38.6173 27.9171 39.4211 26.9967 39.5292C26.496 39.588 25.9569 39.3752 25.481 39.2513C24.5862 39.0185 23.6859 38.7954 22.7864 38.5788C22.2694 38.4543 20.9754 38.3517 20.7202 37.8613C20.3169 37.0864 21.6937 37.3864 22.0005 37.4612C23.5281 37.8337 25.15 38.4613 26.716 38.6342C27.4324 38.7134 27.9569 37.9633 27.5584 37.3913C27.1448 36.7976 25.6159 36.6662 24.9196 36.5022C23.7929 36.2368 22.675 35.9371 21.5514 35.6605C20.9912 35.5226 20.395 35.2943 19.8111 35.2875C19.3015 35.2814 18.7853 35.4543 18.2954 35.5689C17.8942 35.6628 17.0652 35.7048 16.7573 35.9666C16.547 36.1454 16.6673 36.7747 16.6673 37.0212C16.6673 38.0412 16.4907 39.2185 16.6757 40.2223C16.732 40.5284 17.3523 40.7021 17.6217 40.8133C18.6972 41.2573 20.0654 41.0689 21.2145 41.0689C22.6963 41.0689 24.4895 41.3241 25.9301 40.9763C26.6115 40.8119 27.2348 40.3639 27.8388 40.0397C29.0202 39.4055 30.1941 39.2235 31.3747 38.5881C32.1233 38.1853 31.476 38.524 32.2205 38.1145C32.6084 37.9012 33.0119 37.6901 33.0499 37.2215C33.106 36.5292 32.293 36.2367 31.7152 36.4999C30.1686 37.2044 30.1823 37.0228 28.6247 37.7046Z" fill="#D39578"/>
<path d="M10.5547 35.2052V40.6179H13.2611V35.2052H10.5547Z" fill="#959E93"/>
</svg>
