<?xml version="1.0" encoding="utf-8"?>
<!-- Generator: Adobe Illustrator 20.1.0, SVG Export Plug-In . SVG Version: 6.00 Build 0)  -->
<svg version="1.2" baseProfile="tiny" id="Layer_1" xmlns="http://www.w3.org/2000/svg" xmlns:xlink="http://www.w3.org/1999/xlink"
	 x="0px" y="0px" viewBox="0 0 266 80" xml:space="preserve">
<g>
	<path fill="#C87477" d="M54.7,33l1.2,3h19.5c0.8,0,1.8-0.4,2.4-0.9c0.6-0.5,1.2-1.3,1.2-2.1v-4.5c0-2.5-1-4.7-2.3-6.7
		c-1.3-2-3.2-3.5-5.5-4.7c-2.2-1.1-4.8-1.7-7.4-1.7c-2.7,0-5.2,0.6-7.5,1.8c-2.3,1.1-4.5,2.7-5.8,4.7c-1.3,2-2.4,4.3-2.4,6.8v10.5
		c0,2.5,1,4.7,2.3,6.7c1.3,1.9,3.2,3.5,5.5,4.6c2.3,1.1,4.9,1.6,7.8,1.6c2.4,0,4.7-0.4,6.8-1.2c2.1-0.8,3.8-1.9,5.1-3.2
		c1.3-1.3,2-2.7,2-4.2c0-1.2-0.5-2.1-1.5-2.8c-0.9-0.7-2.1-0.9-3.5-0.8c0,2.2-0.8,3.9-2.3,5.2c-1.5,1.3-3.7,1.9-6.6,1.9
		c-2.9,0-5-0.7-6.5-2.2c-1.5-1.5-2.1-3.4-2.1-5.8v-3.1L54.7,33z M55,28.5c0-2.4,0.7-4.3,2.3-5.7c1.7-1.5,3.8-2.3,6.5-2.3
		c2.7,0,5,0.8,6.6,2.3c1.7,1.5,2.6,3.4,2.6,5.7V32H55V28.5z"/>
	<path fill="#C87477" d="M16.3,52.1c-1.5,0-2.8-0.3-3.8-1c-1-0.7-1.7-1.7-2.1-2.9l-9-32.2c0.7-0.4,1.6-0.6,2.7-0.6
		c1,0,1.9,0.2,2.6,0.7c0.7,0.5,1.2,1.2,1.3,2.1l5.5,21.9l-0.3,4.6l0.4,0.1l7.7-27.4c0.2-0.6,0.5-1.1,1.1-1.5
		c0.5-0.4,1.2-0.6,1.9-0.6s1.4,0.2,1.9,0.6c0.5,0.4,0.9,0.9,1.1,1.5l6.3,22.9L33.3,45l0.4,0.1l6.9-27c0.2-0.9,0.6-1.6,1.3-2.1
		c0.7-0.5,1.6-0.7,2.6-0.7c1.1,0,2,0.2,2.7,0.6l-9,32.2c-0.3,1.2-1,2.2-2.1,2.9c-1.1,0.7-2.4,1-3.9,1l-8.5-30.6l-0.3,0.1l0.5,3.2
		L16.3,52.1z"/>
	<path fill="#63829C" d="M138.7,20.5c0-1.6,0.5-2.8,1.4-3.7c1-0.9,2.5-1.3,4.5-1.3l0,3.2l-1.4,2.6l0.2,0.3c1.5-1.9,3.2-3.4,5.1-4.4
		c1.9-1.1,4.1-1.6,6.7-1.6c4.1,0,7.3,1.2,9.8,3.5c2.5,2.2,3.7,5.2,3.7,8.9l-0.1,12.1c0,3.7-1.3,6.7-4,8.9c-2.6,2.2-6,3.3-10.1,3.3
		c-2.2,0-4.3-0.5-6.2-1.4c-1.8-1-3.5-2.2-4.9-3.7l-0.2,0.4c0.3,0.5,0.8,1.5,1.5,2.1l-0.1,11.4c0,3.2-2.1,4.8-6.3,4.8L138.7,20.5z
		 M153.6,46.8c2.8,0,5-0.6,6.5-1.8c1.6-1.3,2.4-3,2.4-5.2l0.1-11.5c0-2.3-0.8-4.1-2.3-5.3c-1.6-1.2-3.7-1.9-6.6-1.9
		c-2.5,0-4.6,0.6-6.3,1.9c-1.7,1.3-2.6,2.9-2.6,4.8L144.7,40c0,1.9,0.8,3.5,2.4,4.8C148.7,46.2,150.8,46.8,153.6,46.8z M188.5,21.3
		c-2.6,0-4.8,0.8-6.6,2.4c-1.8,1.5-2.6,3.5-2.7,5.7l-0.1,18.6c0,1.6-0.5,2.7-1.6,3.5c-1,0.7-2.5,1-4.6,1l0.2-31.4c0-3.5,2-5.2,6-5.2
		l0,3.6c-0.8,0.8-1.3,2.2-1.6,2.8l0.3,0.3c3.1-4.5,6.8-6.7,11.4-6.7c1.7,0,3,0.4,3.9,1.3c0.9,0.8,1.3,1.8,1.3,3
		c0,0.8-0.2,1.6-0.7,2.3C192.4,21.6,190.7,21.3,188.5,21.3z M211.1,52.6c-2.9,0-5.5-0.6-7.9-1.7c-2.3-1.1-4.1-2.6-5.4-4.4
		c-1.3-1.9-1.9-4-1.9-6.3l0.1-11.6c0-2.4,0.7-4.5,2-6.4c1.3-1.9,3.2-3.5,5.5-4.6c2.3-1.1,4.9-1.7,7.9-1.7s5.5,0.6,7.9,1.7
		c2.4,1.1,4.2,2.7,5.4,4.6c1.3,1.9,2,4.1,1.9,6.5l-0.1,11.6c0,2.3-0.7,4.4-2,6.3c-1.3,1.8-3.2,3.3-5.5,4.4
		C216.7,52.1,214.1,52.7,211.1,52.6z M211.2,47.3c2.8,0,5.1-0.6,6.7-1.9c1.7-1.4,2.6-3.1,2.6-5.3l0.1-11.1c0-2.3-0.8-4.1-2.5-5.5
		c-1.6-1.4-3.9-2.1-6.7-2.2c-2.8,0-5,0.7-6.7,2.1c-1.7,1.4-2.6,3.2-2.6,5.5L201.9,40c0,2.2,0.8,3.9,2.4,5.3
		C206.1,46.6,208.3,47.3,211.2,47.3z M259.9,10.9c-1.3,0-2.4-0.4-3.3-1.3c-0.9-0.9-1.3-1.9-1.3-3.2c0-1.2,0.5-2.3,1.4-3.1
		c0.9-0.8,2-1.3,3.3-1.3s2.4,0.4,3.2,1.3c0.9,0.9,1.3,1.9,1.3,3.1c0,1.2-0.5,2.3-1.4,3.2C262.3,10.5,261.2,11,259.9,10.9z"/>
	<path fill="#63829C" d="M240,16.4l0-3.3c0-1.8,0.5-3.3,1.5-4.2c1-1,2.4-1.5,4.2-1.5c2,0,3.8,0.5,5.4,1.5c0.6-0.6,0.9-1.4,0.9-2.4
		c0-1.2-0.7-2.3-2-3.1c-1.3-0.9-2.9-1.4-4.8-1.4c-3.4,0-6.2,1-8.3,2.9c-2,2-3.1,4.6-3.1,7.9l0,3.5l-2.2,0c-2.5,0-3.7,1.6-3.7,4.9
		l5.9,0l-0.2,31.4c2.1,0,3.7-0.3,4.7-1c1-0.7,1.5-1.9,1.5-3.5l0.2-26.9l13.9,0.1l5.6-2.5l-3.3,2.7L256,52.9c4.1,0,6.2-1.5,6.2-4.5
		l0.2-31.9L240,16.4z"/>
	<path fill="#F3E0D9" d="M98.2,44.7c-0.4,0.1-0.7,0.2-1,0.3l-0.5,0.1c0.5,0.1,1,0.1,1.5,0.1l0,0l0,0C98.2,45,98.2,44.9,98.2,44.7
		 M91.1,26.5c-2.2,2-3.6,4.8-3.6,8c0,3.1,1.3,5.9,3.5,7.9l2.8-3.2c1-1.2,3.1-2.4,4.7-2.7l6.8-1.4c1.1-0.4,2.3-0.6,3.6-0.6
		c-1.7,0-3.3-0.4-4.8-1.1l-5.6-1.2c-1.5-0.3-3.6-1.5-4.7-2.7L91.1,26.5 M98.2,23.9c-0.2,0-0.5,0-0.7,0c0.2,0.1,0.5,0.1,0.7,0.2
		C98.2,24,98.2,24,98.2,23.9L98.2,23.9"/>
	<path fill="#D9E5F5" d="M108.7,32.8c0.1,0.6,0.1,1.1,0.1,1.7l0,0l0,0l0,0l0,0c0-0.6,0-1.2,0.1-1.7c0,0-0.1,0-0.1,0
		S108.7,32.8,108.7,32.8 M110.3,13.3l1.9,5.7c0.5,1.5,0.5,3.9,0,5.4l-1.3,3.9c1.9-2.7,5.1-4.4,8.7-4.4
		C119.5,18.5,115.5,14,110.3,13.3 M107.4,13.3c-5.2,0.7-9.2,5.2-9.2,10.6l0,0c3.6,0,6.7,1.7,8.7,4.4l-1.3-3.9
		c-0.5-1.5-0.5-3.9,0-5.4L107.4,13.3"/>
	<path fill="#D0CCD6" d="M98.2,23.9c0,0.1,0,0.2,0,0.3c1.3,0.5,2.8,1.5,3.6,2.4l5.2,5.8c0.9,1,0.7,1.6-0.2,1.6c-0.2,0-0.4,0-0.7-0.1
		l-2-0.4c1.4,0.7,3,1.1,4.8,1.1l0,0c0-0.6,0-1.2-0.1-1.7c-0.3-0.1-0.5-0.5-0.7-1.1l-1.1-3.4C104.9,25.6,101.7,23.9,98.2,23.9"/>
	<path fill="#ECD9EE" d="M111,41l1.1,3.5c0.5,1.5,0.5,3.9,0,5.4l-2,6c5.3-0.7,9.3-5.2,9.3-10.6l0,0C116,45.2,113,43.6,111,41
		 M106.7,41c-1.9,2.6-5,4.2-8.5,4.2c0,5.4,4.1,9.9,9.3,10.6l-2-6c-0.5-1.5-0.5-3.9,0-5.4L106.7,41 M108.8,34.5L108.8,34.5
		L108.8,34.5L108.8,34.5c0,0.5,0,1-0.1,1.5c0,0,0.1,0,0.1,0s0.1,0,0.1,0C108.9,35.5,108.8,35,108.8,34.5L108.8,34.5"/>
	<path fill="#E2C1CF" d="M108.8,34.5c-1.3,0-2.5,0.2-3.6,0.6l0.8-0.2c0.3-0.1,0.5-0.1,0.7-0.1c1,0,1.1,0.6,0.2,1.6l-5.2,5.8
		c-0.8,0.9-2.3,1.9-3.6,2.4c0,0.2,0,0.4,0,0.5l0,0c3.5,0,6.5-1.7,8.5-4.2l1.3-3.9c0.2-0.7,0.5-1,0.8-1.1
		C108.8,35.5,108.8,35,108.8,34.5L108.8,34.5L108.8,34.5"/>
	<path fill="#D8E8DA" d="M119.5,44.7c0,0.2,0,0.4,0,0.5l0,0c0.5,0,1,0,1.5-0.1l-0.5-0.1C120.2,44.9,119.9,44.8,119.5,44.7
		 M126.6,26.5l-2.7,3c-1,1.2-3.1,2.4-4.7,2.7l-5.6,1.2c-1.4,0.7-3,1.1-4.8,1.1l0,0c1.3,0,2.5,0.2,3.6,0.6l6.8,1.4
		c1.5,0.3,3.6,1.5,4.7,2.7l2.8,3.2c2.1-2,3.5-4.8,3.5-7.9C130.2,31.3,128.8,28.5,126.6,26.5 M119.5,23.9L119.5,23.9L119.5,23.9
		c0,0.1,0,0.2,0,0.3c0.3-0.1,0.5-0.2,0.7-0.2C120,23.9,119.8,23.9,119.5,23.9"/>
	<path fill="#BAD3D2" d="M119.5,23.9c-3.6,0-6.7,1.7-8.7,4.4l-1.1,3.4c-0.2,0.6-0.5,1-0.7,1.1c-0.1,0.6-0.1,1.1-0.1,1.7l0,0
		c1.7,0,3.3-0.4,4.8-1.1l-2,0.4c-0.3,0.1-0.5,0.1-0.7,0.1c-1,0-1.1-0.6-0.2-1.6l5.2-5.8c0.8-0.9,2.3-1.9,3.6-2.4
		C119.5,24,119.5,24,119.5,23.9L119.5,23.9"/>
	<path fill="#C9CACC" d="M108.8,34.5c0,0.5,0,1,0.1,1.5c0.3,0.1,0.6,0.4,0.8,1.1L111,41c1.9,2.6,5,4.2,8.5,4.2c0-0.2,0-0.4,0-0.5
		c-1.3-0.5-2.8-1.5-3.6-2.4l-5.2-5.8c-0.9-1-0.7-1.6,0.2-1.6c0.2,0,0.4,0,0.7,0.1l0.8,0.2C111.3,34.8,110.1,34.5,108.8,34.5"/>
	<path fill="#89A6D4" d="M108.8,10.5c-0.3,0-0.6,0.4-0.9,1.1l-0.6,1.7c0.5-0.1,1-0.1,1.4-0.1s1,0,1.4,0.1l-0.6-1.7
		C109.5,10.9,109.2,10.5,108.8,10.5"/>
	<path fill="#7B9CD0" d="M108.8,13.2c-0.5,0-1,0-1.4,0.1l-1.9,5.7c-0.5,1.5-0.5,3.9,0,5.4l1.3,3.9c1,1.3,1.6,2.9,1.9,4.5
		c0,0,0.1,0,0.1,0s0.1,0,0.1,0c0.3-1.7,0.9-3.2,1.9-4.5l1.3-3.9c0.5-1.5,0.5-3.9,0-5.4l-1.9-5.7C109.8,13.2,109.3,13.2,108.8,13.2"
		/>
	<path fill="#7893C5" d="M106.8,28.3l1.1,3.4c0.2,0.6,0.5,1,0.7,1.1C108.4,31.1,107.8,29.6,106.8,28.3"/>
	<path fill="#6F95C3" d="M110.9,28.3c-1,1.3-1.6,2.9-1.9,4.5c0.3-0.1,0.5-0.5,0.7-1.1L110.9,28.3"/>
	<path fill="#DA9CB4" d="M110.2,55.8c-0.4,0.1-0.9,0.1-1.4,0.1s-0.9,0-1.4-0.1l0.5,1.4c0.2,0.7,0.6,1.1,0.9,1.1s0.6-0.4,0.9-1.1
		L110.2,55.8"/>
	<path fill="#D38FAE" d="M108.8,36C108.8,36,108.8,36,108.8,36c-0.4,1.9-1.1,3.6-2.2,5l-1.1,3.5c-0.5,1.5-0.5,3.9,0,5.4l2,6
		c0.4,0.1,0.9,0.1,1.4,0.1s0.9,0,1.4-0.1l2-6c0.5-1.5,0.5-3.9,0-5.4L111,41C109.9,39.6,109.2,37.9,108.8,36
		C108.9,36,108.9,36,108.8,36"/>
	<path fill="#CF85A2" d="M108.7,36c-0.3,0.1-0.6,0.4-0.8,1.1l-1.3,3.9C107.8,39.6,108.5,37.9,108.7,36"/>
	<path fill="#C688A1" d="M108.9,36c0.3,1.9,1,3.6,2.1,5l-1.3-3.9C109.5,36.4,109.2,36.1,108.9,36"/>
	<path fill="#8D8FCD" d="M88.9,22.2c-1,0-1.1,0.6-0.2,1.6l2.5,2.8c1.7-1.5,3.9-2.5,6.3-2.6c-0.1,0-0.2-0.1-0.3-0.1l-7.6-1.6
		C89.3,22.2,89.1,22.2,88.9,22.2"/>
	<path fill="#8884BE" d="M97.4,23.9c-2.4,0.2-4.6,1.1-6.3,2.6l2.7,3c1,1.2,3.1,2.4,4.7,2.7l5.6,1.2c-3.4-1.7-5.8-5.2-5.9-9.3
		C97.9,24,97.7,24,97.4,23.9"/>
	<path fill="#7B7CBD" d="M98.2,24.1c0.1,4.1,2.5,7.6,5.9,9.3l2,0.4c0.3,0.1,0.5,0.1,0.7,0.1c1,0,1.1-0.6,0.2-1.6l-5.2-5.8
		C101,25.6,99.5,24.6,98.2,24.1"/>
	<path fill="#A47FC1" d="M126.7,42.4c-1.5,1.4-3.5,2.4-5.7,2.7l7.1,1.5c0.3,0.1,0.5,0.1,0.7,0.1c1,0,1.1-0.6,0.2-1.6L126.7,42.4"/>
	<path fill="#9576B3" d="M112.4,35.2c4,1.4,6.9,5.1,7.1,9.5c0.4,0.1,0.7,0.2,1,0.3l0.5,0.1c2.2-0.3,4.1-1.3,5.7-2.7l-2.8-3.2
		c-1-1.2-3.1-2.4-4.7-2.7L112.4,35.2"/>
	<path fill="#906BAE" d="M110.9,34.9c-1,0-1.1,0.6-0.2,1.6l5.2,5.8c0.8,0.9,2.3,1.9,3.6,2.4c-0.2-4.4-3.1-8.1-7.1-9.5l-0.8-0.2
		C111.4,34.9,111.1,34.9,110.9,34.9"/>
	<path fill="#E7958B" d="M91,42.4L88.6,45c-0.9,1-0.7,1.6,0.2,1.6c0.2,0,0.4,0,0.7-0.1l7.1-1.5C94.5,44.8,92.5,43.8,91,42.4"/>
	<path fill="#E38A7D" d="M105.3,35.2l-6.8,1.4c-1.5,0.3-3.6,1.5-4.7,2.7L91,42.4c1.5,1.4,3.5,2.4,5.7,2.7l0.5-0.1
		c0.3-0.1,0.7-0.2,1-0.3C98.4,40.3,101.3,36.6,105.3,35.2"/>
	<path fill="#DD7E78" d="M106.7,34.9c-0.2,0-0.4,0-0.7,0.1l-0.8,0.2c-4,1.4-6.9,5.1-7.1,9.5c1.3-0.5,2.8-1.5,3.6-2.4l5.2-5.8
		C107.8,35.5,107.7,34.9,106.7,34.9"/>
	<path fill="#87C4C5" d="M128.8,22.2c-0.2,0-0.4,0-0.7,0.1l-7.6,1.6c-0.1,0-0.2,0-0.3,0.1c2.4,0.2,4.6,1.1,6.3,2.6l2.5-2.8
		C129.9,22.8,129.8,22.2,128.8,22.2"/>
	<path fill="#79BCB8" d="M120.2,23.9c-0.2,0.1-0.5,0.1-0.7,0.2c-0.1,4.1-2.5,7.6-5.9,9.3l5.6-1.2c1.5-0.3,3.6-1.5,4.7-2.7l2.7-3
		C124.9,25,122.7,24.1,120.2,23.9"/>
	<path fill="#6DB3B4" d="M119.5,24.1c-1.3,0.5-2.8,1.5-3.6,2.4l-5.2,5.8c-0.9,1-0.7,1.6,0.2,1.6c0.2,0,0.4,0,0.7-0.1l2-0.4
		C117,31.7,119.4,28.2,119.5,24.1"/>
	<path fill="#68809C" d="M15.1,77.6c-0.6,0-1.2-0.1-1.7-0.4c-0.5-0.3-0.8-0.7-1.1-1.2c-0.3-0.5-0.4-1.1-0.4-1.8c0-1,0.3-1.9,0.8-2.5
		c0.6-0.6,1.3-0.9,2.3-0.9c0.4,0,0.8,0.1,1.2,0.2c0.4,0.2,0.7,0.4,1,0.6L17,72.3c-0.3-0.3-0.6-0.5-0.9-0.6c-0.3-0.1-0.6-0.2-0.9-0.2
		c-0.7,0-1.3,0.2-1.7,0.7c-0.4,0.5-0.6,1.1-0.6,2c0,0.9,0.2,1.5,0.6,2c0.4,0.5,1,0.7,1.7,0.7c0.3,0,0.6-0.1,0.9-0.2
		c0.3-0.1,0.6-0.3,0.9-0.6l0.3,0.6c-0.3,0.3-0.6,0.5-1,0.6C15.9,77.6,15.5,77.6,15.1,77.6z"/>
	<path fill="#68809C" d="M24.2,77.6c-0.6,0-1.2-0.1-1.6-0.4c-0.5-0.3-0.8-0.7-1.1-1.2c-0.3-0.5-0.4-1.1-0.4-1.8
		c0-0.7,0.1-1.3,0.4-1.8c0.3-0.5,0.6-0.9,1.1-1.2c0.5-0.3,1-0.4,1.6-0.4c0.6,0,1.2,0.1,1.6,0.4c0.5,0.3,0.8,0.7,1.1,1.2
		c0.3,0.5,0.4,1.1,0.4,1.8c0,0.7-0.1,1.3-0.4,1.8c-0.3,0.5-0.6,0.9-1.1,1.2C25.4,77.5,24.8,77.6,24.2,77.6z M24.2,76.9
		c0.7,0,1.2-0.2,1.6-0.7s0.6-1.2,0.6-2c0-0.9-0.2-1.5-0.6-2c-0.4-0.5-0.9-0.7-1.6-0.7c-0.7,0-1.2,0.2-1.6,0.7
		c-0.4,0.5-0.6,1.1-0.6,2c0,0.9,0.2,1.5,0.6,2C23,76.7,23.5,76.9,24.2,76.9z"/>
	<path fill="#68809C" d="M34.5,77.6c-0.6,0-1.2-0.1-1.6-0.4c-0.5-0.3-0.8-0.7-1.1-1.2c-0.3-0.5-0.4-1.1-0.4-1.8
		c0-0.7,0.1-1.3,0.4-1.8c0.3-0.5,0.6-0.9,1.1-1.2c0.5-0.3,1-0.4,1.6-0.4c0.6,0,1.2,0.1,1.6,0.4c0.5,0.3,0.8,0.7,1.1,1.2
		c0.3,0.5,0.4,1.1,0.4,1.8c0,0.7-0.1,1.3-0.4,1.8c-0.3,0.5-0.6,0.9-1.1,1.2C35.7,77.5,35.1,77.6,34.5,77.6z M34.5,76.9
		c0.7,0,1.2-0.2,1.6-0.7s0.6-1.2,0.6-2c0-0.9-0.2-1.5-0.6-2c-0.4-0.5-0.9-0.7-1.6-0.7c-0.7,0-1.2,0.2-1.6,0.7
		c-0.4,0.5-0.6,1.1-0.6,2c0,0.9,0.2,1.5,0.6,2C33.3,76.7,33.8,76.9,34.5,76.9z"/>
	<path fill="#68809C" d="M44.9,77.6c-0.9,0-1.7-0.3-2.3-1c-0.6-0.6-0.8-1.6-0.8-2.8v-1c0-0.9,0.1-1.6,0.3-2.2c0.2-0.6,0.6-1.1,1-1.4
		c0.4-0.4,1-0.6,1.7-0.8l2.4-0.7l0.3,0.7l-2.6,0.7c-0.8,0.2-1.3,0.6-1.7,1.1c-0.4,0.5-0.6,1.2-0.6,2v0c0.2-0.5,0.5-0.8,1-1.1
		c0.4-0.3,0.9-0.4,1.5-0.4c0.6,0,1.1,0.1,1.5,0.4c0.4,0.3,0.8,0.7,1,1.2c0.2,0.5,0.4,1.1,0.4,1.8s-0.1,1.3-0.4,1.8
		c-0.3,0.5-0.6,0.9-1.1,1.2C46,77.5,45.5,77.6,44.9,77.6z M44.8,76.9c0.7,0,1.2-0.2,1.6-0.7c0.4-0.5,0.6-1.1,0.6-2
		c0-0.8-0.2-1.5-0.6-2c-0.4-0.5-0.9-0.7-1.6-0.7c-0.7,0-1.2,0.2-1.6,0.7c-0.4,0.5-0.6,1.1-0.6,1.9c0,0.9,0.2,1.6,0.6,2.1
		C43.6,76.7,44.1,76.9,44.8,76.9z"/>
	<polygon fill="#68809C" points="61.3,79.3 61.3,77.5 52.5,77.5 52.5,70.9 53.4,70.9 53.4,76.9 56.3,76.9 56.3,70.9 57.2,70.9 
		57.2,76.9 60.2,76.9 60.2,70.9 61,70.9 61,76.9 62,76.9 62,79.3 	"/>
	<path fill="#68809C" d="M69.2,77.6c-1,0-1.8-0.3-2.4-0.9c-0.6-0.6-0.9-1.4-0.9-2.5c0-0.7,0.1-1.3,0.4-1.8c0.3-0.5,0.6-0.9,1.1-1.2
		c0.5-0.3,1-0.4,1.6-0.4c0.9,0,1.6,0.3,2.1,0.9c0.5,0.6,0.7,1.4,0.7,2.4v0.4h-5.1c0,0.8,0.3,1.5,0.7,1.9c0.4,0.4,1,0.7,1.8,0.7
		c0.4,0,0.8-0.1,1.2-0.2c0.4-0.1,0.7-0.3,1.1-0.6l0.3,0.6c-0.3,0.3-0.7,0.5-1.1,0.7S69.7,77.6,69.2,77.6z M69,71.4
		c-0.7,0-1.2,0.2-1.6,0.6c-0.4,0.4-0.6,1-0.7,1.7h4.3c0-0.7-0.2-1.3-0.5-1.7S69.7,71.4,69,71.4z"/>
	<path fill="#68809C" d="M79.1,77.6c-0.6,0-1.2-0.1-1.7-0.4c-0.5-0.3-0.8-0.7-1.1-1.2c-0.3-0.5-0.4-1.1-0.4-1.8c0-1,0.3-1.9,0.8-2.5
		c0.6-0.6,1.3-0.9,2.3-0.9c0.4,0,0.8,0.1,1.2,0.2c0.4,0.2,0.7,0.4,1,0.6l-0.3,0.6c-0.3-0.3-0.6-0.5-0.9-0.6
		c-0.3-0.1-0.6-0.2-0.9-0.2c-0.7,0-1.3,0.2-1.7,0.7c-0.4,0.5-0.6,1.1-0.6,2c0,0.9,0.2,1.5,0.6,2c0.4,0.5,1,0.7,1.7,0.7
		c0.3,0,0.6-0.1,0.9-0.2c0.3-0.1,0.6-0.3,0.9-0.6l0.3,0.6c-0.3,0.3-0.6,0.5-1,0.6C79.9,77.6,79.5,77.6,79.1,77.6z"/>
	<polygon fill="#68809C" points="86.9,77.5 86.9,71.6 84.4,71.6 84.4,70.9 90.2,70.9 90.2,71.6 87.7,71.6 87.7,77.5 	"/>
	<path fill="#68809C" d="M94.1,77.5v-6.6h3.1c1.5,0,2.2,0.6,2.2,1.8c0,0.3-0.1,0.6-0.3,0.9c-0.2,0.3-0.5,0.4-0.8,0.6
		c0.4,0.1,0.7,0.3,1,0.6c0.2,0.3,0.4,0.6,0.4,1c0,0.6-0.2,1-0.6,1.3c-0.4,0.3-1,0.5-1.7,0.5H94.1z M94.9,73.9h2.3
		c0.4,0,0.8-0.1,1-0.3c0.3-0.2,0.4-0.5,0.4-0.9c0-0.4-0.1-0.7-0.4-0.9s-0.6-0.3-1-0.3h-2.3V73.9z M94.9,76.9h2.4
		c0.5,0,0.9-0.1,1.1-0.3c0.3-0.2,0.4-0.5,0.4-0.9c0-0.4-0.1-0.7-0.4-0.9c-0.3-0.2-0.6-0.3-1.1-0.3h-2.4V76.9z"/>
	<path fill="#68809C" d="M106.8,77.6c-0.6,0-1.2-0.1-1.6-0.4c-0.5-0.3-0.8-0.7-1.1-1.2c-0.3-0.5-0.4-1.1-0.4-1.8
		c0-0.7,0.1-1.3,0.4-1.8c0.3-0.5,0.6-0.9,1.1-1.2c0.5-0.3,1-0.4,1.6-0.4c0.6,0,1.2,0.1,1.6,0.4c0.5,0.3,0.8,0.7,1.1,1.2
		c0.3,0.5,0.4,1.1,0.4,1.8c0,0.7-0.1,1.3-0.4,1.8c-0.3,0.5-0.6,0.9-1.1,1.2C108,77.5,107.5,77.6,106.8,77.6z M106.8,76.9
		c0.7,0,1.2-0.2,1.6-0.7s0.6-1.2,0.6-2c0-0.9-0.2-1.5-0.6-2c-0.4-0.5-0.9-0.7-1.6-0.7c-0.7,0-1.2,0.2-1.6,0.7
		c-0.4,0.5-0.6,1.1-0.6,2c0,0.9,0.2,1.5,0.6,2C105.6,76.7,106.2,76.9,106.8,76.9z"/>
	<polygon fill="#68809C" points="120.7,77.5 120.7,70.9 126.3,70.9 126.3,77.5 125.4,77.5 125.4,71.6 121.5,71.6 121.5,77.5 	"/>
	<path fill="#68809C" d="M131.3,80v-9.1h0.8v1.2c0.2-0.4,0.5-0.8,0.9-1c0.4-0.2,0.9-0.4,1.4-0.4c0.6,0,1.1,0.1,1.6,0.4
		c0.4,0.3,0.8,0.7,1,1.2c0.2,0.5,0.4,1.1,0.4,1.8s-0.1,1.3-0.4,1.8c-0.2,0.5-0.6,0.9-1,1.2c-0.4,0.3-1,0.4-1.6,0.4
		c-0.5,0-1-0.1-1.4-0.4c-0.4-0.2-0.7-0.6-0.9-1V80H131.3z M134.3,76.9c0.7,0,1.2-0.2,1.6-0.7s0.6-1.2,0.6-2c0-0.9-0.2-1.5-0.6-2
		c-0.4-0.5-0.9-0.7-1.6-0.7c-0.7,0-1.2,0.2-1.6,0.7c-0.4,0.5-0.6,1.1-0.6,2c0,0.9,0.2,1.5,0.6,2S133.7,76.9,134.3,76.9z"/>
	<path fill="#68809C" d="M144.6,77.6c-0.6,0-1.2-0.1-1.6-0.4c-0.5-0.3-0.8-0.7-1.1-1.2c-0.3-0.5-0.4-1.1-0.4-1.8
		c0-0.7,0.1-1.3,0.4-1.8c0.3-0.5,0.6-0.9,1.1-1.2c0.5-0.3,1-0.4,1.6-0.4c0.6,0,1.2,0.1,1.6,0.4c0.5,0.3,0.8,0.7,1.1,1.2
		c0.2,0.5,0.4,1.1,0.4,1.8c0,0.7-0.1,1.3-0.4,1.8c-0.3,0.5-0.6,0.9-1.1,1.2C145.8,77.5,145.3,77.6,144.6,77.6z M144.6,76.9
		c0.7,0,1.2-0.2,1.6-0.7s0.6-1.2,0.6-2c0-0.9-0.2-1.5-0.6-2c-0.4-0.5-0.9-0.7-1.6-0.7c-0.7,0-1.2,0.2-1.6,0.7
		c-0.4,0.5-0.6,1.1-0.6,2c0,0.9,0.2,1.5,0.6,2C143.4,76.7,144,76.9,144.6,76.9z"/>
	<path fill="#68809C" d="M156.1,80v-3.6c-0.2,0.4-0.4,0.7-0.7,0.9c-0.3,0.2-0.7,0.3-1.1,0.3c-0.7,0-1.3-0.3-1.7-0.9
		c-0.4-0.6-0.7-1.5-0.7-2.5c0-1,0.2-1.9,0.6-2.5c0.4-0.6,1-0.9,1.7-0.9c0.4,0,0.8,0.1,1.1,0.3c0.3,0.2,0.5,0.5,0.7,1v-4.2h0.8V72
		c0.2-0.4,0.4-0.7,0.7-0.9s0.7-0.3,1.1-0.3c0.7,0,1.3,0.3,1.7,0.9c0.4,0.6,0.6,1.5,0.6,2.5c0,1-0.2,1.9-0.6,2.5
		c-0.4,0.6-1,0.9-1.7,0.9c-0.4,0-0.8-0.1-1.1-0.3c-0.3-0.2-0.5-0.5-0.7-0.9V80H156.1z M154.4,77c0.5,0,0.9-0.2,1.2-0.7
		c0.3-0.5,0.4-1.2,0.4-2c0-0.9-0.1-1.6-0.4-2c-0.3-0.5-0.7-0.7-1.2-0.7c-0.5,0-0.9,0.2-1.2,0.7c-0.3,0.5-0.5,1.1-0.5,2
		c0,0.9,0.2,1.6,0.5,2C153.5,76.7,153.9,77,154.4,77z M158.6,77c0.5,0,0.9-0.2,1.2-0.7s0.5-1.2,0.5-2c0-0.9-0.1-1.6-0.5-2
		c-0.3-0.5-0.7-0.7-1.2-0.7c-0.5,0-0.9,0.2-1.2,0.7c-0.3,0.5-0.4,1.1-0.4,2c0,0.9,0.1,1.6,0.4,2S158,77,158.6,77z"/>
	<path fill="#68809C" d="M168.6,77.6c-1,0-1.8-0.3-2.4-0.9c-0.6-0.6-0.9-1.4-0.9-2.5c0-0.7,0.1-1.3,0.4-1.8c0.3-0.5,0.6-0.9,1.1-1.2
		c0.5-0.3,1-0.4,1.6-0.4c0.9,0,1.6,0.3,2.1,0.9c0.5,0.6,0.7,1.4,0.7,2.4v0.4h-5.1c0,0.8,0.3,1.5,0.7,1.9c0.4,0.4,1,0.7,1.8,0.7
		c0.4,0,0.8-0.1,1.2-0.2c0.4-0.1,0.7-0.3,1.1-0.6l0.3,0.6c-0.3,0.3-0.7,0.5-1.1,0.7C169.5,77.6,169,77.6,168.6,77.6z M168.4,71.4
		c-0.7,0-1.2,0.2-1.6,0.6c-0.4,0.4-0.6,1-0.7,1.7h4.3c0-0.7-0.2-1.3-0.5-1.7S169,71.4,168.4,71.4z"/>
	<path fill="#68809C" d="M178.4,77.6c-0.6,0-1.2-0.1-1.7-0.4c-0.5-0.3-0.8-0.7-1.1-1.2c-0.3-0.5-0.4-1.1-0.4-1.8
		c0-1,0.3-1.9,0.8-2.5c0.6-0.6,1.3-0.9,2.3-0.9c0.4,0,0.8,0.1,1.2,0.2c0.4,0.2,0.7,0.4,1,0.6l-0.3,0.6c-0.3-0.3-0.6-0.5-0.9-0.6
		c-0.3-0.1-0.6-0.2-0.9-0.2c-0.7,0-1.3,0.2-1.7,0.7c-0.4,0.5-0.6,1.1-0.6,2c0,0.9,0.2,1.5,0.6,2c0.4,0.5,1,0.7,1.7,0.7
		c0.3,0,0.6-0.1,0.9-0.2c0.3-0.1,0.6-0.3,0.9-0.6l0.3,0.6c-0.3,0.3-0.6,0.5-1,0.6C179.2,77.6,178.8,77.6,178.4,77.6z"/>
	<path fill="#68809C" d="M187.6,77.6c-0.6,0-1.2-0.1-1.7-0.4c-0.5-0.3-0.8-0.7-1.1-1.2c-0.3-0.5-0.4-1.1-0.4-1.8
		c0-1,0.3-1.9,0.8-2.5c0.6-0.6,1.3-0.9,2.3-0.9c0.4,0,0.8,0.1,1.2,0.2c0.4,0.2,0.7,0.4,1,0.6l-0.3,0.6c-0.3-0.3-0.6-0.5-0.9-0.6
		c-0.3-0.1-0.6-0.2-0.9-0.2c-0.7,0-1.3,0.2-1.7,0.7c-0.4,0.5-0.6,1.1-0.6,2c0,0.9,0.2,1.5,0.6,2c0.4,0.5,1,0.7,1.7,0.7
		c0.3,0,0.6-0.1,0.9-0.2c0.3-0.1,0.6-0.3,0.9-0.6l0.3,0.6c-0.3,0.3-0.6,0.5-1,0.6C188.4,77.6,188,77.6,187.6,77.6z"/>
	<polygon fill="#68809C" points="194,77.5 194,70.9 194.8,70.9 194.8,76.3 198.8,70.9 199.6,70.9 199.6,77.5 198.8,77.5 198.8,72.1 
		194.7,77.5 	"/>
	<path fill="#68809C" d="M207.2,77.6c-0.6,0-1.2-0.1-1.6-0.4c-0.5-0.3-0.8-0.7-1.1-1.2c-0.3-0.5-0.4-1.1-0.4-1.8
		c0-0.7,0.1-1.3,0.4-1.8c0.2-0.5,0.6-0.9,1.1-1.2c0.5-0.3,1-0.4,1.6-0.4c0.6,0,1.2,0.1,1.6,0.4c0.5,0.3,0.8,0.7,1.1,1.2
		c0.2,0.5,0.4,1.1,0.4,1.8c0,0.7-0.1,1.3-0.4,1.8c-0.3,0.5-0.6,0.9-1.1,1.2C208.4,77.5,207.9,77.6,207.2,77.6z M207.2,76.9
		c0.7,0,1.2-0.2,1.6-0.7s0.6-1.2,0.6-2c0-0.9-0.2-1.5-0.6-2c-0.4-0.5-0.9-0.7-1.6-0.7c-0.7,0-1.2,0.2-1.6,0.7
		c-0.4,0.5-0.6,1.1-0.6,2c0,0.9,0.2,1.5,0.6,2C206,76.7,206.6,76.9,207.2,76.9z"/>
	<polygon fill="#68809C" points="214.9,77.5 214.9,70.9 215.8,70.9 215.8,73.8 219.7,73.8 219.7,70.9 220.5,70.9 220.5,77.5 
		219.7,77.5 219.7,74.5 215.8,74.5 215.8,77.5 	"/>
	<path fill="#68809C" d="M227.6,77.6c-0.4,0-0.8-0.1-1.2-0.3c-0.4-0.2-0.6-0.4-0.8-0.7c-0.2-0.3-0.3-0.6-0.3-1
		c0-0.5,0.1-0.9,0.4-1.2c0.2-0.3,0.7-0.5,1.2-0.6c0.6-0.1,1.4-0.2,2.4-0.2h0.4v-0.5c0-0.6-0.1-1.1-0.4-1.3c-0.2-0.3-0.6-0.4-1.2-0.4
		c-0.4,0-0.8,0.1-1.2,0.2c-0.4,0.1-0.8,0.3-1.1,0.6l-0.3-0.6c0.3-0.2,0.8-0.4,1.2-0.6c0.5-0.1,0.9-0.2,1.4-0.2
		c0.8,0,1.4,0.2,1.8,0.6c0.4,0.4,0.6,1,0.6,1.9v4.3h-0.8v-1.2c-0.2,0.4-0.5,0.7-0.8,1C228.5,77.5,228.1,77.6,227.6,77.6z M227.7,77
		c0.4,0,0.7-0.1,1-0.3c0.3-0.2,0.5-0.4,0.7-0.8c0.2-0.3,0.3-0.7,0.3-1.1v-0.5h-0.4c-0.8,0-1.5,0-1.9,0.1c-0.5,0.1-0.8,0.2-1,0.4
		c-0.2,0.2-0.3,0.4-0.3,0.8c0,0.4,0.1,0.7,0.4,1C226.9,76.8,227.2,77,227.7,77z"/>
	<path fill="#68809C" d="M235.1,77.7l-0.4-0.7c0.4-0.2,0.8-0.5,1-0.8c0.2-0.3,0.4-0.8,0.5-1.4c0.1-0.6,0.1-1.4,0.1-2.4v-1.5h4.6v6.6
		h-0.8v-6h-3v0.9c0,1.1-0.1,2-0.2,2.6s-0.4,1.2-0.7,1.6C236,77.1,235.6,77.5,235.1,77.7z"/>
	<path fill="#68809C" d="M248.6,77.6c-0.6,0-1.2-0.1-1.6-0.4c-0.5-0.3-0.8-0.7-1.1-1.2c-0.3-0.5-0.4-1.1-0.4-1.8
		c0-0.7,0.1-1.3,0.4-1.8c0.2-0.5,0.6-0.9,1.1-1.2c0.5-0.3,1-0.4,1.6-0.4c0.6,0,1.2,0.1,1.6,0.4c0.5,0.3,0.8,0.7,1.1,1.2
		c0.2,0.5,0.4,1.1,0.4,1.8c0,0.7-0.1,1.3-0.4,1.8c-0.3,0.5-0.6,0.9-1.1,1.2C249.8,77.5,249.3,77.6,248.6,77.6z M248.6,76.9
		c0.7,0,1.2-0.2,1.6-0.7c0.4-0.5,0.6-1.2,0.6-2c0-0.9-0.2-1.5-0.6-2c-0.4-0.5-0.9-0.7-1.6-0.7c-0.7,0-1.2,0.2-1.6,0.7
		c-0.4,0.5-0.6,1.1-0.6,2c0,0.9,0.2,1.5,0.6,2C247.4,76.7,248,76.9,248.6,76.9z"/>
	<path fill="#68809C" d="M256.3,77.5v-6.6h3.1c1.5,0,2.2,0.6,2.2,1.8c0,0.3-0.1,0.6-0.3,0.9c-0.2,0.3-0.5,0.4-0.8,0.6
		c0.4,0.1,0.7,0.3,1,0.6c0.2,0.3,0.4,0.6,0.4,1c0,0.6-0.2,1-0.6,1.3c-0.4,0.3-1,0.5-1.7,0.5H256.3z M257.1,73.9h2.3
		c0.4,0,0.8-0.1,1-0.3c0.2-0.2,0.4-0.5,0.4-0.9c0-0.4-0.1-0.7-0.4-0.9c-0.3-0.2-0.6-0.3-1-0.3h-2.3V73.9z M257.1,76.9h2.4
		c0.5,0,0.9-0.1,1.1-0.3c0.3-0.2,0.4-0.5,0.4-0.9c0-0.4-0.1-0.7-0.4-0.9c-0.3-0.2-0.6-0.3-1.1-0.3h-2.4V76.9z"/>
</g>
</svg>
