<?xml version="1.0" encoding="utf-8"?>
<!-- Generator: Adobe Illustrator 20.1.0, SVG Export Plug-In . SVG Version: 6.00 Build 0)  -->
<svg version="1.2" baseProfile="tiny" id="Layer_1" xmlns="http://www.w3.org/2000/svg" xmlns:xlink="http://www.w3.org/1999/xlink"
	 x="0px" y="0px" viewBox="0 0 44 50" xml:space="preserve">
<g>
	<path fill="#F3E0D9" d="M11.3,35.3c-0.4,0.1-0.7,0.2-1,0.3l-0.5,0.1c0.5,0.1,1,0.1,1.5,0.1l0,0l0,0C11.3,35.6,11.3,35.4,11.3,35.3
		 M4.3,17.1c-2.2,2-3.6,4.8-3.6,8c0,3.1,1.3,5.9,3.5,7.9L7,29.8c1-1.2,3.1-2.4,4.7-2.7l6.8-1.4c1.1-0.4,2.3-0.6,3.6-0.6
		c-1.7,0-3.3-0.4-4.8-1.1l-5.6-1.2C10.1,22.5,8,21.3,7,20.2L4.3,17.1 M11.3,14.5c-0.2,0-0.5,0-0.7,0c0.2,0.1,0.5,0.1,0.7,0.2
		C11.3,14.6,11.3,14.5,11.3,14.5L11.3,14.5"/>
	<path fill="#D9E5F5" d="M21.9,23.4C22,24,22,24.5,22,25.1l0,0l0,0l0,0l0,0c0-0.6,0-1.2,0.1-1.7c0,0-0.1,0-0.1,0
		S21.9,23.4,21.9,23.4 M23.4,3.9l1.9,5.7c0.5,1.5,0.5,3.9,0,5.4L24,18.9c1.9-2.7,5.1-4.4,8.7-4.4C32.7,9.1,28.7,4.6,23.4,3.9
		 M20.6,3.9c-5.2,0.7-9.2,5.2-9.2,10.6l0,0c3.6,0,6.7,1.7,8.7,4.4l-1.3-3.9c-0.5-1.5-0.5-3.9,0-5.4L20.6,3.9"/>
	<path fill="#D0CCD6" d="M11.3,14.5c0,0.1,0,0.2,0,0.3c1.3,0.5,2.8,1.5,3.6,2.4l5.2,5.8c0.9,1,0.7,1.6-0.2,1.6c-0.2,0-0.4,0-0.7-0.1
		l-2-0.4c1.4,0.7,3,1.1,4.8,1.1l0,0c0-0.6,0-1.2-0.1-1.7c-0.3-0.1-0.5-0.5-0.7-1.1L20,18.9C18,16.2,14.9,14.5,11.3,14.5"/>
	<path fill="#ECD9EE" d="M24.2,31.6l1.1,3.5c0.5,1.5,0.5,3.9,0,5.4l-2,6c5.3-0.7,9.3-5.2,9.3-10.6l0,0
		C29.2,35.8,26.1,34.1,24.2,31.6 M19.8,31.6c-1.9,2.6-5,4.2-8.5,4.2c0,5.4,4.1,9.9,9.3,10.6l-2-6c-0.5-1.5-0.5-3.9,0-5.4L19.8,31.6
		 M22,25.1L22,25.1L22,25.1L22,25.1c0,0.5,0,1-0.1,1.5c0,0,0.1,0,0.1,0s0.1,0,0.1,0C22,26.1,22,25.6,22,25.1L22,25.1"/>
	<path fill="#E2C1CF" d="M22,25.1c-1.3,0-2.5,0.2-3.6,0.6l0.8-0.2c0.3-0.1,0.5-0.1,0.7-0.1c1,0,1.1,0.6,0.2,1.6l-5.2,5.8
		c-0.8,0.9-2.3,1.9-3.6,2.4c0,0.2,0,0.4,0,0.5l0,0c3.5,0,6.5-1.7,8.5-4.2l1.3-3.9c0.2-0.7,0.5-1,0.8-1.1C22,26.1,22,25.6,22,25.1
		L22,25.1L22,25.1"/>
	<path fill="#D8E8DA" d="M32.7,35.3c0,0.2,0,0.4,0,0.5l0,0c0.5,0,1,0,1.5-0.1l-0.5-0.1C33.4,35.5,33,35.4,32.7,35.3 M39.7,17.1
		l-2.7,3c-1,1.2-3.1,2.4-4.7,2.7L26.8,24c-1.4,0.7-3,1.1-4.8,1.1l0,0c1.3,0,2.5,0.2,3.6,0.6l6.8,1.4c1.5,0.3,3.6,1.5,4.7,2.7
		l2.8,3.2c2.1-2,3.5-4.8,3.5-7.9C43.3,21.9,41.9,19.1,39.7,17.1 M32.7,14.5L32.7,14.5L32.7,14.5c0,0.1,0,0.2,0,0.3
		c0.3-0.1,0.5-0.2,0.7-0.2C33.2,14.5,32.9,14.5,32.7,14.5"/>
	<path fill="#BAD3D2" d="M32.7,14.5c-3.6,0-6.7,1.7-8.7,4.4l-1.1,3.4c-0.2,0.6-0.5,1-0.7,1.1C22,24,22,24.5,22,25.1l0,0
		c1.7,0,3.3-0.4,4.8-1.1l-2,0.4c-0.3,0.1-0.5,0.1-0.7,0.1c-1,0-1.1-0.6-0.2-1.6l5.2-5.8c0.8-0.9,2.3-1.9,3.6-2.4
		C32.7,14.6,32.7,14.5,32.7,14.5L32.7,14.5"/>
	<path fill="#C9CACC" d="M22,25.1c0,0.5,0,1,0.1,1.5c0.3,0.1,0.6,0.4,0.8,1.1l1.3,3.9c1.9,2.6,5,4.2,8.5,4.2c0-0.2,0-0.4,0-0.5
		c-1.3-0.5-2.8-1.5-3.6-2.4l-5.2-5.8c-0.9-1-0.7-1.6,0.2-1.6c0.2,0,0.4,0,0.7,0.1l0.8,0.2C24.5,25.3,23.3,25.1,22,25.1"/>
	<path fill="#89A6D4" d="M22,1.1c-0.3,0-0.6,0.4-0.9,1.1l-0.6,1.7c0.5-0.1,1-0.1,1.4-0.1s1,0,1.4,0.1l-0.6-1.7
		C22.6,1.5,22.3,1.1,22,1.1"/>
	<path fill="#7B9CD0" d="M22,3.8c-0.5,0-1,0-1.4,0.1l-1.9,5.7c-0.5,1.5-0.5,3.9,0,5.4l1.3,3.9c1,1.3,1.6,2.9,1.9,4.5
		c0,0,0.1,0,0.1,0s0.1,0,0.1,0c0.3-1.7,0.9-3.2,1.9-4.5l1.3-3.9c0.5-1.5,0.5-3.9,0-5.4l-1.9-5.7C23,3.8,22.5,3.8,22,3.8"/>
	<path fill="#7893C5" d="M20,18.9l1.1,3.4c0.2,0.6,0.5,1,0.7,1.1C21.6,21.7,20.9,20.2,20,18.9"/>
	<path fill="#6F95C3" d="M24,18.9c-1,1.3-1.6,2.9-1.9,4.5c0.3-0.1,0.5-0.5,0.7-1.1L24,18.9"/>
	<path fill="#DA9CB4" d="M23.4,46.4c-0.4,0.1-0.9,0.1-1.4,0.1s-0.9,0-1.4-0.1l0.5,1.4c0.2,0.7,0.6,1.1,0.9,1.1s0.6-0.4,0.9-1.1
		L23.4,46.4"/>
	<path fill="#D38FAE" d="M22,26.6C22,26.6,21.9,26.6,22,26.6c-0.4,1.9-1.1,3.6-2.2,5l-1.1,3.5c-0.5,1.5-0.5,3.9,0,5.4l2,6
		c0.4,0.1,0.9,0.1,1.4,0.1s0.9,0,1.4-0.1l2-6c0.5-1.5,0.5-3.9,0-5.4l-1.1-3.5C23.1,30.2,22.4,28.4,22,26.6
		C22.1,26.6,22,26.6,22,26.6"/>
	<path fill="#CF85A2" d="M21.9,26.6c-0.3,0.1-0.6,0.4-0.8,1.1l-1.3,3.9C20.9,30.2,21.6,28.4,21.9,26.6"/>
	<path fill="#C688A1" d="M22.1,26.6c0.3,1.9,1,3.6,2.1,5l-1.3-3.9C22.7,27,22.4,26.7,22.1,26.6"/>
	<path fill="#8D8FCD" d="M2,12.8c-1,0-1.1,0.6-0.2,1.6l2.5,2.8c1.7-1.5,3.9-2.5,6.3-2.6c-0.1,0-0.2-0.1-0.3-0.1l-7.6-1.6
		C2.4,12.8,2.2,12.8,2,12.8"/>
	<path fill="#8884BE" d="M10.6,14.5c-2.4,0.2-4.6,1.1-6.3,2.6l2.7,3c1,1.2,3.1,2.4,4.7,2.7l5.6,1.2c-3.4-1.7-5.8-5.2-5.9-9.3
		C11.1,14.6,10.8,14.5,10.6,14.5"/>
	<path fill="#7B7CBD" d="M11.3,14.7c0.1,4.1,2.5,7.6,5.9,9.3l2,0.4c0.3,0.1,0.5,0.1,0.7,0.1c1,0,1.1-0.6,0.2-1.6l-5.2-5.8
		C14.1,16.2,12.7,15.2,11.3,14.7"/>
	<path fill="#A47FC1" d="M39.9,33c-1.5,1.4-3.5,2.4-5.7,2.7l7.1,1.5c0.3,0.1,0.5,0.1,0.7,0.1c1,0,1.1-0.6,0.2-1.6L39.9,33"/>
	<path fill="#9576B3" d="M25.6,25.7c4,1.4,6.9,5.1,7.1,9.5c0.4,0.1,0.7,0.2,1,0.3l0.5,0.1c2.2-0.3,4.1-1.3,5.7-2.7L37,29.8
		c-1-1.2-3.1-2.4-4.7-2.7L25.6,25.7"/>
	<path fill="#906BAE" d="M24.1,25.5c-1,0-1.1,0.6-0.2,1.6l5.2,5.8c0.8,0.9,2.3,1.9,3.6,2.4c-0.2-4.4-3.1-8.1-7.1-9.5l-0.8-0.2
		C24.5,25.5,24.3,25.5,24.1,25.5"/>
	<path fill="#E7958B" d="M4.1,33l-2.3,2.6c-0.9,1-0.7,1.6,0.2,1.6c0.2,0,0.4,0,0.7-0.1l7.1-1.5C7.6,35.4,5.7,34.4,4.1,33"/>
	<path fill="#E38A7D" d="M18.4,25.7l-6.8,1.4C10.1,27.5,8,28.7,7,29.8L4.1,33c1.5,1.4,3.5,2.4,5.7,2.7l0.5-0.1
		c0.3-0.1,0.7-0.2,1-0.3C11.6,30.9,14.4,27.2,18.4,25.7"/>
	<path fill="#DD7E78" d="M19.9,25.5c-0.2,0-0.4,0-0.7,0.1l-0.8,0.2c-4,1.4-6.9,5.1-7.1,9.5c1.3-0.5,2.8-1.5,3.6-2.4l5.2-5.8
		C21,26.1,20.8,25.5,19.9,25.5"/>
	<path fill="#87C4C5" d="M42,12.8c-0.2,0-0.4,0-0.7,0.1l-7.6,1.6c-0.1,0-0.2,0-0.3,0.1c2.4,0.2,4.6,1.1,6.3,2.6l2.5-2.8
		C43.1,13.4,42.9,12.8,42,12.8"/>
	<path fill="#79BCB8" d="M33.4,14.5c-0.2,0.1-0.5,0.1-0.7,0.2c-0.1,4.1-2.5,7.6-5.9,9.3l5.6-1.2c1.5-0.3,3.6-1.5,4.7-2.7l2.7-3
		C38,15.6,35.8,14.6,33.4,14.5"/>
	<path fill="#6DB3B4" d="M32.7,14.7c-1.3,0.5-2.8,1.5-3.6,2.4l-5.2,5.8c-0.9,1-0.7,1.6,0.2,1.6c0.2,0,0.4,0,0.7-0.1l2-0.4
		C30.2,22.3,32.6,18.8,32.7,14.7"/>
</g>
</svg>
