<?xml version="1.0" encoding="UTF-8" standalone="no"?>
<svg
   xmlns:dc="http://purl.org/dc/elements/1.1/"
   xmlns:cc="http://creativecommons.org/ns#"
   xmlns:rdf="http://www.w3.org/1999/02/22-rdf-syntax-ns#"
   xmlns:svg="http://www.w3.org/2000/svg"
   xmlns="http://www.w3.org/2000/svg"
   xmlns:sodipodi="http://sodipodi.sourceforge.net/DTD/sodipodi-0.dtd"
   xmlns:inkscape="http://www.inkscape.org/namespaces/inkscape"
   inkscape:version="1.0 (4035a4fb49, 2020-05-01)"
   sodipodi:docname="logo1a.svg"
   id="svg1187"
   xml:space="preserve"
   style="enable-background:new 0 0 482 300;"
   viewBox="0 0 482 300"
   y="0px"
   x="0px"
   version="1.1"><metadata
   id="metadata1193"><rdf:RDF><cc:Work
       rdf:about=""><dc:format>image/svg+xml</dc:format><dc:type
         rdf:resource="http://purl.org/dc/dcmitype/StillImage" /></cc:Work></rdf:RDF></metadata><defs
   id="defs1191" /><sodipodi:namedview
   inkscape:current-layer="svg1187"
   inkscape:window-maximized="0"
   inkscape:window-y="0"
   inkscape:window-x="0"
   inkscape:cy="161.98088"
   inkscape:cx="123.95602"
   inkscape:zoom="3.2551867"
   showgrid="false"
   id="namedview1189"
   inkscape:window-height="1278"
   inkscape:window-width="2015"
   inkscape:pageshadow="2"
   inkscape:pageopacity="0"
   guidetolerance="10"
   gridtolerance="10"
   objecttolerance="10"
   borderopacity="1"
   bordercolor="#666666"
   pagecolor="#ffffff" />
<style
   id="style1134"
   type="text/css">
	.st0{display:none;}
	.st1{fill:#E3842A;}
	.st2{fill:#93561B;}
	.st3{fill:#135A7F;}
	.st4{fill:#F19741;}
	.st5{fill:#54483D;}
	.st6{fill:url(#SVGID_1_);}
	.st7{fill:#D7C0A0;}
	.st8{fill:#DBCDB8;}
</style>
<g
   class="st0"
   id="Layer_2">
</g>
<g
   id="Layer_1">
</g>
<g
   transform="translate(0,2)"
   id="Layer_3">
	<g
   id="g1183">
		<path
   id="path1138"
   d="m 232.2,217.3 c -2.4,0 -4.8,-1.2 -6,-3.1 L 219,203 h -0.4 c -3.5,0.4 -7.1,0.6 -10.5,0.6 -3.7,0 -7.5,-0.2 -11.2,-0.7 h -0.4 l -7.2,11.3 c -1.2,1.8 -3.6,3.1 -6,3.1 -0.6,0 -1.3,-0.1 -1.8,-0.3 l -15.2,-5 c -2.8,-0.9 -4.9,-4 -4.7,-6.9 l 0.8,-13.5 -0.3,-0.2 c -6.2,-3.5 -12.1,-7.8 -17.4,-12.7 l -0.3,-0.3 -12.7,5 c -0.7,0.3 -1.5,0.4 -2.2,0.4 -2.3,0 -4.5,-1.1 -5.7,-2.7 l -9.4,-13 c -1.7,-2.3 -1.6,-6.1 0.2,-8.3 l 8.7,-10.6 -0.2,-0.4 c -3,-6.5 -5.2,-13.4 -6.6,-20.4 l -0.1,-0.4 -13.3,-3.4 C 100.3,123.9 98,120.9 98,118 v -16 c 0,-2.9 2.3,-5.8 5.1,-6.6 l 13.3,-3.4 0.1,-0.4 c 1.4,-7 3.6,-13.9 6.6,-20.4 l 0.2,-0.4 -8.7,-10.6 c -1.8,-2.2 -2,-6 -0.2,-8.3 L 123.8,39 c 1.2,-1.7 3.4,-2.7 5.7,-2.7 0.8,0 1.6,0.1 2.3,0.4 l 12.7,5 0.3,-0.3 c 5.3,-4.9 11.2,-9.2 17.4,-12.8 l 0.3,-0.2 -0.8,-13.5 c -0.2,-2.9 1.9,-6 4.7,-6.9 l 15.2,-4.9 c 0.6,-0.2 1.2,-0.3 1.9,-0.3 2.4,0 4.8,1.2 6,3.1 l 7.2,11.3 h 0.4 c 3.8,-0.5 7.6,-0.7 11.3,-0.7 3.5,0 7,0.2 10.6,0.6 h 0.4 l 7.1,-11.2 c 1.2,-1.8 3.6,-3.1 6,-3.1 0.7,0 1.3,0.1 1.9,0.3 L 249.6,8 c 2.8,0.9 4.9,4 4.7,6.9 l -0.8,13.1 0.3,0.2 c 6.5,3.6 12.5,8 17.9,13 l 0.3,0.3 12.2,-4.8 c 0.7,-0.3 1.5,-0.4 2.3,-0.4 2.3,0 4.5,1.1 5.7,2.7 l 9.4,13 c 1.7,2.3 1.6,6.1 -0.3,8.3 l -8.2,10 0.2,0.4 c 3.1,6.8 5.5,13.9 6.9,21.2 l 0.1,0.4 12.5,3.3 c 2.8,0.7 5.1,3.7 5.1,6.6 v 16 c 0,2.9 -2.3,5.8 -5.1,6.6 l -12.5,3.3 -0.1,0.4 c -1.4,7.3 -3.8,14.4 -6.9,21.1 l -0.2,0.4 8.2,10 c 1.8,2.2 1.9,6 0.2,8.3 l -9.4,13 c -1.2,1.7 -3.5,2.7 -5.7,2.7 -0.8,0 -1.6,-0.1 -2.2,-0.4 l -12.2,-4.8 -0.3,0.3 c -5.4,5 -11.4,9.3 -17.9,12.9 l -0.3,0.2 0.8,13.1 c 0.2,2.9 -1.9,6 -4.7,6.9 L 234,217 c -0.6,0.2 -1.2,0.3 -1.8,0.3 z m -32.6,-29.8 c 2.4,0.3 4.9,0.4 7.6,0.4 2.7,0 5.5,-0.1 8.6,-0.4 l 4.1,-0.7 c 42,-6.7 70.7,-46.4 64,-88.4 -6,-37.7 -38.1,-65 -76.2,-65 -22.6,0 -44,9.9 -58.7,27.1 -14.7,17.2 -21.1,40 -17.5,62.4 5.3,33 31,58.7 64,64 z"
   class="st1" />
		<path
   id="path1140"
   d="m 232.2,6 c 0.3,0 0.7,0 0.9,0.1 l 15.2,4.9 c 1.4,0.5 2.7,2.3 2.6,3.8 l -0.9,15 2,1.1 c 6.3,3.5 12.1,7.7 17.3,12.5 l 1.7,1.5 13.9,-5.5 c 0.3,-0.1 0.7,-0.2 1.2,-0.2 1.3,0 2.7,0.6 3.3,1.5 l 9.4,12.9 c 0.9,1.2 0.8,3.5 -0.1,4.6 l -9.4,11.5 1,2.1 c 3,6.5 5.3,13.4 6.7,20.5 l 0.4,2.2 14.3,3.7 c 1.5,0.4 2.8,2.2 2.8,3.7 v 16 c 0,1.5 -1.4,3.3 -2.8,3.7 l -14.3,3.7 -0.4,2.2 c -1.4,7 -3.6,13.9 -6.7,20.4 l -1,2.1 9.4,11.5 c 1,1.2 1,3.4 0.1,4.6 l -9.4,13 c -0.6,0.9 -2,1.5 -3.3,1.5 -0.4,0 -0.8,-0.1 -1.2,-0.2 L 271,175 l -1.7,1.5 c -5.2,4.8 -11.1,9 -17.3,12.5 l -2,1.1 0.9,15 c 0.1,1.5 -1.2,3.4 -2.6,3.8 l -15.2,5 c -0.3,0.1 -0.6,0.1 -0.9,0.1 -1.3,0 -2.8,-0.7 -3.4,-1.7 l -8.2,-12.8 -2.2,0.2 c -3.4,0.4 -6.9,0.6 -10.2,0.6 -3.6,0 -7.2,-0.2 -10.9,-0.7 l -2.3,-0.3 -8.2,12.9 c -0.6,1 -2.1,1.7 -3.4,1.7 -0.3,0 -0.7,0 -0.9,-0.1 l -15.2,-4.9 c -1.4,-0.5 -2.7,-2.3 -2.6,-3.8 l 0.9,-15.4 -2,-1.1 c -6,-3.4 -11.7,-7.6 -16.8,-12.3 l -1.8,-1.3 -14.5,5.7 c -0.3,0.1 -0.7,0.2 -1.1,0.2 -1.3,0 -2.7,-0.6 -3.3,-1.5 l -9.4,-13 c -0.9,-1.2 -0.8,-3.5 0.1,-4.6 l 9.9,-12 -0.9,-2.1 c -2.9,-6.3 -5,-13 -6.4,-19.7 l -0.4,-2.2 -15.1,-3.9 c -1.5,-0.4 -2.8,-2.2 -2.8,-3.7 v -16 c 0,-1.5 1.4,-3.3 2.8,-3.7 l 15.1,-3.9 0.4,-2.2 c 1.4,-6.8 3.5,-13.5 6.4,-19.7 l 0.9,-2.1 -9.9,-12 c -1,-1.2 -1,-3.4 -0.1,-4.6 l 9.4,-13 c 0.6,-0.9 2,-1.5 3.3,-1.5 0.4,0 0.8,0.1 1.2,0.2 l 14.4,5.7 1.7,-1.6 c 5.1,-4.8 10.8,-8.9 16.9,-12.4 l 2,-1.1 -0.9,-15.4 c -0.1,-1.5 1.2,-3.4 2.6,-3.8 l 15.2,-4.9 c 0.3,-0.1 0.6,-0.1 0.9,-0.1 1.4,0 2.8,0.7 3.4,1.7 l 8.2,12.9 2.3,-0.3 c 3.6,-0.4 7.3,-0.7 10.9,-0.7 3.3,0 6.8,0.2 10.2,0.6 l 2.3,0.3 8.1,-12.8 c 0.5,-1.1 2,-1.8 3.4,-1.8 m -25,184.9 c 2.9,0 5.9,-0.2 9,-0.5 l 4.2,-0.7 c 43.6,-6.9 73.5,-48.2 66.5,-91.9 -6.2,-39.1 -39.5,-67.5 -79.2,-67.5 -23.5,0 -45.7,10.3 -61,28.1 -15.3,17.9 -21.9,41.5 -18.2,64.8 5.5,34.3 32.2,61 66.5,66.5 l 4.2,0.7 c 2.6,0.4 5.3,0.5 8,0.5 M 232.2,0 c -3.4,0 -6.8,1.8 -8.5,4.5 l -6.1,9.6 c -3.2,-0.3 -6.4,-0.5 -9.4,-0.5 -3.3,0 -6.8,0.2 -10.2,0.5 L 191.8,4.4 C 190,1.8 186.7,0 183.3,0 c -1,0 -1.9,0.1 -2.8,0.4 l -15.2,4.9 c -4,1.3 -7,5.7 -6.7,9.9 l 0.7,11.6 c -5.6,3.3 -10.8,7.1 -15.6,11.4 l -11,-4.2 c -1,-0.4 -2.2,-0.6 -3.4,-0.6 -3.2,0 -6.4,1.5 -8.1,4 l -9.4,13 c -2.5,3.4 -2.3,8.7 0.4,12 l 7.5,9.1 c -2.6,5.9 -4.5,12 -5.9,18.3 l -11.5,3 C 98.2,93.9 95,98 95,102.3 v 16 c 0,4.2 3.2,8.4 7.3,9.5 l 11.5,3 c 1.3,6.2 3.3,12.3 5.9,18.2 l -7.5,9.2 c -2.7,3.3 -2.8,8.5 -0.3,12 l 9.4,12.9 c 1.8,2.5 4.9,4 8.2,4 1.2,0 2.3,-0.2 3.3,-0.6 l 11,-4.3 c 4.8,4.3 10,8.1 15.5,11.4 l -0.7,11.7 c -0.3,4.2 2.7,8.6 6.7,9.9 l 15.2,4.9 v 0 0 c 0.9,0.3 1.8,0.4 2.7,0.4 3.4,0 6.8,-1.8 8.5,-4.5 l 6.2,-9.7 c 3.4,0.4 6.8,0.5 10.1,0.5 3.1,0 6.2,-0.2 9.4,-0.5 l 6.2,9.7 c 1.7,2.7 5,4.5 8.5,4.5 0.9,0 1.9,-0.1 2.7,-0.4 v 0 0 l 15.2,-5 c 4.1,-1.3 7,-5.7 6.7,-9.9 L 256,194 c 5.7,-3.3 11.1,-7.2 16,-11.6 l 10.4,4.1 c 1,0.4 2.2,0.6 3.3,0.6 3.3,0 6.4,-1.5 8.2,-4 l 9.4,-13 c 2.5,-3.4 2.3,-8.7 -0.4,-12 l -7,-8.6 c 2.7,-6.1 4.8,-12.5 6.2,-19 l 10.7,-2.8 c 4.1,-1.1 7.3,-5.2 7.3,-9.5 v -16 c 0,-4.2 -3.2,-8.4 -7.3,-9.5 l -10.7,-2.8 c -1.4,-6.5 -3.5,-12.9 -6.2,-19 l 7,-8.5 c 2.7,-3.3 2.9,-8.5 0.4,-12 l -9.4,-12.9 c -1.8,-2.5 -4.9,-4 -8.2,-4 -1.2,0 -2.3,0.2 -3.3,0.6 L 272,38.2 c -4.9,-4.4 -10.3,-8.3 -16.1,-11.6 l 0.7,-11.2 c 0.3,-4.2 -2.7,-8.6 -6.7,-9.9 L 234.7,0.6 C 234.1,0.1 233.1,0 232.2,0 Z m -32.2,184.5 -4.1,-0.7 c -31.7,-5.1 -56.5,-29.8 -61.5,-61.5 -3.4,-21.5 2.7,-43.4 16.8,-59.9 14.1,-16.5 34.7,-26 56.4,-26 36.7,0 67.5,26.3 73.3,62.5 6.4,40.5 -21.2,78.6 -61.5,85 l -4,0.6 c -3,0.3 -5.7,0.4 -8.2,0.4 -2.5,0 -4.9,-0.1 -7.2,-0.4 z"
   class="st2" />
		<path
   id="path1142"
   d="m 473.2,261.9 c 0,-11.3 -6.1,-19.5 -17.4,-19.5 -10.1,0 -17.7,6.8 -17.7,17.2 0,10.3 7.6,16.5 17.7,16.5 h 8.3 v -6.8 h -7.6 c -7.8,0 -10.2,-4.4 -10.2,-10.1 0,-5.9 4,-9.9 9.6,-9.9 5,0 9.2,3.5 9.2,7.2 h -16.3 v 5.5 h 24.4 z M 436.5,276 v -6.8 h -4.8 V 252 c 0,-7.4 -7.1,-9.6 -10.2,-9.6 -4.8,0 -8.3,2 -12,5 v -4.3 H 397 v 6.8 h 4.6 V 276 H 415 v -6.8 h -5.2 v -15.4 c 2.1,-2.5 5.2,-4.6 8.6,-4.6 3,0 5.1,1.9 5.1,4.8 v 22 z m -39.5,0 v -6.8 h -5.4 V 243 H 378 v 6.8 h 5.4 V 276 Z m -5.9,-43.3 v -8.2 h -8.2 v 8.2 z M 377.9,276 v -6.8 h -5.4 v -44.7 h -13.6 v 6.8 h 5.4 V 276 Z m -19,0 v -6.8 h -4.8 V 252 c 0,-7.4 -7.1,-9.6 -10.2,-9.6 -4.8,0 -8.3,2 -12,5 v -4.3 h -12.6 v 6.8 h 4.6 V 276 h 13.4 v -6.8 h -5.2 v -15.4 c 2.1,-2.5 5.2,-4.6 8.6,-4.6 3,0 5.1,1.9 5.1,4.8 v 22 z m -48.8,-16.5 c 0,5.1 -2.9,10.3 -9.6,10.3 -6.7,0 -9.6,-5.2 -9.6,-10.3 0,-5.1 2.9,-10.3 9.6,-10.3 6.7,0 9.6,5.2 9.6,10.3 z m 8.2,0 c 0,-10.3 -7.6,-17.2 -17.7,-17.2 -10.1,0 -17.7,6.8 -17.7,17.2 0,10.3 7.6,17.2 17.7,17.2 10.1,0 17.7,-6.8 17.7,-17.2 z"
   class="st1" />
		<path
   id="path1144"
   d="m 264.6,254.4 h 0.2 v 14.8 H 260 v 6.8 h 12.8 v -32.9 h -9.3 l -9.6,18.7 h -0.1 l -9.3,-18.7 h -14.8 v 6.8 h 4.8 V 276 h 12.8 v -6.8 h -4.8 v -14.8 h 0.2 l 8.6,17.2 h 4.6 z m -35,21.6 v -6.8 H 225 V 243 h -6.8 l -14.7,19.8 V 243 h -12.8 v 6.8 h 4.6 V 276 h 7 l 14.5,-20 v 20 z m -38.9,0 v -6.8 h -4.6 V 243 h -12.8 v 6.8 h 4.6 v 5.8 H 164.6 V 243 h -12.8 v 6.8 h 4.6 V 276 h 12.8 v -6.8 h -4.6 v -6.8 h 13.3 V 276 Z m -38.8,0 v -6.8 h -4.6 V 243 h -6.8 l -14.7,19.8 V 243 H 113 v 6.8 h 4.6 V 276 h 7 l 14.5,-20 v 20 z M 100.3,261.9 V 276 h 13 v -6.8 h -4.8 V 243 H 95.9 v 6.8 h 4.5 v 5.9 c -1.9,1.8 -4.5,2.9 -6.6,2.9 -4.1,0 -4.9,-1.7 -4.9,-6.6 v -8.9 H 76.3 v 6.8 h 4.4 v 4.9 c 0,7.7 3.3,10.5 9.6,10.5 3.1,0 7.6,-1.6 10,-3.4 z M 67,259.5 c 0,5.1 -2.9,10.3 -9.6,10.3 -6.7,0 -9.6,-5.2 -9.6,-10.3 0,-5.1 2.9,-10.3 9.6,-10.3 6.7,0 9.6,5.2 9.6,10.3 z m 8.2,0 c 0,-10.3 -7.6,-17.2 -17.7,-17.2 -10.1,0 -17.7,6.8 -17.7,17.2 0,10.3 7.6,17.2 17.7,17.2 10.1,0 17.7,-6.8 17.7,-17.2 z M 12.8,249.8 H 26 V 276 h 12.8 v -6.8 H 34.2 V 243 H 0 v 6.8 H 4.6 V 276 h 12.8 v -6.8 h -4.6 z"
   class="st3" />
		<path
   id="path1146"
   d="m 311.6,98.5 -14.3,-3.7 -0.4,-2.2 c -1.4,-7 -3.6,-13.9 -6.7,-20.5 l -1,-2.1 9.4,-11.5 c 1,-1.2 1,-3.4 0.1,-4.6 L 289.3,41 c -0.6,-0.9 -2,-1.5 -3.3,-1.5 -0.4,0 -0.8,0.1 -1.2,0.2 L 271,45.1 269.3,43.6 C 264,38.8 258.2,34.5 252,31.1 l -2,-1.1 0.9,-15 c 0.1,-1.5 -1.2,-3.4 -2.6,-3.8 L 233.1,6.3 C 232.8,6 232.5,6 232.2,6 c -1.3,0 -2.8,0.7 -3.4,1.7 l -8.1,12.8 -2.3,-0.3 c -3.5,-0.4 -6.9,-0.6 -10.2,-0.6 -3.6,0 -7.3,0.2 -10.9,0.7 L 195,20.6 186.8,7.7 c -0.6,-1 -2.1,-1.7 -3.4,-1.7 -0.3,0 -0.7,0 -0.9,0.1 L 167.3,11 c -1.4,0.5 -2.7,2.3 -2.6,3.8 l 0.9,15.4 -2,1.1 c -6.1,3.4 -11.7,7.6 -16.9,12.4 l -1.7,1.6 -14.4,-5.7 c -0.3,-0.1 -0.7,-0.2 -1.2,-0.2 -0.5,0 -1.1,0.1 -1.6,0.3 6.4,6.1 12.7,12.5 18.9,18.9 l 0.1,-0.1 c 15.3,-17.9 37.5,-28.1 61,-28.1 39.7,0 73,28.4 79.2,67.5 5.5,34.8 -12.2,68 -41.7,83.6 1.6,2.2 3.2,4.3 4.8,6.5 0.3,0.4 0.7,0.8 1.2,1.4 l 0.1,0.1 0.6,-0.4 c 6.2,-3.5 12,-7.7 17.3,-12.5 l 1.7,-1.5 13.9,5.4 c 0.3,0.1 0.7,0.2 1.2,0.2 1.3,0 2.7,-0.6 3.3,-1.5 l 9.4,-13 c 0.9,-1.2 0.8,-3.5 -0.1,-4.6 l -9.4,-11.5 1,-2.1 c 3,-6.5 5.3,-13.4 6.7,-20.4 l 0.4,-2.2 14.3,-3.7 c 1.5,-0.4 2.8,-2.2 2.8,-3.7 v -16 c 0,-1.4 -1.4,-3.2 -2.9,-3.5 z"
   class="st4" />
		<path
   id="path1148"
   d="m 258.3,89.9 c -4.2,-1.1 -8.6,-2.3 -12.1,-4.6 L 246,85.2 245.9,85 c -5.6,-10.1 -14.4,-17.9 -23,-25.4 l -1.1,-1 c -7.1,-5.9 -5.9,-15.7 -2.7,-22.4 4,-8.8 4.7,-21 -3.4,-26.9 -2.4,-1.8 -5.2,-2.7 -8.4,-2.7 -4.9,0 -10.6,2.3 -14.8,6 -13.9,11.1 -15,31.5 -8.9,45.8 0.6,1.5 1.7,3.8 2.9,5.8 l 1,1.6 -1.9,-0.1 c -0.9,0 -1.9,-0.1 -2.8,-0.1 -8.8,0 -20.6,1.9 -26.7,10.9 -5.6,7.8 -2.4,18.7 3.8,25.4 l 0.7,0.7 -0.7,0.7 c -1.7,1.6 -7.2,7.3 -4.6,13.9 1.7,4.1 5.3,7.2 8.9,9.9 l 0.9,0.7 -0.9,0.8 c -6.8,6.5 -2,17 2.6,22 9.3,9.6 23.3,15.1 38.4,15.1 2.1,0 4.2,-0.1 6.3,-0.3 h 0.2 l 0.2,0.1 c 11.9,3.9 25,6 38.8,6.2 3.1,-2.3 6,-4.7 8.7,-7.4 -6.5,0.2 -13,0.1 -19.5,-0.4 14.2,-15.1 24.7,-37 19,-58.1 -0.8,-3.2 -2.1,-6.3 -3.5,-9.3 0.7,0.2 1.4,0.4 2,0.6 8,2.1 16.2,3.5 24.4,4.4 -0.1,-1.3 -0.3,-2.6 -0.5,-3.9 -0.2,-1.5 -0.5,-3 -0.9,-4.5 -6.7,-0.3 -12.6,-1 -17.8,-2.2 -1.4,-0.2 -2.8,-0.6 -4.3,-1 z M 169.2,74.4 c 3.8,-1.6 7.9,-2.1 12,-2.3 12.8,0.4 26.5,4 35.8,13.1 2.1,2.1 2.8,3.9 2.6,5.6 0.4,4.5 -2,9.4 -5.3,12.4 -14,-7.9 -31.9,-13.6 -47.2,-6 -3.3,2.3 -4.8,-3.5 -6.3,-5.7 -3.6,-7 1.4,-14.8 8.4,-17.1 z m -8.1,38.5 c -0.1,-0.9 0.4,-1.9 1.9,-3.3 4.8,-5.4 11.7,-8.4 19,-8.5 13.3,0.2 26.3,5.9 36.5,14.2 2.5,2.1 4.3,3.3 3.1,4.7 0.9,2.7 0.4,5.5 -2.6,6.9 -3.4,3.2 -7.2,-1.3 -11,-1.4 -12.2,-3.1 -25.4,-4.9 -37.7,-2.1 -3.4,-1.9 -9.7,-6.2 -9.2,-10.5 z m 6.3,23 c -0.5,-1.3 0.4,-2.7 3.4,-3.9 2.7,-1.5 5.6,-2.5 8.7,-2.4 12.8,0.1 26.7,0.8 37.6,8.2 1.6,1.1 2,2 1.8,2.6 0.6,3.3 -3.4,7.1 -6.5,7.8 -13.2,3.7 -27.8,1.6 -40.1,-3.9 -3.5,-0.9 -5.6,-5.1 -4.9,-8.4 z m 21.5,20.9 c 11.4,0.9 25.3,2.3 33.9,-6.8 4.3,-4.4 5.1,-12.4 0.5,-16.8 6.3,-3.4 8,-11.8 4.5,-17.8 -1.5,-3.2 -4.1,-5.8 -6.8,-8.1 6.3,-6.9 8.9,-18.3 2.5,-26 -6.8,-8.8 -18.4,-11.8 -28.2,-15.4 -8.9,-11.9 -11.9,-30.1 -3.2,-42.4 0.2,-0.2 0.3,-0.5 0.5,-0.7 0.1,-0.1 0.2,-0.3 0.3,-0.4 0.3,-0.3 0.5,-0.7 0.8,-1 0.1,-0.1 0.2,-0.2 0.3,-0.3 0.3,-0.3 0.5,-0.6 0.8,-0.9 0.4,-0.4 0.8,-0.8 1.3,-1.2 2.8,-2.5 6.5,-4.8 10.5,-5.1 7.2,-0.6 9.7,8.7 7.4,14.2 -2.8,9.2 -7.9,19.9 -2.3,29.1 6.8,11.1 19.7,16.6 26.1,28.1 6.6,9.3 7,22.3 -0.4,31.1 -1.4,2.9 -7.3,5.3 -4.7,9 1.5,2.2 5.4,-2.5 4.1,1.3 -1.8,13.7 -9.7,28.5 -24.2,31.9 -7.7,1.5 -16.2,1 -23.7,-1.8 z m 42.7,4.3 c -1.9,3.1 -5.5,1.8 -8.3,1.1 15.5,-8.8 21,-27.4 21.9,-44.2 1.1,-4.3 4.4,-8 4.9,-12.6 l 0.2,-0.8 0.2,0.7 c 7,20.2 -4.3,42.1 -18.9,55.8 z"
   class="st5" />
		<path
   id="path1150"
   d="m 255.3,96.7 c 1.4,3 2.7,6 3.5,9.3 5.7,21.1 -4.8,43 -19,58.1 6.5,0.5 13,0.6 19.5,0.4 16.1,-15.9 25,-38.6 22.4,-62.7 -8.2,-0.9 -16.3,-2.3 -24.4,-4.4 -0.6,-0.3 -1.3,-0.5 -2,-0.7 z"
   class="st5" />
		
			<linearGradient
   gradientTransform="matrix(91.9891,0,0,-91.9891,426.3429,205.8814)"
   y2="0.81809998"
   x2="-1.0275"
   y1="0.81809998"
   x1="-2.0274999"
   gradientUnits="userSpaceOnUse"
   id="SVGID_1_">
			<stop
   id="stop1152"
   style="stop-color:#46738B"
   offset="0" />
			<stop
   id="stop1154"
   style="stop-color:#27414F"
   offset="1" />
		</linearGradient>
		<path
   style="fill:url(#SVGID_1_)"
   id="path1157"
   d="m 255.3,96.7 c 1.4,3 2.7,6 3.5,9.3 5.7,21.1 -4.8,43 -19,58.1 6.5,0.5 13,0.6 19.5,0.4 16.1,-15.9 25,-38.6 22.4,-62.7 -8.2,-0.9 -16.3,-2.3 -24.4,-4.4 -0.6,-0.3 -1.3,-0.5 -2,-0.7 z"
   class="st6" />
		<path
   id="path1159"
   d="m 250.3,104.6 -0.2,0.8 c -0.4,4.6 -3.8,8.4 -4.9,12.6 -0.9,16.8 -6.5,35.4 -21.9,44.2 2.8,0.7 6.4,2 8.3,-1.1 14.6,-13.8 25.9,-35.6 18.9,-55.8 z"
   class="st7" />
		<path
   id="path1161"
   d="m 236.8,126.5 c 1.4,-3.8 -2.6,0.9 -4.1,-1.3 -2.6,-3.6 3.4,-6.1 4.7,-9 7.4,-8.8 7,-21.8 0.4,-31.1 -6.4,-11.5 -19.3,-17 -26.1,-28.1 -5.6,-9.2 -0.5,-19.9 2.3,-29.1 -1.7,5.6 -6.4,11.7 -8.5,17.7 -1.4,3.9 -12.4,2.7 -14.5,-2.4 -2.8,-6.8 -3.2,-13.6 1.1,-19.8 -8.7,12.3 -5.7,30.5 3.2,42.4 9.8,3.5 21.4,6.6 28.2,15.4 6.4,7.7 3.7,19.1 -2.5,26 2.7,2.3 5.3,4.9 6.8,8.1 3.6,6.1 1.9,14.4 -4.5,17.8 4.7,4.4 3.9,12.3 -0.5,16.8 -8.5,9.1 -22.5,7.8 -33.9,6.8 7.5,2.8 15.9,3.2 23.7,1.6 14.5,-3.3 22.3,-18 24.2,-31.8 z"
   class="st7" />
		<path
   id="path1163"
   d="m 194.9,20.2 c 0.4,-0.4 0.8,-0.8 1.3,-1.2 -0.5,0.3 -0.9,0.7 -1.3,1.2 z"
   class="st7" />
		<path
   id="path1165"
   d="m 193.8,21.4 c 0.1,-0.1 0.2,-0.2 0.3,-0.3 -0.1,0 -0.2,0.2 -0.3,0.3 z"
   class="st7" />
		<path
   id="path1167"
   d="m 192.7,22.8 c 0.1,-0.1 0.2,-0.3 0.3,-0.4 -0.1,0.1 -0.2,0.2 -0.3,0.4 z"
   class="st7" />
		<path
   id="path1169"
   d="m 167.1,97.2 c 15.3,-7.6 33.2,-1.9 47.2,6 3.2,-3 5.7,-8 5.3,-12.4 -0.3,2.4 -2.5,4.6 -5.3,7.2 -14,-7.9 -31.9,-13.6 -47.2,-6 -3.3,2.3 -4.8,1.8 -6.3,-0.4 1.4,2.1 3,8 6.3,5.6 z"
   class="st7" />
		<path
   id="path1171"
   d="m 167.1,92 c 15.3,-7.6 33.2,-1.9 47.2,6 2.8,-2.6 5,-4.8 5.3,-7.2 0.2,-1.7 -0.5,-3.5 -2.6,-5.6 -9.4,-9.1 -23.1,-12.7 -35.8,-13.1 -4.1,0.1 -8.2,0.7 -12,2.3 -7,2.3 -12,10.1 -8.4,17.2 1.4,2.1 3,2.7 6.3,0.4 z"
   class="st8" />
		<path
   id="path1173"
   d="m 208.1,125.5 c 3.8,0.2 7.6,4.7 11,1.4 3,-1.4 3.5,-4.2 2.6,-6.9 -0.4,0.5 -1.3,1 -2.6,1.6 -3.4,3.2 -7.2,-1.3 -11,-1.4 -12.2,-3.1 -25.4,-4.9 -37.7,-2.1 -3.2,-1.8 -8.9,-2.8 -9.3,-5.3 -0.5,4.3 5.8,8.6 9.3,10.6 12.3,-2.8 25.5,-1 37.7,2.1 z"
   class="st7" />
		<path
   id="path1175"
   d="m 170.4,118.2 c 12.3,-2.8 25.5,-1 37.7,2.1 3.8,0.2 7.6,4.7 11,1.4 1.3,-0.6 2.2,-1.1 2.6,-1.6 1.2,-1.4 -0.6,-2.6 -3.1,-4.7 -10.3,-8.3 -23.3,-14 -36.5,-14.2 -7.3,0.1 -14.2,3.1 -19,8.5 -1.5,1.4 -2.1,2.4 -1.9,3.3 0.3,2.4 6,3.4 9.2,5.2 z"
   class="st8" />
		<path
   id="path1177"
   d="m 212.4,148.2 c 3.1,-0.8 7.1,-4.6 6.5,-7.8 -0.5,1.3 -3.8,1.9 -6.5,2.5 -13.2,3.7 -27.8,1.6 -40.1,-3.9 -2.6,-0.7 -4.4,-1.9 -4.9,-3.2 -0.7,3.3 1.4,7.5 4.9,8.4 12.3,5.7 26.9,7.7 40.1,4 z"
   class="st7" />
		<path
   id="path1179"
   d="m 172.3,139.1 c 12.3,5.5 26.9,7.6 40.1,3.9 2.7,-0.6 6,-1.2 6.5,-2.5 0.2,-0.7 -0.2,-1.5 -1.8,-2.6 -10.9,-7.4 -24.8,-8.1 -37.6,-8.2 -3.1,-0.1 -6,1 -8.7,2.4 -3,1.2 -3.9,2.6 -3.4,3.9 0.5,1.2 2.3,2.3 4.9,3.1 z"
   class="st8" />
		<path
   id="path1181"
   d="m 191.1,43.3 c 2.1,5.1 13,6.4 14.5,2.4 2.2,-6 6.8,-12.2 8.5,-17.7 2.3,-5.5 -0.1,-14.8 -7.4,-14.2 -4,0.3 -7.7,2.6 -10.5,5.1 -0.5,0.4 -0.9,0.8 -1.3,1.2 -0.3,0.3 -0.6,0.6 -0.8,0.9 -0.1,0.1 -0.2,0.2 -0.3,0.3 -0.3,0.3 -0.6,0.7 -0.8,1 -0.1,0.1 -0.2,0.3 -0.3,0.4 -0.2,0.2 -0.3,0.5 -0.5,0.7 -4.3,6.3 -3.9,13.1 -1.1,19.9 z"
   class="st8" />
	</g>
</g>
<g
   id="Layer_4">
</g>
</svg>
